<svg width="100" height="100" viewBox="0 0 100 100" fill="none" xmlns="http://www.w3.org/2000/svg">
<circle opacity="0.7" cx="50" cy="50" r="50" fill="#D87FF5"/>
<path d="M37.2423 53.3202C33.7266 51.4921 29.7657 54.4452 29.0157 54.4452C28.2657 54.4452 27.6328 39.9608 27.7734 38.5077C27.914 37.0546 28.4766 34.6639 31.711 34.3124C34.9454 33.9608 36.0704 36.2108 36.6563 37.0546C37.2423 37.8983 37.7579 41.6483 39.6563 44.3905C41.5548 47.1327 44.7657 49.0077 47.1563 49.2655C49.547 49.5233 55.7813 50.0155 56.7188 50.0155C57.6563 50.0155 53.9063 43.9452 53.6485 43.5936C53.3907 43.2421 52.2423 41.1092 53.6485 40.3827C55.0548 39.6561 56.3438 41.8358 56.5313 42.1405C56.7188 42.4452 59.6954 49.6639 60.5626 50.0155C61.4298 50.3671 66.2345 50.7186 67.922 51.7264C69.6095 52.7342 71.2032 55.9217 71.2501 57.3983C71.297 58.8749 70.5001 60.4452 70.0782 60.4452C69.6563 60.4452 68.2032 52.4061 61.6876 52.5936C55.172 52.7811 55.0548 59.9999 54.8438 60.4452C54.6329 60.8905 41.8595 60.7264 41.5548 60.4452C41.2501 60.1639 40.7579 55.1483 37.2423 53.3202Z" fill="white"/>
<circle cx="33.9845" cy="59.9531" r="5.20312" fill="white"/>
<circle cx="62.25" cy="59.9531" r="5.20312" fill="white"/>
</svg>
