<svg width="100" height="100" viewBox="0 0 100 100" fill="none" xmlns="http://www.w3.org/2000/svg">
<circle opacity="0.7" cx="50" cy="50" r="50" fill="#7FC8F5"/>
<path d="M53.25 43.875C53.25 44.9062 52.4062 45.75 51.375 45.75H48.4125C47.8875 45.75 47.3812 45.6375 46.9125 45.4312L42.6 43.5375L40.125 50.9062V66.375C40.125 67.4062 39.2812 68.25 38.25 68.25H34.5C33.4688 68.25 32.625 67.4062 32.625 66.375V50.1187C32.625 49.7062 32.7 49.2938 32.8312 48.9L35.6063 40.8C35.7721 40.3046 36.0402 39.8496 36.3931 39.4643C36.746 39.0791 37.1758 38.7723 37.6548 38.5637C38.1338 38.3551 38.6513 38.2495 39.1737 38.2536C39.6961 38.2577 40.2118 38.3714 40.6875 38.5875L48.4688 42.0188L51.375 42C52.4062 42 53.25 42.8438 53.25 43.875ZM42 28.875C39.9375 28.875 38.25 30.5625 38.25 32.625C38.25 34.6875 39.9375 36.375 42 36.375C44.0625 36.375 45.75 34.6875 45.75 32.625C45.75 30.5625 44.0625 28.875 42 28.875ZM45.75 62.625H64.5C65.5312 62.625 66.375 61.7812 66.375 60.75C66.375 59.7188 65.5312 58.875 64.5 58.875H45.75C44.7188 58.875 43.875 59.7188 43.875 60.75C43.875 61.7812 44.7188 62.625 45.75 62.625ZM63.5625 57C65.1188 57 66.375 55.7437 66.375 54.1875C66.375 52.6313 65.1188 51.375 63.5625 51.375C62.0063 51.375 60.75 52.6313 60.75 54.1875C60.75 55.7437 62.0063 57 63.5625 57ZM51.375 49.5C51.375 48.4688 50.5312 47.625 49.5 47.625H45.75C44.7188 47.625 43.875 48.4688 43.875 49.5C43.875 50.5312 44.7188 51.375 45.75 51.375H47.625V53.25C47.625 55.3125 49.3125 57 51.375 57H55.125C57.1875 57 58.875 55.3125 58.875 53.25V49.5C58.875 48.4688 58.0312 47.625 57 47.625C55.9688 47.625 55.125 48.4688 55.125 49.5V51.375H51.375V49.5Z" fill="white"/>
</svg>
