<svg width="100" height="100" viewBox="0 0 100 100" fill="none" xmlns="http://www.w3.org/2000/svg">
<circle opacity="0.7" cx="50" cy="50" r="50" fill="#D87FF5"/>
<path fill-rule="evenodd" clip-rule="evenodd" d="M31.4754 43.1385C31.7639 42.2731 35.5139 38.8115 36.5235 38.5231C37.5331 38.2346 41.5716 38.0904 42.8697 38.5231C44.1678 38.9557 47.7735 42.5615 48.062 43.1385C48.3504 43.7154 52.2447 55.5423 51.9562 55.975C51.6678 56.4077 49.6485 57.1289 49.2158 56.9846C48.7832 56.8403 46.7639 50.4942 46.7639 50.4942C46.7639 50.4942 47.0524 58.8596 46.7639 59.1481C46.4754 59.4365 42.5812 61.0231 41.4274 60.8788C40.6718 60.7844 39.6069 59.4529 38.8808 58.545C38.4982 58.0666 38.2096 57.7058 38.1101 57.7058C37.9755 57.7058 38.3431 58.302 38.7443 58.953C39.2033 59.6975 39.7063 60.5135 39.5524 60.5904C39.2639 60.7346 36.6678 60.8788 35.9466 60.5904C35.2254 60.3019 33.3504 59.4365 33.062 59.1481C32.7735 58.8596 33.062 51.0712 33.062 51.0712C33.062 51.0712 31.3312 56.9846 30.8985 56.9846C30.4658 56.9846 28.0139 56.2635 27.8697 55.975C27.7254 55.6865 31.187 44.0038 31.4754 43.1385ZM37.0001 39.5C37.1443 39.2115 42.2114 39.2116 42.4999 39.5C42.7883 39.7885 42.345 42.3454 41.9123 43.6434C41.4796 44.9415 40.3257 47.8261 40.0373 47.8261C39.7488 47.8261 38.4507 45.0857 37.8738 43.6434C37.297 42.2011 36.8558 39.7885 37.0001 39.5Z" fill="white"/>
<path fill-rule="evenodd" clip-rule="evenodd" d="M55.1819 38.5231C55.903 38.2346 69.1721 38.0904 69.6049 38.5231C69.6974 38.6155 69.8294 39.7086 69.9769 41.3748C69.9241 41.3071 69.8418 41.2636 69.7493 41.2636H54.8935C54.8253 41.2636 54.7625 41.2873 54.7131 41.3269C54.8675 39.664 55.028 38.5846 55.1819 38.5231ZM54.2811 47.6243C53.9324 54.0615 53.7184 61.5788 53.8838 61.7442C54.1722 62.0327 58.9319 62.0327 59.3645 61.7442C59.5717 61.6061 60.2087 58.8893 60.8638 56.0946C61.5772 53.0521 62.3121 49.9173 62.5376 49.9173C62.7887 49.9173 63.6223 53.8013 64.3344 57.1188L64.3344 57.1188C64.8496 59.5193 65.3011 61.6231 65.4222 61.7442C65.7107 62.0327 70.7588 62.1769 71.0472 61.7442C71.2128 61.4959 70.8558 54.0261 70.4397 47.6241C70.3977 47.628 70.3542 47.6227 70.3121 47.6069C69.7166 47.3836 69.0814 47.0756 68.5 46.5518C67.9169 46.0266 67.4009 45.2961 67.0257 44.2454C66.9721 44.0953 67.0503 43.9303 67.2003 43.8767C67.3503 43.8231 67.5154 43.9013 67.569 44.0513C67.9148 45.0198 68.3799 45.6672 68.8861 46.1232C69.3593 46.5495 69.8797 46.8187 70.4002 47.0228C70.2678 45.0247 70.1309 43.1591 70.0042 41.6873C69.9557 41.7784 69.8597 41.8405 69.7493 41.8405H54.8935C54.8066 41.8405 54.7287 41.8021 54.6758 41.7413C54.5486 43.1964 54.4263 45.0287 54.316 46.9905C55.1634 46.5782 55.7318 46.1561 56.157 45.7146C56.6124 45.2417 56.9155 44.7346 57.2225 44.157C57.2973 44.0163 57.4719 43.9629 57.6126 44.0376C57.7533 44.1124 57.8067 44.2871 57.7319 44.4277C57.4175 45.0194 57.0844 45.5833 56.5726 46.1148C56.0597 46.6474 55.3794 47.1353 54.381 47.5983C54.3485 47.6133 54.3147 47.6218 54.2811 47.6243Z" fill="white"/>
</svg>
