<svg width="100" height="100" viewBox="0 0 100 100" fill="none" xmlns="http://www.w3.org/2000/svg">
<circle opacity="0.7" cx="50" cy="50" r="50" fill="#7FC8F5"/>
<path fill-rule="evenodd" clip-rule="evenodd" d="M39.2984 29.647H60.1013C60.2587 29.647 60.3863 29.7746 60.3863 29.9319V32.6392C60.3863 32.7965 60.2587 32.9241 60.1013 32.9241H39.2984C39.1411 32.9241 39.0135 32.7965 39.0135 32.6392V29.9319C39.0135 29.7746 39.1411 29.647 39.2984 29.647ZM50.4318 34.349H60.3863C60.9562 34.349 61.2412 37.3412 61.2412 39.1935C61.2412 40.9295 59.7393 61.4392 59.5507 64.0073C59.5398 64.1562 59.4159 64.2709 59.2666 64.2709H53.5018C53.3632 64.2709 53.2447 64.1712 53.221 64.0347L49.9648 45.2789C49.9106 44.9671 49.4647 44.9626 49.4043 45.2732L45.7551 64.0403C45.7291 64.1742 45.6118 64.2709 45.4754 64.2709H39.2816C39.1309 64.2709 39.0064 64.1545 38.9972 64.0041C38.8397 61.4137 37.5886 40.7956 37.5886 39.1935C37.5886 37.4837 37.5886 34.349 38.1586 34.349H48.3536L45.6921 38.2203C45.4692 38.5446 45.5513 38.9881 45.8756 39.211C46.1998 39.4339 46.6433 39.3518 46.8662 39.0275L49.3855 35.3632L51.6594 39.0015C51.8679 39.3352 52.3075 39.4366 52.6411 39.2281C52.9748 39.0195 53.0762 38.58 52.8677 38.2463L50.4318 34.349ZM44.922 65.4108H39.9278C39.749 65.4108 39.6144 65.5735 39.6479 65.7491L40.1092 68.1713C40.1348 68.3057 40.2523 68.403 40.3892 68.403H44.3453C44.4773 68.403 44.592 68.3124 44.6225 68.184L45.1993 65.7617C45.2419 65.5827 45.1061 65.4108 44.922 65.4108ZM53.8913 65.4108H58.7753C58.9487 65.4108 59.0819 65.5644 59.0574 65.736L58.7114 68.1583C58.6913 68.2987 58.5711 68.403 58.4293 68.403H54.3527C54.2159 68.403 54.0984 68.3057 54.0728 68.1713L53.6114 65.7491C53.578 65.5735 53.7126 65.4108 53.8913 65.4108Z" fill="white"/>
</svg>
