<svg width="100" height="100" viewBox="0 0 100 100" fill="none" xmlns="http://www.w3.org/2000/svg">
<circle opacity="0.7" cx="50" cy="50" r="50" fill="#7FC8F5"/>
<path d="M42.1889 48.5371C41.6619 47.9906 41.8793 45.5072 41.7666 44.9437C41.6512 44.3666 36.9188 43.4432 36.4571 42.9815C35.9954 42.5198 35.88 41.9427 36.4571 41.1347C37.0342 40.3267 38.073 40.4422 38.7656 40.5576C39.4581 40.673 43.8442 42.1735 44.4214 42.9815C44.9985 43.7895 43.9597 44.7129 44.4214 44.9437C44.8831 45.1746 49.5 44.5974 49.6154 43.9049C49.7309 43.2123 48.1149 40.5576 47.8841 40.0959C47.6532 39.6342 47.6532 38.7108 48.4612 38.2491C49.2692 37.7874 50.4234 38.1337 51.0005 38.7108C51.5408 39.2511 54.3067 44.218 54.3734 45.4179C54.8346 45.3031 55.2963 45.1887 55.7568 45.0751C55.4953 44.2109 56.1896 41.0783 58.734 40.4422C61.3517 39.7878 63.8592 41.8132 64.3288 43.046C68.0516 42.2204 70.6769 41.7525 70.738 42.0581C70.9496 43.1162 66.7364 43.4049 66 44.5C65.2636 45.5951 63.4698 47.5447 61.735 50.0224C60.0001 52.5 55.0404 54.0623 52.9627 54.5239C50.8851 54.9856 47.307 54.8702 45.5756 54.5239C43.8442 54.1776 40.1507 50.8304 39.2273 50.5995C38.3039 50.3686 36 52.5 34.7257 51.7537C33.4515 51.0075 37.9576 49.676 38.7656 49.4452C38.9222 49.4005 40.211 49.0559 42.1889 48.5371Z" fill="white"/>
<circle cx="34.3095" cy="56.3095" r="4.55951" stroke="white" stroke-width="1.5"/>
<rect x="33" y="60" width="28" height="1" rx="0.5" fill="white"/>
</svg>
