<svg width="100" height="100" viewBox="0 0 100 100" fill="none" xmlns="http://www.w3.org/2000/svg">
<circle opacity="0.7" cx="50" cy="50" r="50" fill="#F57FAC"/>
<path d="M60.75 58.4375L66.375 31.25C66.375 31.25 56.5312 33.125 56.5312 36.875C56.5312 39.2188 60.2812 40.625 58.875 42.0312C57.4688 43.4375 52.3125 44.8438 52.3125 48.5938C52.3125 50.9375 53.85 52.6812 52.3125 54.2188C50.9062 55.625 49.5 54.8881 47.1562 54.2188C44.5312 53.4688 39.1875 52.8125 37.3125 53.2812C35.4375 53.75 33.5625 54.6875 33.5625 57.5C33.5625 59.0469 34.5 60.7812 36.8438 61.25C39.1875 61.7188 42 59.375 45.75 59.375C49.5 59.375 54.1875 62.1875 57 62.1875C59.8125 62.1875 60.75 58.4375 60.75 58.4375Z" fill="white" stroke="white" stroke-width="2" stroke-linejoin="round"/>
<path d="M37.3125 61.25L34.5 68.75H65.4375L59.8125 61.25" stroke="white" stroke-width="2" stroke-linejoin="round"/>
</svg>
