<svg width="86" height="85" viewBox="0 0 86 85" fill="none" xmlns="http://www.w3.org/2000/svg">
<path fill-rule="evenodd" clip-rule="evenodd" d="M75.9283 3.84766H43.8893C43.3434 3.84766 42.9009 4.28878 42.9009 4.83464V6.62674C42.9354 6.61916 42.9711 6.61516 43.0078 6.61516H76.9695C76.9516 5.91328 76.9288 5.27328 76.9093 4.78595C76.8883 4.25993 76.4548 3.84766 75.9283 3.84766ZM76.99 7.60353H43.0078C42.9711 7.60353 42.9354 7.59953 42.9009 7.59194V11.7066C42.9009 11.7222 42.9015 11.742 42.9025 11.7659C42.9365 11.7586 42.9717 11.7547 43.0078 11.7547H76.7607C76.7946 11.7547 76.8277 11.7581 76.8596 11.7646L76.8679 11.7066C76.9998 10.8167 77.0144 9.16434 76.99 7.60353ZM76.7383 12.7431H43.0078C43.0013 12.7431 42.9949 12.7429 42.9884 12.7427C43.0728 13.5755 43.2144 14.8537 43.3969 16.4468C44.3373 16.2057 45.495 16.2938 46.6581 16.526C47.8664 16.7672 49.1418 17.1769 50.298 17.6113C51.4561 18.0464 52.5062 18.5105 53.266 18.8655C53.6463 19.0431 53.9547 19.1938 54.1685 19.3003L54.2393 19.3357C54.395 19.2335 54.6202 19.0909 54.9087 18.9217C55.4955 18.5775 56.3457 18.1226 57.4064 17.6743C59.5251 16.7789 62.5006 15.9031 65.9035 16.0047C69.2718 16.1053 71.8266 16.797 73.5377 17.6364C74.3912 18.0551 75.05 18.5181 75.4936 18.9765C75.6761 19.1651 75.8388 19.3707 75.9591 19.586C76.3005 16.5379 76.5789 14.0844 76.7383 12.7431ZM45.0705 30.559C44.9822 29.8275 44.8943 29.0979 44.8073 28.3742C44.8862 28.4275 44.9812 28.4586 45.0835 28.4586H54.5719C54.8448 28.4586 55.0661 28.2373 55.0661 27.9644C55.0661 27.6914 54.8448 27.4702 54.5719 27.4702H45.0835C44.9387 27.4702 44.8085 27.5325 44.7181 27.6317C44.6172 26.7915 44.5177 25.9612 44.4204 25.1471C44.4272 25.1474 44.4341 25.1475 44.4411 25.1475H50.2725C50.5454 25.1475 50.7667 24.9263 50.7667 24.6533C50.7667 24.3804 50.5454 24.1591 50.2725 24.1591H44.4411C44.3938 24.1591 44.348 24.1658 44.3047 24.1782C44.0076 21.6857 43.7349 19.3747 43.5106 17.4343C43.5356 17.4313 43.5607 17.4264 43.5857 17.4194C44.3121 17.2164 45.3156 17.2659 46.4647 17.4953C47.6007 17.722 48.8209 18.1122 49.9504 18.5365C51.0778 18.9601 52.1034 19.4133 52.8477 19.761C53.2195 19.9347 53.5204 20.0817 53.7278 20.185C53.8314 20.2366 53.9117 20.2773 53.9657 20.305L54.0267 20.3363L54.0364 20.3414C56.3733 21.708 58.3004 22.6174 60.2918 23.1881C62.2879 23.7603 64.3245 23.9853 66.8722 24.0103C69.4556 24.0356 71.6834 23.5423 73.2976 22.8799C74.1033 22.5493 74.7702 22.1708 75.2547 21.782C75.4445 21.6297 75.6218 21.4634 75.7691 21.2856C74.7503 30.4148 73.3133 43.5118 72.7064 49.0512C72.5417 50.555 71.2724 51.6849 69.7596 51.6849H50.2695C48.7722 51.6849 47.5105 50.5733 47.328 49.0871C47.2725 48.6353 47.2108 48.1324 47.1436 47.5849C47.2083 47.6159 47.2808 47.6334 47.3574 47.6334H51.805C52.078 47.6334 52.2992 47.4121 52.2992 47.1392C52.2992 46.8662 52.078 46.645 51.805 46.645H47.3574C47.2376 46.645 47.1278 46.6876 47.0423 46.7584C46.9494 46.0004 46.8481 45.1735 46.7402 44.2914C46.7939 44.3114 46.852 44.3223 46.9126 44.3223H50.1248C50.3977 44.3223 50.619 44.1011 50.619 43.8281C50.619 43.5552 50.3977 43.3339 50.1248 43.3339H46.9126C46.8091 43.3339 46.713 43.3658 46.6336 43.4201C46.5468 42.7099 46.4563 41.9691 46.363 41.204C46.4466 41.2689 46.5517 41.3076 46.6657 41.3076H51.7559C52.0288 41.3076 52.25 41.0864 52.25 40.8134C52.25 40.5405 52.0288 40.3192 51.7559 40.3192H46.6657C46.5085 40.3192 46.3684 40.3927 46.2779 40.5071C46.1785 39.6914 46.0761 38.8513 45.9717 37.9939C45.9887 37.9957 46.0059 37.9966 46.0233 37.9966H50.0756C50.3486 37.9966 50.5698 37.7753 50.5698 37.5024C50.5698 37.2294 50.3486 37.0082 50.0756 37.0082H46.0233C45.9644 37.0082 45.9078 37.0185 45.8554 37.0375C45.7559 36.2194 45.655 35.3884 45.5534 34.5506C45.6406 34.6909 45.7961 34.7843 45.9735 34.7843H51.8049C52.0778 34.7843 52.299 34.563 52.299 34.2901C52.299 34.0172 52.0778 33.7959 51.8049 33.7959H45.9735C45.7538 33.7959 45.5677 33.9392 45.5033 34.1374C45.3952 33.2455 45.2865 32.347 45.178 31.4491C45.2262 31.4648 45.2776 31.4733 45.331 31.4733H49.9764C50.2493 31.4733 50.4706 31.252 50.4706 30.9791C50.4706 30.7061 50.2493 30.4849 49.9764 30.4849H45.331C45.2354 30.4849 45.1462 30.512 45.0705 30.559ZM55.2241 19.8841C57.2109 21.0055 58.8736 21.7535 60.5641 22.238C62.4473 22.7778 64.389 22.9975 66.8819 23.022C69.3392 23.0461 71.4356 22.5757 72.9224 21.9656C73.6672 21.6599 74.245 21.325 74.6361 21.0111C75.052 20.6774 75.1713 20.4372 75.1832 20.3415C75.1914 20.2757 75.1484 20.0411 74.7834 19.6638C74.4409 19.31 73.8859 18.9081 73.1024 18.5238C71.5395 17.7571 69.1278 17.0898 65.874 16.9927C62.6547 16.8966 59.8235 17.7258 57.7911 18.5847C56.7762 19.0136 55.9647 19.4482 55.4087 19.7743C55.3436 19.8124 55.282 19.8491 55.2241 19.8841Z" fill="#8E99A6"/>
<circle cx="60.7498" cy="27.9645" r="1.68023" stroke="#FFC107" stroke-width="1.48256"/>
<circle cx="66.2355" cy="31.9176" r="1.68023" stroke="#FFC107" stroke-width="1.48256"/>
<circle cx="57.5378" cy="36.7614" r="1.68023" stroke="#FFC107" stroke-width="1.48256"/>
<circle cx="69.3981" cy="39.1334" r="1.68023" stroke="#FFC107" stroke-width="1.48256"/>
<circle cx="64.5548" cy="45.4586" r="1.68023" stroke="#FFC107" stroke-width="1.48256"/>
<circle cx="56.6481" cy="46.941" r="1.68023" stroke="#FFC107" stroke-width="1.48256"/>
<path d="M36.1621 81.9179H15.7133C14.7764 81.9179 13.8395 79.596 13.758 78.8628C13.6765 78.1296 13.758 53.9738 13.758 52.4666C13.758 50.9594 16.6909 47.1711 16.6502 46.7638C16.6094 46.3564 14.0024 46.7638 13.758 44.4826C13.5136 42.2015 13.6358 38.7797 13.758 38.2502C13.8802 37.7206 14.1653 37.1502 14.8171 36.6208C15.3505 36.1875 16.7022 36.1361 17.1757 36.1316C17.2767 36.1307 17.3679 36.0705 17.3966 35.9737C17.6578 35.0902 17.9802 32.629 21.3347 32.6289C24.9194 32.6288 30.9074 32.6287 31.9665 32.7917C33.0255 32.9547 34.5735 34.5024 34.7364 36.2949C34.8814 37.8893 34.7685 43.4802 34.7417 44.6961C34.7388 44.8288 34.6389 44.9307 34.5062 44.9307H20.6422C20.3163 44.9306 19.7867 45.0529 19.7867 45.5824C19.7867 46.112 19.8682 46.7231 20.4793 46.6823C21.0903 46.6416 35.0216 46.4378 35.3882 46.7638C35.7548 47.0897 38.3618 52.3851 38.3618 53.0369V57.1922C38.3618 57.3272 38.2524 57.4363 38.1174 57.4363H24.7971C24.6621 57.4363 24.5527 57.5457 24.5527 57.6807V74.6264C24.5527 74.7614 24.6621 74.8708 24.7971 74.8708H38.1174C38.2524 74.8708 38.3618 74.9786 38.3618 75.1136V79.596C38.3618 80.2885 36.8139 81.9179 36.1621 81.9179Z" fill="#8E99A6"/>
<path d="M38.1174 59.0657H26.3451C26.2101 59.0657 26.1006 59.1751 26.1006 59.3101V72.8748C26.1006 73.0098 26.2101 73.1192 26.3451 73.1192H38.1174C38.2524 73.1192 38.3618 73.0098 38.3618 72.8748V59.3101C38.3618 59.1751 38.2524 59.0657 38.1174 59.0657Z" fill="#8E99A6"/>
<path d="M18.1161 53.8115C17.6212 53.8115 17.22 53.4103 17.22 52.9154C17.22 52.4204 17.6212 52.0192 18.1161 52.0192H30.3366C30.8315 52.0192 31.2327 52.4204 31.2327 52.9154C31.2327 53.4103 30.8315 53.8115 30.3366 53.8115H18.1161Z" fill="#FFC107"/>
<path d="M15.4276 38.7395C15.4276 38.2896 15.7923 37.9248 16.2422 37.9248H17.1384C17.1834 37.9248 17.2199 37.9613 17.2199 38.0063V44.8497C17.2199 44.8947 17.1834 44.9312 17.1384 44.9312H16.2422C15.7923 44.9312 15.4276 44.5664 15.4276 44.1165V38.7395Z" fill="#FFC107"/>
</svg>
