<svg width="100" height="100" viewBox="0 0 100 100" fill="none" xmlns="http://www.w3.org/2000/svg">
<circle opacity="0.7" cx="50" cy="50" r="50" fill="#7FC8F5"/>
<rect x="27.0239" y="69.7412" width="7.42533" height="2.90952" rx="1.45476" transform="rotate(-44.6968 27.0239 69.7412)" fill="white"/>
<path fill-rule="evenodd" clip-rule="evenodd" d="M31.3172 67.5699C29.7594 66.0338 32.36 63.1797 32.3702 63.1685C32.3706 63.1682 32.37 63.1688 32.3703 63.1685C32.3806 63.1573 45.1159 49.4507 45.6287 48.7489C45.8167 48.4917 46.0844 47.9878 46.4027 47.3889C46.9531 46.3534 47.6546 45.0336 48.356 44.2124C49.4631 42.9163 62.7215 29.982 63.8286 29.0098C64.9357 28.0376 68.3382 27.2816 69.8773 29.0098C71.4164 30.738 71.4164 33.7892 70.6604 35.0584C69.9098 36.3185 55.9055 49.8207 55.703 50.0159C55.6989 50.0199 55.6979 50.0205 55.6957 50.0218L55.6905 50.0251C55.4805 50.1706 55.1934 50.3724 54.8597 50.6068L54.8596 50.6069L54.8594 50.607C53.5053 51.5584 51.3853 53.048 50.5432 53.5014C49.4929 54.067 35.2803 66.7203 35.2059 66.7866L35.2048 66.7875C35.2048 66.7875 35.2053 66.7871 35.204 66.7884C35.1348 66.8568 32.8542 69.0856 31.3172 67.5699ZM51.4044 49.1637C51.066 49.446 51.0205 49.9492 51.3028 50.2876C51.585 50.626 52.0882 50.6715 52.4266 50.3892L53.994 49.0818C54.3324 48.7995 54.3779 48.2964 54.0957 47.958C53.8134 47.6196 53.3103 47.5741 52.9719 47.8563L51.4044 49.1637ZM54.5777 42.9825C54.2647 42.6629 54.27 42.15 54.5897 41.837L59.6664 36.8651C59.986 36.552 60.4989 36.5574 60.8119 36.877L62.2174 38.3121C62.5304 38.6317 62.5251 39.1446 62.2054 39.4577L57.1287 44.4296C56.8091 44.7426 56.2962 44.7373 55.9832 44.4176L54.5777 42.9825ZM62.0717 31.6095C61.8111 31.352 61.3911 31.3545 61.1336 31.6151C60.8762 31.8757 60.8787 32.2957 61.1393 32.5532L66.4029 37.7537C66.6635 38.0111 67.0835 38.0086 67.3409 37.748C67.5984 37.4874 67.5959 37.0674 67.3353 36.81L62.0717 31.6095Z" fill="white"/>
</svg>
