<svg width="100" height="100" viewBox="0 0 100 100" fill="none" xmlns="http://www.w3.org/2000/svg">
<circle opacity="0.7" cx="50" cy="50" r="50" fill="#7FC8F5"/>
<path d="M70.7164 57.7679H28.8631C28.5712 57.7679 28.3209 57.9745 28.3101 58.2662C28.2782 59.1335 28.4927 60.8291 30.6571 60.8291H69.2285C71.1654 60.8291 71.3213 59.1329 71.2744 58.2657C71.2586 57.9743 71.0082 57.7679 70.7164 57.7679Z" fill="white"/>
<path d="M28.3611 45.0638C27.6714 45.3399 27.9762 53.9434 28.0432 55.6417C28.0497 55.8054 28.1843 55.9312 28.3482 55.9312H63.5362C63.7162 55.9312 63.8564 55.7773 63.8341 55.5987C63.7651 55.0466 63.5931 53.9134 63.2592 53.023C62.8 51.7985 62.1877 50.7271 61.5755 50.574C60.9632 50.421 60.8102 51.9516 60.0449 52.4108C59.2796 52.8699 56.3714 53.3291 55.453 52.7169C54.5347 52.1046 54.2285 50.1148 54.3816 49.0434C54.5347 47.972 57.2898 44.7577 57.1367 44.4516C56.9836 44.1454 56.2183 43.3801 55.7592 43.5332C55.3 43.6863 53.7694 47.2067 52.851 47.8189C51.9326 48.4312 50.0959 49.0434 48.4122 48.2781C46.7285 47.5128 47.1877 44.6046 47.3408 43.9924C47.4938 43.3801 50.5551 40.1659 50.2489 39.7067C49.9428 39.2475 48.7183 38.4822 47.953 38.3291C47.1877 38.1761 41.6776 45.3698 39.2285 45.3699C36.7795 45.37 29.1265 44.7575 28.3611 45.0638Z" fill="white"/>
<path d="M70.7793 55.9312H65.402C65.2329 55.9312 65.0955 55.7954 65.092 55.6264C65.0767 54.888 65.002 53.0196 64.6367 52.4108C64.1775 51.6454 62.4938 49.3495 62.4938 49.0434C62.4938 48.7373 63.2592 47.8189 63.8714 47.8189C64.4836 47.8189 67.6979 50.2679 68.9224 51.6454C69.8652 52.7061 70.7172 54.6741 71.0593 55.5234C71.1389 55.721 70.9922 55.9312 70.7793 55.9312Z" fill="white"/>
<path d="M62.4938 45.8291C62.3408 45.2169 60.3509 43.5332 59.5857 43.5332C58.8204 43.5332 56.0652 48.125 55.7592 49.0434C55.4531 49.9618 55.7592 51.3393 56.3714 51.6454C56.9836 51.9516 57.9021 52.1047 58.6673 51.9516C59.4326 51.7984 62.6469 46.4413 62.4938 45.8291Z" fill="white"/>
<path d="M55.453 41.0842C55.6061 40.472 53.3101 38.9413 52.851 39.0944C52.3919 39.2476 48.8713 43.9924 48.7183 44.4516C48.5653 44.9108 48.2592 46.1353 49.1775 46.9005C50.0958 47.6658 51.3204 47.5128 51.7796 47.2067C52.2387 46.9005 55.2999 41.6964 55.453 41.0842Z" fill="white"/>
</svg>
