<svg width="100" height="100" viewBox="0 0 100 100" fill="none" xmlns="http://www.w3.org/2000/svg">
<circle opacity="0.7" cx="50" cy="50" r="50" fill="#A6F8E2"/>
<path d="M31.0113 43.6726C31.0113 43.6726 28.8803 30.1977 40.0363 30.3857C51.1923 30.5738 49.7508 43.6726 49.7508 43.6726" stroke="white" stroke-width="2.50697" stroke-linecap="round"/>
<path d="M29.0785 50.0682C29.0396 49.6982 29.3298 49.376 29.7018 49.376H50.8746C51.2459 49.376 51.5357 49.6969 51.4981 50.0663L49.7925 66.8028C49.6621 68.0824 48.5846 69.0556 47.2984 69.0556H33.3313C32.0482 69.0556 30.9722 68.0868 30.8381 66.8107L29.0785 50.0682Z" fill="white"/>
<path d="M27.7523 43.8611C27.7523 43.515 28.0329 43.2344 28.379 43.2344H52.4459C53.1382 43.2344 53.6994 43.7956 53.6994 44.4879V47.2455C53.6994 47.3147 53.6432 47.3709 53.574 47.3709H27.8776C27.8084 47.3709 27.7523 47.3147 27.7523 47.2455V43.8611Z" fill="white"/>
<path d="M69.6181 42.7951H59.5906C59.3829 42.7951 59.2143 42.6267 59.2143 42.419V37.8438C59.2143 37.6361 59.3827 37.4678 59.5904 37.4678H69.6182C69.8259 37.4678 69.9943 37.6361 69.9943 37.8438V42.419C69.9943 42.6267 69.8258 42.7951 69.6181 42.7951Z" stroke="white" stroke-width="3.13371" stroke-linecap="round"/>
<path d="M64.6044 55.8946V42.8584" stroke="white" stroke-width="3.13371" stroke-linecap="round"/>
<path d="M57.8355 60.7831C57.8355 57.3216 60.6415 54.5156 64.103 54.5156H64.9804C68.4418 54.5156 71.2478 57.3216 71.2478 60.7831V69.056C71.2478 69.1252 71.1917 69.1814 71.1224 69.1814H57.9609C57.8916 69.1814 57.8355 69.1252 57.8355 69.056V60.7831Z" fill="white"/>
</svg>
