<svg width="86" height="85" viewBox="0 0 86 85" fill="none" xmlns="http://www.w3.org/2000/svg">
<path d="M40.1067 24.1185C41.4109 22.2709 44.7809 18.4542 53.0335 12.844C65.08 4.65467 80.9596 25.9471 73.8412 33.5906C66.7227 41.234 60.6995 45.0559 59.6043 45.8277L31.1307 69.6243C31.1307 69.6243 27.2974 75.0839 20.7269 75.0839C12.5393 75.0839 6.80251 65.5867 11.9656 59.251C19.0842 50.5155 32.7734 57.0671 31.1307 69.6243L59.6043 45.8277C59.6043 45.8277 55.7713 34.6824 59.6043 33.5906C63.4373 32.4988 69.4606 27.0392 65.6276 22.1254C61.7946 17.2116 55.2238 22.1254 54.1286 26.4931C53.2495 29.9991 44.2556 27.1729 40.7409 25.9213C39.9581 25.6425 39.6276 24.7973 40.1067 24.1185Z" fill="#8E99A6"/>
<path d="M31.1307 69.6243C31.1307 69.6243 27.2974 75.0839 20.7269 75.0839C12.5393 75.0839 6.80251 65.5867 11.9656 59.251C19.0842 50.5155 32.7734 57.0671 31.1307 69.6243ZM31.1307 69.6243L59.6043 45.8277M59.6043 45.8277C60.6995 45.0559 66.7227 41.234 73.8412 33.5906C80.9596 25.9471 65.08 4.65467 53.0335 12.844C44.7809 18.4542 41.4109 22.2709 40.1067 24.1185C39.6276 24.7973 39.9581 25.6425 40.7409 25.9213C44.2556 27.1729 53.2495 29.9991 54.1286 26.4931C55.2238 22.1254 61.7946 17.2116 65.6276 22.1254C69.4606 27.0392 63.4373 32.4988 59.6043 33.5906C55.7713 34.6824 59.6043 45.8277 59.6043 45.8277Z" stroke="#8E99A6" stroke-width="2.28871" stroke-linecap="round"/>
<path d="M31.1307 12.8438L17.4414 48.8773" stroke="#FFC107" stroke-width="2.28871" stroke-linecap="round"/>
</svg>
