<svg width="100" height="100" viewBox="0 0 100 100" fill="none" xmlns="http://www.w3.org/2000/svg">
<circle opacity="0.7" cx="50" cy="50" r="50" fill="#D87FF5"/>
<path d="M34.5 68.25C33.9687 68.25 33.5238 68.07 33.165 67.71C32.8063 67.35 32.6262 66.905 32.625 66.375V50.1094C32.625 49.8906 32.6406 49.68 32.6719 49.4775C32.7031 49.275 32.75 49.0794 32.8125 48.8906L35.5781 40.8281C35.8281 40.0156 36.2969 39.3831 36.9844 38.9306C37.6719 38.4781 38.4062 38.2513 39.1875 38.25C39.4375 38.25 39.6875 38.2738 39.9375 38.3213C40.1875 38.3688 40.4375 38.4544 40.6875 38.5781L48.4687 42H51.375C51.9062 42 52.3519 42.18 52.7119 42.54C53.0719 42.9 53.2512 43.345 53.25 43.875C53.2487 44.405 53.0687 44.8506 52.71 45.2119C52.3512 45.5731 51.9062 45.7525 51.375 45.75H48.4219C48.1719 45.75 47.9219 45.7188 47.6719 45.6563C47.4219 45.5938 47.1719 45.5156 46.9219 45.4219L42.5625 43.5469L40.125 50.9063V66.375C40.125 66.9063 39.9456 67.3519 39.5869 67.7119C39.2281 68.0719 38.7825 68.2513 38.25 68.25H34.5ZM45.75 62.625C45.2187 62.625 44.7737 62.445 44.415 62.085C44.0562 61.725 43.8762 61.28 43.875 60.75C43.8737 60.22 44.0537 59.775 44.415 59.415C44.7762 59.055 45.2212 58.875 45.75 58.875H64.5C65.0312 58.875 65.4769 59.055 65.8369 59.415C66.1969 59.775 66.3762 60.22 66.375 60.75C66.3737 61.28 66.1937 61.7256 65.835 62.0869C65.4762 62.4481 65.0312 62.6275 64.5 62.625H45.75ZM63.5625 57C62.7812 57 62.1175 56.7269 61.5712 56.1806C61.025 55.6344 60.7512 54.97 60.75 54.1875C60.7487 53.405 61.0225 52.7413 61.5712 52.1963C62.12 51.6513 62.7837 51.3775 63.5625 51.375C64.3412 51.3725 65.0056 51.6463 65.5556 52.1963C66.1056 52.7463 66.3787 53.41 66.375 54.1875C66.3712 54.965 66.0981 55.6294 65.5556 56.1806C65.0131 56.7319 64.3487 57.005 63.5625 57ZM51.375 57C50.3437 57 49.4613 56.6331 48.7275 55.8994C47.9937 55.1656 47.6262 54.2825 47.625 53.25V51.375H45.75C45.2187 51.375 44.7737 51.195 44.415 50.835C44.0562 50.475 43.8762 50.03 43.875 49.5C43.8737 48.97 44.0537 48.525 44.415 48.165C44.7762 47.805 45.2212 47.625 45.75 47.625H49.5C50.0312 47.625 50.4769 47.805 50.8369 48.165C51.1969 48.525 51.3762 48.97 51.375 49.5V51.375H55.125V49.5C55.125 48.9688 55.305 48.5238 55.665 48.165C56.025 47.8063 56.47 47.6263 57 47.625C57.53 47.6238 57.9756 47.8038 58.3369 48.165C58.6981 48.5263 58.8775 48.9713 58.875 49.5V53.25C58.875 54.2813 58.5081 55.1644 57.7744 55.8994C57.0406 56.6344 56.1575 57.0013 55.125 57H51.375ZM42 36.375C40.9687 36.375 40.0862 36.0081 39.3525 35.2744C38.6187 34.5406 38.2512 33.6575 38.25 32.625C38.2487 31.5925 38.6162 30.71 39.3525 29.9775C40.0887 29.245 40.9712 28.8775 42 28.875C43.0287 28.8725 43.9119 29.24 44.6494 29.9775C45.3869 30.715 45.7537 31.5975 45.75 32.625C45.7462 33.6525 45.3794 34.5356 44.6494 35.2744C43.9194 36.0131 43.0362 36.38 42 36.375Z" fill="white"/>
</svg>
