<svg width="100" height="100" viewBox="0 0 100 100" fill="none" xmlns="http://www.w3.org/2000/svg">
<circle opacity="0.7" cx="50" cy="50" r="50" fill="#A6F8E2"/>
<path d="M64.5 53.25V49.5H34.5V53.25C34.5 55.3837 35.5931 59.34 39.6469 60.4519C40.3406 60.6431 41.1225 60.75 42 60.75H57C57.7942 60.7571 58.5858 60.6568 59.3531 60.4519C63.4069 59.34 64.5 55.3837 64.5 53.25Z" fill="white"/>
<path d="M32.625 49.5H34.5M34.5 49.5H64.5M34.5 49.5V53.25C34.5 55.3838 35.5931 59.34 39.6469 60.4519M64.5 49.5C64.9973 49.5 65.4742 49.3025 65.8258 48.9508C66.1775 48.5992 66.375 48.1223 66.375 47.625V40.125C66.375 38.25 65.25 34.5 60.75 34.5C56.25 34.5 55.125 38.25 55.125 40.125M64.5 49.5V53.25C64.5 55.3838 63.4069 59.34 59.3531 60.4519M55.125 40.125H51.375M55.125 40.125H58.875M59.3531 60.4519C58.5858 60.6568 57.7942 60.7571 57 60.75H42C41.1225 60.75 40.3406 60.6431 39.6469 60.4519M59.3531 60.4519L60.75 64.5M39.6469 60.4519L38.25 64.5" stroke="white" stroke-width="2" stroke-linecap="round" stroke-linejoin="round"/>
</svg>
