<svg width="100" height="100" viewBox="0 0 100 100" fill="none" xmlns="http://www.w3.org/2000/svg">
<circle opacity="0.7" cx="50" cy="50" r="50" fill="#F5A27F"/>
<path fill-rule="evenodd" clip-rule="evenodd" d="M29.7542 48.746V62.6982H60.3058V60.3894C60.3058 60.2464 60.4186 60.1304 60.5615 60.1297C61.5784 60.1247 65.3664 60.1084 67.1325 60.131C69.1832 60.1572 69.7802 58.0615 69.8061 57.3281C69.8267 56.7467 69.8147 42.5729 69.8088 35.6617V35.6581V35.6554V35.653V35.6522V35.6519L69.8088 35.6185C69.8072 33.8322 69.8061 32.5383 69.8061 32.1018C69.8061 29.9799 66.9768 27.439 64.7445 27.3866C62.9854 27.3453 46.9463 27.3691 38.8909 27.381C36.7235 27.3842 35.1341 27.3866 34.5562 27.3866C31.8307 27.3866 29.7542 30.7396 29.7542 32.8876V45.9647L33.9282 41.7342L32.8344 40.6505C32.3958 40.2161 32.3925 39.5083 32.827 39.0698C33.2614 38.6312 33.9692 38.6279 34.4077 39.0624L35.4983 40.1428L36.7672 38.8567L35.6404 37.7404C35.2018 37.3059 35.1985 36.5981 35.633 36.1596C36.0674 35.721 36.7752 35.7177 37.2137 36.1522L38.3374 37.2653L39.6058 35.9797L38.4985 34.8827C38.0599 34.4483 38.0566 33.7405 38.4911 33.3019C38.9255 32.8634 39.6333 32.8601 40.0718 33.2945L41.1759 34.3883L42.2136 33.3367C42.6233 32.9214 43.2916 32.915 43.7092 33.3224C44.1328 33.7355 44.1364 34.4153 43.7172 34.833L42.674 35.8724L43.7404 36.9289C44.179 37.3634 44.1823 38.0712 43.7479 38.5097C43.3134 38.9483 42.6056 38.9516 42.1671 38.5171L41.0903 37.4504L39.811 38.7252L40.8823 39.7866C41.3209 40.221 41.3242 40.9288 40.8898 41.3673C40.4553 41.8059 39.7475 41.8092 39.309 41.3747L38.2273 40.3032L36.9475 41.5784L38.0763 42.6968C38.5149 43.1312 38.5182 43.839 38.0837 44.2775C37.6493 44.7161 36.9415 44.7194 36.503 44.2849L35.3638 43.1564L29.7542 48.746ZM64.0548 33.0536C63.3273 33.0536 63.1714 33.6251 63.1714 33.911V57.7123C63.1714 57.8558 63.0551 57.9699 62.9116 57.9699H60.4685C60.3254 57.9699 60.2092 57.8585 60.2087 57.7153C60.2005 55.1191 60.1332 33.5217 60.1576 32.7158C60.1836 31.8584 61.3787 29.2083 64.0548 29.1823C66.7309 29.1564 67.926 31.9104 67.926 32.7158V44.8882V57.0605C67.926 57.5022 67.4584 57.9699 67.0427 57.9699H65.3017C65.1582 57.9699 65.0421 57.856 65.0421 57.7125V33.911C65.0421 33.7031 64.7823 33.0535 64.0548 33.0536ZM48.9874 46.7602C48.5529 47.1988 48.5563 47.9066 48.9948 48.341L50.1723 49.5075L49.1002 50.6435C48.7234 51.0426 48.7416 51.6716 49.1408 52.0483C49.5399 52.425 50.1689 52.4068 50.5456 52.0077L51.5847 50.9067L53.0385 52.347L51.9489 53.5016C51.5721 53.9007 51.5903 54.5297 51.9895 54.9064C52.3886 55.2831 53.0176 55.2649 53.3943 54.8658L54.4509 53.7463L56.4563 55.7329C56.8948 56.1674 57.6026 56.1641 58.0371 55.7255C58.4715 55.2869 58.4682 54.5792 58.0296 54.1447L55.9858 52.12L57.1269 50.9109C57.5036 50.5118 57.4855 49.8828 57.0863 49.5061C56.6871 49.1294 56.0582 49.1475 55.6814 49.5467L54.5734 50.7207L53.1196 49.2804L54.2782 48.0528C54.6549 47.6537 54.6368 47.0247 54.2376 46.648C53.8384 46.2713 53.2095 46.2894 52.8328 46.6886L51.7072 47.8812L50.5682 46.7528C50.1296 46.3184 49.4219 46.3217 48.9874 46.7602Z" fill="white"/>
<path d="M29.7541 61.9795H31.6248V70.3975C31.6248 70.9141 31.2061 71.3328 30.6895 71.3328C30.1729 71.3328 29.7542 70.9141 29.7542 70.3975L29.7541 61.9795Z" fill="white"/>
<path d="M30.6895 67.4785V65.5039H59.3211V67.4785L30.6895 67.4785Z" fill="white"/>
<path d="M58.4374 62.0742H60.3081V70.4922C60.3081 71.0088 59.8893 71.4276 59.3727 71.4276C58.8562 71.4276 58.4374 71.0088 58.4374 70.4922L58.4374 62.0742Z" fill="white"/>
<path d="M54.2807 66.4922H56.1514V70.4933C56.1514 71.0099 55.7326 71.4287 55.2161 71.4287C54.6995 71.4287 54.2807 71.0099 54.2807 70.4933L54.2807 66.4922Z" fill="white"/>
<path d="M50.1757 66.4922H52.0464V70.4933C52.0464 71.0099 51.6276 71.4287 51.111 71.4287C50.5945 71.4287 50.1757 71.0099 50.1757 70.4933L50.1757 66.4922Z" fill="white"/>
<path d="M46.0704 66.4922H47.9411V70.4933C47.9411 71.0099 47.5223 71.4287 47.0057 71.4287C46.4892 71.4287 46.0704 71.0099 46.0704 70.4933L46.0704 66.4922Z" fill="white"/>
<path d="M42.0172 66.4922H43.8879V70.4933C43.8879 71.0099 43.4691 71.4287 42.9525 71.4287C42.436 71.4287 42.0172 71.0099 42.0172 70.4933L42.0172 66.4922Z" fill="white"/>
<path d="M37.9121 66.4922H39.7828V70.4933C39.7828 71.0099 39.364 71.4287 38.8475 71.4287C38.3309 71.4287 37.9121 71.0099 37.9121 70.4933L37.9121 66.4922Z" fill="white"/>
<path d="M33.8071 66.4922H35.6778V70.4933C35.6778 71.0099 35.259 71.4287 34.7424 71.4287C34.2259 71.4287 33.8071 71.0099 33.8071 70.4933L33.8071 66.4922Z" fill="white"/>
</svg>
