<svg width="84" height="85" viewBox="0 0 84 85" fill="none" xmlns="http://www.w3.org/2000/svg">
<path d="M30.4452 6.32072C30.8267 6.70217 30.8267 31.1151 30.4452 31.1151C30.0638 31.1151 17.8573 10.5167 17.8573 10.1352C17.8573 9.75378 30.0638 5.93927 30.4452 6.32072Z" fill="#8E99A6"/>
<path d="M8.7025 18.9086C8.7025 18.5272 16.3315 11.2796 16.713 11.2796C17.0944 11.2796 28.9194 30.7336 28.9194 31.1151C28.9194 31.4965 8.7025 19.2901 8.7025 18.9086Z" fill="#8E99A6"/>
<path d="M4.12508 31.4965C4.12508 31.1151 7.55815 20.053 7.9396 20.053C8.32105 20.053 27.3936 31.1151 27.3936 31.4965C27.3936 31.878 4.12508 31.878 4.12508 31.4965Z" fill="#8E99A6"/>
<path d="M15.5686 54.7651C9.08414 51.332 3.36218 32.6409 3.74363 32.6409H65.9202C66.3015 32.6409 60.5798 53.2393 53.3323 54.7651H15.5686Z" fill="#8E99A6"/>
<path d="M80.034 24.6304C80.0338 24.2489 79.2709 22.7231 78.8896 22.7231C78.5083 22.7231 65.9202 31.1151 65.9202 31.4965C65.9202 31.878 67.4462 31.4965 67.446 31.878C67.4459 32.2594 67.0644 33.0223 67.0646 33.4038C67.0648 33.7852 80.0341 25.0118 80.034 24.6304Z" fill="#8E99A6"/>
<path d="M36.5485 55.9094C36.1672 55.528 32.3523 55.528 31.5896 55.9094C30.8269 56.2909 23.9604 63.157 23.9606 63.5385C23.9607 63.9199 26.2494 64.3014 26.6307 64.3014C27.012 64.3014 33.8785 56.6723 34.2598 56.6723C34.641 56.6723 41.5072 64.3014 41.8888 64.6828C42.2704 65.0643 44.1777 63.9199 44.1775 63.5385C44.1773 63.157 36.9298 56.2909 36.5485 55.9094Z" fill="#8E99A6"/>
<circle cx="23.4121" cy="72.1729" r="4.5" fill="#FFC107"/>
<circle cx="23.5917" cy="72.1601" r="6.48468" stroke="#FFC107" stroke-width="0.762903"/>
<circle cx="45.5254" cy="72.1729" r="4.5" fill="#FFC107"/>
<circle cx="45.5917" cy="72.1601" r="6.48468" stroke="#FFC107" stroke-width="0.762903"/>
</svg>
