<svg width="100" height="100" viewBox="0 0 100 100" fill="none" xmlns="http://www.w3.org/2000/svg">
<circle opacity="0.7" cx="50" cy="50" r="50" fill="#7FC8F5"/>
<path d="M42.2007 41.2197C42.1574 38.8786 39.5996 30.9451 40.0331 29.7746C40.4666 28.604 42.1574 27 48.1834 27C54.2094 27 55.3366 27.8671 56.1169 28.8208C56.8972 29.7746 54.9464 31.2485 55.4666 32.1156C55.9868 32.9827 56.8105 32.1156 58.1545 32.1156C59.4984 32.1156 60.4522 32.8526 61.0591 33.9364C61.666 35.0202 61.8394 37.8815 61.0591 39.4855C60.2788 41.0896 58.8048 43.5607 56.8972 43.3439C56.1069 43.2541 55.5101 43.0229 55.082 42.7829C54.8416 42.648 54.364 42.9147 54.4136 43.1859C54.9057 45.8764 56.1169 52.7616 56.1169 55.3526C56.1169 58.6041 56.8972 68.3583 56.1169 69.5723C55.3366 70.7862 52.9522 72.2167 47.8799 71.9566C42.8077 71.6966 40.51 70.3093 40.0331 69.0087C39.5562 67.708 39.5129 59.5578 40.0331 56.3497C40.5533 53.1416 42.2441 43.5607 42.2007 41.2197Z" fill="white"/>
</svg>
