<svg width="100" height="100" viewBox="0 0 100 100" fill="none" xmlns="http://www.w3.org/2000/svg">
<circle opacity="0.7" cx="50" cy="50" r="50" fill="#D87FF5"/>
<path d="M52.9512 61.7717C55.0176 63.8381 60.043 62.1629 64.1758 58.0302C68.3086 53.8974 69.9837 48.8721 67.9173 46.8057" stroke="white" stroke-width="2" stroke-linecap="round" stroke-linejoin="round"/>
<path d="M59.0305 45.4028L59.9659 46.3382" stroke="white" stroke-width="2" stroke-linecap="round" stroke-linejoin="round"/>
<path d="M55.757 48.6763L56.6924 49.6116" stroke="white" stroke-width="2" stroke-linecap="round" stroke-linejoin="round"/>
<path d="M52.9506 52.4189L53.8859 53.3543" stroke="white" stroke-width="2" stroke-linecap="round" stroke-linejoin="round"/>
<path d="M52.0153 57.0952L52.9506 58.0306" stroke="white" stroke-width="2" stroke-linecap="round" stroke-linejoin="round"/>
<path d="M64.1752 44L65.1105 44.9354" stroke="white" stroke-width="2" stroke-linecap="round" stroke-linejoin="round"/>
<path d="M63.2399 49.6128L65.1107 51.4835" stroke="white" stroke-width="2" stroke-linecap="round" stroke-linejoin="round"/>
<path d="M59.9664 52.8862L61.8372 54.757" stroke="white" stroke-width="2" stroke-linecap="round" stroke-linejoin="round"/>
<path d="M56.2247 55.6924L58.0954 57.5632" stroke="white" stroke-width="2" stroke-linecap="round" stroke-linejoin="round"/>
<path d="M52.9507 64.5779C53.7256 63.803 53.7256 62.5466 52.9507 61.7717C52.1758 60.9968 50.9195 60.9968 50.1446 61.7717L46.4031 65.5132C45.6282 66.2881 45.6282 67.5445 46.4031 68.3194C47.178 69.0943 48.4343 69.0943 49.2092 68.3194L52.9507 64.5779Z" stroke="white" stroke-width="2" stroke-linecap="round" stroke-linejoin="round"/>
<path fill-rule="evenodd" clip-rule="evenodd" d="M39.2911 43.9911C39.6222 44.9297 39.593 45.9577 39.2092 46.876C38.8254 47.7943 38.1143 48.5373 37.2138 48.9611C36.3132 49.3849 35.2874 49.4592 34.3352 49.1697C33.383 48.8801 32.5723 48.2474 32.0601 47.394C31.5479 46.5407 31.3708 45.5276 31.5631 44.5511C31.7554 43.5746 32.3034 42.7043 33.1009 42.1089C33.8984 41.5135 34.8886 41.2354 35.8795 41.3285C36.8704 41.4217 37.7914 41.8794 38.464 42.613L39.6885 41.9251C39.788 41.8692 39.8982 41.8351 40.0118 41.8251C40.1255 41.8151 40.2399 41.8294 40.3476 41.8671C40.4553 41.9048 40.5537 41.965 40.6362 42.0437C40.7188 42.1224 40.7837 42.2178 40.8265 42.3236L40.8297 42.3329C40.9081 42.5262 40.9082 42.7425 40.83 42.9359C40.7518 43.1293 40.6014 43.2846 40.4106 43.3691C40.3666 43.3878 40.3238 43.4094 40.2826 43.4338L39.2911 43.9911ZM33.4039 46.5086C33.0996 45.9685 33.0151 45.3319 33.1682 44.7311C33.3212 44.1304 33.6999 43.6117 34.2256 43.2831C34.7513 42.9544 35.3834 42.8411 35.9905 42.9666C36.5976 43.0922 37.1329 43.4469 37.4852 43.957C37.5202 44.0438 37.5693 44.1241 37.6303 44.195C37.9371 44.7555 38.0087 45.4148 37.8294 46.0281C37.65 46.6413 37.2344 47.1582 36.6739 47.465C36.1135 47.7718 35.4541 47.8434 34.8408 47.664C34.2276 47.4847 33.7107 47.069 33.4039 46.5086ZM41.3289 38.7015C41.1088 39.6027 41.1233 40.5454 41.3711 41.4394C41.619 42.3334 42.0918 43.149 42.7444 43.8083C43.0493 44.118 43.3908 44.3895 43.7613 44.6167C43.9835 44.7543 44.1665 44.9469 44.2926 45.1758C44.4187 45.4048 44.4837 45.6624 44.4812 45.9237L44.4671 47.1104C43.4874 47.2858 42.6077 47.8187 41.9986 48.6059C41.3895 49.393 41.0944 50.3782 41.1704 51.3706C41.2465 52.3629 41.6882 53.2917 42.4101 53.9769C43.132 54.662 44.0826 55.0547 45.0776 55.0788C46.0726 55.103 47.0411 54.7568 47.7953 54.1074C48.5496 53.4581 49.0358 52.5518 49.1598 51.5643C49.2839 50.5768 49.0368 49.5784 48.4666 48.7627C47.8963 47.9469 47.0435 47.372 46.0735 47.1494L46.2722 30.1769C46.2741 30.0181 46.2288 29.8623 46.1421 29.7292C46.0554 29.5961 45.9312 29.4917 45.7851 29.4292C45.6391 29.3667 45.4778 29.349 45.3217 29.3782C45.1656 29.4073 45.0216 29.4822 44.908 29.5932L44.2714 30.2153C43.5177 30.9513 42.986 31.8842 42.7369 32.9078L41.3289 38.7015ZM42.7659 51.0348C42.7601 51.3525 42.8172 51.6682 42.9339 51.9637C43.0505 52.2592 43.2245 52.5287 43.4458 52.7567C43.667 52.9847 43.9312 53.1667 44.2231 53.2922C44.515 53.4176 44.8288 53.4842 45.1465 53.4879C45.4642 53.4916 45.7795 53.4324 46.0742 53.3138C46.3689 53.1951 46.6373 53.0194 46.8638 52.7966C47.0903 52.5738 47.2706 52.3084 47.3941 52.0157C47.5177 51.723 47.5821 51.4088 47.5837 51.0911C47.5869 50.4549 47.3383 49.8433 46.8923 49.3897C46.4462 48.9362 45.8389 48.6774 45.2027 48.67C44.5666 48.6626 43.9534 48.9071 43.4968 49.3501C43.0403 49.7931 42.7776 50.3988 42.7659 51.0348ZM44.7166 42.3886C44.8253 42.2054 44.8567 41.9866 44.804 41.7802C44.7512 41.5739 44.6187 41.3969 44.4355 41.2883C44.2523 41.1797 44.0335 41.1482 43.8272 41.201C43.6208 41.2537 43.4438 41.3862 43.3352 41.5694C43.2266 41.7526 43.1952 41.9714 43.2479 42.1778C43.3006 42.3841 43.4331 42.5611 43.6163 42.6697C43.7995 42.7783 44.0183 42.8098 44.2247 42.757C44.431 42.7043 44.608 42.5718 44.7166 42.3886Z" fill="white"/>
<path d="M46.98 38.2889C46.9816 38.1479 47.0203 38.0099 47.0922 37.8886C47.1641 37.7674 47.2667 37.6672 47.3896 37.5982L53.2424 34.3096C53.3809 34.2319 53.5394 34.1969 53.6978 34.2093C53.8562 34.2216 54.0073 34.2807 54.1322 34.379C54.257 34.4772 54.3498 34.6103 54.399 34.7614C54.4482 34.9125 54.4514 35.0747 54.4083 35.2276L54.1683 36.0837C53.8837 37.0979 53.3197 38.0118 52.5408 38.721L48.2802 42.6015C48.1645 42.7069 48.0206 42.7763 47.8661 42.8011C47.7116 42.8258 47.5532 42.8049 47.4104 42.7409C47.2676 42.6768 47.1466 42.5724 47.0623 42.4405C46.9781 42.3087 46.9342 42.155 46.936 41.9985L46.98 38.2889Z" fill="white"/>
</svg>
