<svg width="100" height="100" viewBox="0 0 100 100" fill="none" xmlns="http://www.w3.org/2000/svg">
<circle opacity="0.7" cx="50" cy="50" r="50" fill="#A6F8E2"/>
<g clip-path="url(#clip0_1049_1508)">
<path d="M49.5 43.8749H27.0088C27.2373 37.3622 30.6299 31.6493 35.7012 28.2391C36.8701 27.4569 38.4082 27.8612 39.208 29.0126L49.5 43.8749ZM60.75 41.0624C60.75 37.9598 63.2725 35.4374 66.375 35.4374H69.1875C70.7432 35.4374 72 36.6942 72 38.2499C72 39.8055 70.7432 41.0624 69.1875 41.0624H66.375V46.6874C66.375 48.9022 65.8652 51.0995 64.8809 53.1473C63.8965 55.1952 62.4375 57.0585 60.6094 58.6229C58.7812 60.1874 56.6104 61.4354 54.2197 62.2792C51.8291 63.1229 49.2715 63.5624 46.6875 63.5624C44.1035 63.5624 41.5459 63.1229 39.1553 62.2792C36.7646 61.4354 34.5938 60.1874 32.7656 58.6229C30.9375 57.0585 29.4873 55.1952 28.4941 53.1473C27.501 51.0995 27 48.9022 27 46.6874H60.75V41.0624ZM34.0312 63.5624C35.1501 63.5624 36.2232 64.0068 37.0144 64.798C37.8055 65.5892 38.25 66.6622 38.25 67.7811C38.25 68.9 37.8055 69.973 37.0144 70.7642C36.2232 71.5554 35.1501 71.9999 34.0312 71.9999C32.9124 71.9999 31.8393 71.5554 31.0481 70.7642C30.257 69.973 29.8125 68.9 29.8125 67.7811C29.8125 66.6622 30.257 65.5892 31.0481 64.798C31.8393 64.0068 32.9124 63.5624 34.0312 63.5624ZM55.125 67.7811C55.125 66.6622 55.5695 65.5892 56.3606 64.798C57.1518 64.0068 58.2249 63.5624 59.3438 63.5624C60.4626 63.5624 61.5357 64.0068 62.3269 64.798C63.118 65.5892 63.5625 66.6622 63.5625 67.7811C63.5625 68.9 63.118 69.973 62.3269 70.7642C61.5357 71.5554 60.4626 71.9999 59.3438 71.9999C58.2249 71.9999 57.1518 71.5554 56.3606 70.7642C55.5695 69.973 55.125 68.9 55.125 67.7811Z" fill="white"/>
</g>
<defs>
<clipPath id="clip0_1049_1508">
<rect width="45" height="45" fill="white" transform="translate(27 27)"/>
</clipPath>
</defs>
</svg>
