<svg width="100" height="100" viewBox="0 0 100 100" fill="none" xmlns="http://www.w3.org/2000/svg">
<circle opacity="0.7" cx="50" cy="50" r="50" fill="#F5A27F"/>
<path d="M50.1151 71.0376C48.2121 71.1048 45.1002 70.948 44.1823 69.9406C43.2643 68.9331 41.2718 61.7913 40.8464 59.754C40.4211 57.7167 41.0032 53.7988 41.6748 51.4033C42.3464 49.0077 43.8464 46.2764 44.0031 45.851C44.1599 45.4256 43.824 44.0152 43.824 43.657C43.8241 43.2988 43.8016 42.6495 44.1599 42.3361C44.5181 42.0227 45.5479 41.8883 45.7046 41.5525C45.8614 41.2167 45.5255 40.4331 45.7046 39.851C45.8838 39.2689 46.6897 35.4406 46.936 35.3286C47.0148 35.2928 47.0868 35.2799 47.1482 35.2789C47.249 35.2774 47.371 35.2094 47.3795 35.1089C47.4245 34.5771 47.5455 33.2355 47.6524 32.8436C47.7867 32.351 48.6375 30.9182 48.7046 30.4928C48.7624 30.1269 49.019 28.535 49.0896 28.0972C49.1001 28.0321 49.1561 27.9854 49.222 27.9854H50.5432C50.6163 27.9854 50.676 28.043 50.6779 28.1161C50.6897 28.5875 50.7363 30.1881 50.8315 30.4928C50.9435 30.851 51.7046 32.5077 51.8166 32.8436C51.9125 33.1313 52.0741 34.7501 52.1185 35.208C52.1251 35.277 52.183 35.3286 52.2523 35.3286H52.5057C52.5624 35.3286 52.6127 35.3635 52.6317 35.4169C52.8341 35.9863 53.9434 39.1389 53.9434 39.851C53.9434 40.6346 53.7643 41.3734 53.9434 41.5525C54.1226 41.7316 55.1748 42.0227 55.3539 42.3361C55.533 42.6495 55.3539 43.254 55.3539 43.657C55.3539 44.06 55.1748 45.1122 55.3539 45.7167C55.533 46.3212 57.2121 50.351 57.7046 51.4033C58.1972 52.4555 58.6002 59.2391 58.2643 60.6719C57.9285 62.1048 56.0927 69.0898 54.7942 69.9406C53.4957 70.7913 52.0181 70.9704 50.1151 71.0376Z" fill="white"/>
</svg>
