<svg width="100" height="100" viewBox="0 0 100 100" fill="none" xmlns="http://www.w3.org/2000/svg">
<circle opacity="0.7" cx="50" cy="50" r="50" fill="#D87FF5"/>
<path fill-rule="evenodd" clip-rule="evenodd" d="M28.0429 34.8194C28.24 34.2281 29.9809 30.385 42.9882 30.2865C55.9955 30.1879 58.6561 34.1625 58.6561 35.1479V38.7609C58.6561 40.1405 57.375 40.7646 57.375 40.7646C57.375 40.7646 58.4918 42.0128 58.4918 43.2938V64.8413C58.4918 65.9519 57.9028 66.4735 57.3477 66.9652L57.3476 66.9652C57.1968 67.0987 57.0485 67.2301 56.9152 67.3704C56.2911 68.0274 48.8677 70.2609 42.9882 70.1624C37.1086 70.0639 31.6232 68.4215 29.7509 67.4361C27.8787 66.4508 28.0429 64.8413 28.0429 64.8413V43.3595C28.0429 41.8813 29.1269 40.896 29.1269 40.896C29.1269 40.896 27.9444 39.7791 27.9444 39.0237C27.9444 38.8743 27.9405 38.6428 27.9359 38.3628C27.917 37.2268 27.8848 35.2937 28.0429 34.8194ZM29.0037 37.5439C30.646 39.1534 36.4928 40.6315 43.1935 40.6972C49.8942 40.7628 56.0695 38.6935 57.5803 37.5439V39.1534C57.5803 39.1534 55.1825 42.9636 43.1935 42.9964C31.2044 43.0293 29.0037 39.1534 29.0037 39.1534V37.5439ZM53.0467 66.303C52.9481 66.0494 52.6625 65.9238 52.4089 66.0224C51.8528 66.2387 50.8972 66.4816 50.1897 66.4816C49.9176 66.4816 49.697 66.7022 49.697 66.9743C49.697 67.2464 49.9176 67.467 50.1897 67.467C51.0588 67.467 52.1397 67.1844 52.7661 66.9408C53.0197 66.8422 53.1453 66.5566 53.0467 66.303ZM34.3245 67.0775C34.0679 66.9868 33.9335 66.7053 34.0243 66.4487C34.115 66.1922 34.3965 66.0578 34.653 66.1485C35.9418 66.6043 37.7906 66.92 39.727 67.0786C41.6583 67.2368 43.6388 67.2359 45.1786 67.0755C45.4492 67.0473 45.6915 67.2439 45.7197 67.5145C45.7479 67.7852 45.5513 68.0274 45.2807 68.0556C43.6672 68.2237 41.624 68.2227 39.6465 68.0607C37.6742 67.8991 35.7291 67.5743 34.3245 67.0775ZM35.1131 34.2593C34.8199 34.2593 33.99 34.3763 33.292 34.7834C33.057 34.9205 32.7553 34.8411 32.6182 34.6061C32.4811 34.371 32.5605 34.0694 32.7955 33.9322C33.6742 33.4197 34.6837 33.2739 35.1131 33.2739C35.3852 33.2739 35.6058 33.4945 35.6058 33.7666C35.6058 34.0387 35.3852 34.2593 35.1131 34.2593ZM39.9631 33.5664C42.8789 33.2424 47.3507 33.3427 50.3342 34.0806C50.5984 34.1459 50.8655 33.9847 50.9308 33.7206C50.9961 33.4564 50.8349 33.1893 50.5708 33.124C47.4448 32.3509 42.8509 32.2541 39.8543 32.5871C39.5838 32.6171 39.389 32.8607 39.419 33.1312C39.4491 33.4016 39.6927 33.5965 39.9631 33.5664Z" fill="white"/>
<path fill-rule="evenodd" clip-rule="evenodd" d="M65.7593 30.3833C69.5038 30.3833 71.2119 33.9307 71.1133 36.6899C71.0148 39.449 70.3578 40.9928 68.9783 44.0475C67.5988 47.1023 68.9783 52.949 68.9783 52.949C68.9783 52.949 69.3672 57.8024 69.241 62.2118C69.2225 62.8594 69.2141 63.4395 69.2063 63.9747C69.1855 65.4031 69.1694 66.5114 68.9783 67.73C68.9783 67.73 68.5184 70.0621 66.3834 70.0621C64.2484 70.0621 63.8213 69.3395 63.3615 68.2884C63.1394 67.7807 63.0001 63.3286 62.9673 61.5548C62.9488 60.5571 63.0759 58.4046 63.1906 56.4614C63.2798 54.9502 63.3615 53.5655 63.3615 52.949C63.3615 52.0544 63.4251 50.9724 63.4898 49.8736C63.6221 47.6236 63.7586 45.3029 63.3614 44.376C63.2676 44.1572 63.1417 43.888 62.9967 43.5783C62.2276 41.9349 60.924 39.1496 61.0622 36.6899C61.2265 33.7665 62.0148 30.3833 65.7593 30.3833ZM65.8375 52.0059C65.8964 52.1337 65.9462 52.3936 65.9726 52.7183C65.9976 53.025 65.9974 53.3241 65.9897 53.484C65.9768 53.7558 66.1866 53.9867 66.4584 53.9996C66.7302 54.0126 66.961 53.8028 66.974 53.531C66.9836 53.33 66.9833 52.9886 66.9548 52.6382C66.9277 52.3059 66.8703 51.8922 66.7322 51.593C66.6182 51.346 66.3255 51.2381 66.0784 51.3521C65.8313 51.4661 65.7234 51.7588 65.8375 52.0059ZM66.0473 64.8519C66.2701 62.0043 66.4289 59.9758 66.2529 57.1844C66.2357 56.9128 66.442 56.6787 66.7136 56.6616C66.9851 56.6445 67.2192 56.8508 67.2363 57.1223C67.4168 59.9846 67.2531 62.0759 67.0309 64.913L66.9964 65.3539C66.9753 65.6252 66.7382 65.8279 66.4669 65.8068C66.1956 65.7856 65.9929 65.5486 66.014 65.2773L66.0473 64.8519ZM66.1206 42.504C67.7714 42.504 69.1097 40.2245 69.1097 37.4127C69.1097 34.6009 67.7714 32.3215 66.1206 32.3215C64.4698 32.3215 63.1315 34.6009 63.1315 37.4127C63.1315 40.2245 64.4698 42.504 66.1206 42.504Z" fill="white"/>
</svg>
