<svg width="100" height="100" viewBox="0 0 100 100" fill="none" xmlns="http://www.w3.org/2000/svg">
<circle opacity="0.7" cx="50" cy="50" r="50" fill="#F5E57F"/>
<path fill-rule="evenodd" clip-rule="evenodd" d="M48.1743 33.174C48.5259 32.8225 49.0027 32.625 49.4999 32.625C49.9971 32.625 50.4739 32.8225 50.8255 33.174L62.0755 44.424L65.8255 48.174C66.1671 48.5276 66.3561 49.0012 66.3518 49.4929C66.3475 49.9845 66.1503 50.4547 65.8027 50.8024C65.4551 51.15 64.9848 51.3472 64.4932 51.3515C64.0015 51.3558 63.5279 51.1668 63.1743 50.8252L62.6249 50.2758V62.6246C62.6249 63.6192 62.2298 64.573 61.5266 65.2762C60.8233 65.9795 59.8695 66.3746 58.8749 66.3746H53.2499C52.7526 66.3746 52.2757 66.1771 51.9241 65.8254C51.5725 65.4738 51.3749 64.9969 51.3749 64.4996V58.8746H47.6249V64.4996C47.6249 64.9969 47.4274 65.4738 47.0757 65.8254C46.7241 66.1771 46.2472 66.3746 45.7499 66.3746H40.1249C39.1303 66.3746 38.1765 65.9795 37.4733 65.2762C36.77 64.573 36.3749 63.6192 36.3749 62.6246V50.2758L35.8255 50.8252C35.4719 51.1668 34.9983 51.3558 34.5067 51.3515C34.015 51.3472 33.5448 51.15 33.1971 50.8024C32.8495 50.4547 32.6523 49.9845 32.648 49.4929C32.6437 49.0012 32.8327 48.5276 33.1743 48.174L36.9243 44.424L48.1743 33.174Z" fill="white"/>
</svg>
