<svg width="100" height="100" viewBox="0 0 100 100" fill="none" xmlns="http://www.w3.org/2000/svg">
<circle opacity="0.7" cx="50" cy="50" r="50" fill="#F57FAC"/>
<path fill-rule="evenodd" clip-rule="evenodd" d="M52.1418 33.3948L70.9679 36.726C71.3007 36.7849 71.4933 37.1367 71.3636 37.4488L58.9502 67.3122C58.8313 67.5982 58.4929 67.721 58.2182 67.5777L27.812 51.7159C27.4602 51.5323 27.4289 51.0409 27.7545 50.8142L40.6129 41.8583L51.7322 33.4928C51.8492 33.4048 51.9976 33.3693 52.1418 33.3948ZM52.6151 36.0414C52.6214 36.0365 52.6296 36.0346 52.6375 36.0361L67.1849 38.8517C67.1919 38.8531 67.1951 38.8552 67.197 38.8567C67.1997 38.8589 67.2028 38.8625 67.2051 38.8676C67.2075 38.8727 67.2082 38.8774 67.2081 38.8808C67.208 38.8833 67.2076 38.887 67.2041 38.8932L55.829 59.059C55.822 59.0714 55.8069 59.0767 55.7938 59.0713L34.1546 50.1962C34.1459 50.1926 34.1436 50.1895 34.1426 50.1882C34.1407 50.1856 34.1383 50.1808 34.1373 50.1738C34.1364 50.1669 34.1375 50.1615 34.1387 50.1586C34.1393 50.157 34.1407 50.1534 34.1482 50.1477L52.6151 36.0414ZM52.8275 35.0543C52.5394 34.9986 52.2412 35.0686 52.008 35.2467L33.5411 49.3531C32.9101 49.8351 33.0404 50.8201 33.7751 51.1214L55.4143 59.9965C55.8941 60.1932 56.4452 60.002 56.7 59.5503L68.0751 39.3845C68.42 38.773 68.0642 38.0034 67.3749 37.87L52.8275 35.0543Z" fill="white"/>
</svg>
