<svg width="86" height="85" viewBox="0 0 86 85" fill="none" xmlns="http://www.w3.org/2000/svg">
<path fill-rule="evenodd" clip-rule="evenodd" d="M45.5041 8.12096C44.8399 7.45698 43.9392 7.08398 43.0001 7.08398C42.0609 7.08398 41.1602 7.45698 40.496 8.12096L15.7038 32.9132L8.62032 39.9967C8.28204 40.3234 8.01223 40.7142 7.82661 41.1463C7.64099 41.5784 7.54328 42.0432 7.5392 42.5135C7.53511 42.9837 7.62472 43.4501 7.8028 43.8854C7.98089 44.3206 8.24387 44.7161 8.57642 45.0486C8.90896 45.3812 9.3044 45.6441 9.73967 45.8222C10.1749 46.0003 10.6413 46.0899 11.1116 46.0858C11.5819 46.0818 12.0466 45.9841 12.4787 45.7984C12.9108 45.6128 13.3016 45.343 13.6283 45.0047L14.6661 43.967V67.2929C14.6661 70.1109 15.7855 72.8135 17.7781 74.8061C19.7708 76.7987 22.4733 77.9182 25.2913 77.9182H60.7088C63.5268 77.9182 66.2294 76.7987 68.222 74.8061C70.2146 72.8135 71.3341 70.1109 71.3341 67.2929V43.967L72.3718 45.0047C73.0398 45.6499 73.9344 46.0069 74.8631 45.9988C75.7917 45.9907 76.68 45.6182 77.3367 44.9616C77.9933 44.3049 78.3658 43.4166 78.3739 42.488C78.382 41.5593 78.025 40.6647 77.3798 39.9967L45.5041 8.12096ZM38.8878 52.3671H35.5054V52.081C35.5054 51.3281 35.2063 50.606 34.6739 50.0736C34.1415 49.5412 33.4194 49.2421 32.6664 49.2421C32.2492 49.2421 31.9109 49.5804 31.9109 49.9977C31.9109 50.415 32.2492 50.7533 32.6664 50.7533C33.0186 50.7533 33.3563 50.8932 33.6053 51.1422C33.8543 51.3912 33.9942 51.7289 33.9942 52.081V53.1227V61.456V63.4996C33.6864 63.3153 33.3881 63.1219 33.0999 62.92C32.7582 62.6806 32.287 62.7635 32.0476 63.1053C31.8081 63.4471 31.8911 63.9182 32.2329 64.1577C35.1432 66.1965 38.9433 67.4194 43.0831 67.4194C47.2229 67.4194 51.0229 66.1965 53.9333 64.1577C54.275 63.9182 54.358 63.4471 54.1186 63.1053C53.8791 62.7635 53.408 62.6806 53.0662 62.92C52.7781 63.1219 52.4798 63.3152 52.172 63.4996V61.456V53.1227V52.081C52.172 51.7289 52.3119 51.3912 52.5609 51.1422C52.8099 50.8932 53.1476 50.7533 53.4998 50.7533C53.9171 50.7533 54.2554 50.415 54.2554 49.9977C54.2554 49.5804 53.9171 49.2421 53.4998 49.2421C52.7469 49.2421 52.0248 49.5412 51.4924 50.0736C50.96 50.606 50.6609 51.3281 50.6609 52.081V52.3671H47.2783C47.2688 52.3668 47.2593 52.3666 47.2497 52.3666C47.2402 52.3666 47.2306 52.3668 47.2212 52.3671H43.1116C43.1022 52.3668 43.0926 52.3666 43.0831 52.3666C43.0735 52.3666 43.064 52.3668 43.0545 52.3671H38.945C38.9355 52.3668 38.926 52.3666 38.9164 52.3666C38.9068 52.3666 38.8973 52.3668 38.8878 52.3671ZM42.3275 53.8783H39.672V60.7005H42.3275V53.8783ZM43.8386 53.8783V60.7005H46.4942V53.8783H43.8386ZM48.0053 53.8783V60.7005H50.6609V53.8783H48.0053ZM38.1608 60.7005V53.8783H35.5054V60.7005H38.1608ZM50.6609 64.2961V62.2116H35.5054V64.2961C37.7235 65.318 40.3114 65.9083 43.0831 65.9083C45.8548 65.9083 48.4427 65.318 50.6609 64.2961Z" fill="#8E99A6"/>
<path d="M9 41.5L42.2878 7.72272C42.6794 7.32529 43.3206 7.32529 43.7122 7.72272L77 41.5" stroke="#FFC107" stroke-width="3" stroke-linecap="round"/>
</svg>
