<svg width="110" height="110" viewBox="0 0 110 110" fill="none" xmlns="http://www.w3.org/2000/svg">
<circle opacity="0.7" cx="55" cy="55" r="52.5" fill="#A6F8E2" stroke="#7F9CF5" stroke-width="5"/>
<g clip-path="url(#clip0_211_1418)">
<path d="M54.5 48.8749H32.0088C32.2373 42.3622 35.6299 36.6493 40.7012 33.2391C41.8701 32.4569 43.4082 32.8612 44.208 34.0126L54.5 48.8749ZM65.75 46.0624C65.75 42.9598 68.2725 40.4374 71.375 40.4374H74.1875C75.7432 40.4374 77 41.6942 77 43.2499C77 44.8055 75.7432 46.0624 74.1875 46.0624H71.375V51.6874C71.375 53.9022 70.8652 56.0995 69.8809 58.1473C68.8965 60.1952 67.4375 62.0585 65.6094 63.6229C63.7812 65.1874 61.6104 66.4354 59.2197 67.2792C56.8291 68.1229 54.2715 68.5624 51.6875 68.5624C49.1035 68.5624 46.5459 68.1229 44.1553 67.2792C41.7646 66.4354 39.5938 65.1874 37.7656 63.6229C35.9375 62.0585 34.4873 60.1952 33.4941 58.1473C32.501 56.0995 32 53.9022 32 51.6874H65.75V46.0624ZM39.0312 68.5624C40.1501 68.5624 41.2232 69.0068 42.0144 69.798C42.8055 70.5892 43.25 71.6622 43.25 72.7811C43.25 73.9 42.8055 74.973 42.0144 75.7642C41.2232 76.5554 40.1501 76.9999 39.0312 76.9999C37.9124 76.9999 36.8393 76.5554 36.0481 75.7642C35.257 74.973 34.8125 73.9 34.8125 72.7811C34.8125 71.6622 35.257 70.5892 36.0481 69.798C36.8393 69.0068 37.9124 68.5624 39.0312 68.5624ZM60.125 72.7811C60.125 71.6622 60.5695 70.5892 61.3606 69.798C62.1518 69.0068 63.2249 68.5624 64.3438 68.5624C65.4626 68.5624 66.5357 69.0068 67.3269 69.798C68.118 70.5892 68.5625 71.6622 68.5625 72.7811C68.5625 73.9 68.118 74.973 67.3269 75.7642C66.5357 76.5554 65.4626 76.9999 64.3438 76.9999C63.2249 76.9999 62.1518 76.5554 61.3606 75.7642C60.5695 74.973 60.125 73.9 60.125 72.7811Z" fill="white"/>
</g>
<defs>
<clipPath id="clip0_211_1418">
<rect width="45" height="45" fill="white" transform="translate(32 32)"/>
</clipPath>
</defs>
</svg>
