<svg width="86" height="85" viewBox="0 0 86 85" fill="none" xmlns="http://www.w3.org/2000/svg">
<path d="M31.4452 6.32072C31.8267 6.70217 31.8267 31.1151 31.4452 31.1151C31.0638 31.1151 18.8573 10.5167 18.8573 10.1352C18.8573 9.75378 31.0638 5.93927 31.4452 6.32072Z" fill="#8E99A6"/>
<path d="M9.7025 18.9086C9.7025 18.5272 17.3315 11.2796 17.713 11.2796C18.0944 11.2796 29.9194 30.7336 29.9194 31.1151C29.9194 31.4965 9.7025 19.2901 9.7025 18.9086Z" fill="#8E99A6"/>
<path d="M5.12508 31.4965C5.12508 31.1151 8.55815 20.053 8.9396 20.053C9.32105 20.053 28.3936 31.1151 28.3936 31.4965C28.3936 31.878 5.12508 31.878 5.12508 31.4965Z" fill="#8E99A6"/>
<path d="M16.5686 54.7651C10.0841 51.332 4.36218 32.6409 4.74363 32.6409H66.9202C67.3015 32.6409 61.5798 53.2393 54.3323 54.7651H16.5686Z" fill="#8E99A6"/>
<path d="M81.034 24.6304C81.0338 24.2489 80.2709 22.7231 79.8896 22.7231C79.5083 22.7231 66.9202 31.1151 66.9202 31.4965C66.9202 31.878 68.4462 31.4965 68.446 31.878C68.4459 32.2594 68.0644 33.0223 68.0646 33.4038C68.0648 33.7852 81.0341 25.0118 81.034 24.6304Z" fill="#8E99A6"/>
<path d="M37.5485 55.9094C37.1672 55.528 33.3523 55.528 32.5896 55.9094C31.8269 56.2909 24.9604 63.157 24.9606 63.5385C24.9607 63.9199 27.2494 64.3014 27.6307 64.3014C28.012 64.3014 34.8785 56.6723 35.2598 56.6723C35.641 56.6723 42.5072 64.3014 42.8888 64.6828C43.2704 65.0643 45.1777 63.9199 45.1775 63.5385C45.1773 63.157 37.9298 56.2909 37.5485 55.9094Z" fill="#8E99A6"/>
<circle cx="24.4121" cy="72.1729" r="4.5" fill="#FFC107"/>
<circle cx="24.5917" cy="72.1601" r="6.48468" stroke="#FFC107" stroke-width="0.762903"/>
<circle cx="46.5254" cy="72.1729" r="4.5" fill="#FFC107"/>
<circle cx="46.5917" cy="72.1601" r="6.48468" stroke="#FFC107" stroke-width="0.762903"/>
</svg>
