<svg width="100" height="100" viewBox="0 0 100 100" fill="none" xmlns="http://www.w3.org/2000/svg">
<circle opacity="0.7" cx="50" cy="50" r="50" fill="#A6F8E2"/>
<path d="M36.9309 30.1877C36.9309 28.9412 37.9414 27.9307 39.188 27.9307C39.3126 27.9307 39.4137 28.0317 39.4137 28.1564V48.4981C39.4137 48.6227 39.3126 48.7238 39.188 48.7238C37.9414 48.7238 36.9309 47.7133 36.9309 46.4667V30.1877Z" fill="white"/>
<path d="M62.2947 48.4136C63.5412 48.4136 64.5517 49.4241 64.5517 50.6706C64.5517 50.7953 64.4507 50.8963 64.326 50.8963H40.5706C40.4459 50.8963 40.3448 50.7953 40.3448 50.6706C40.3448 49.4241 41.3554 48.4136 42.6019 48.4136H62.2947Z" fill="white"/>
<path d="M63.7718 52.7629L40.8063 53.0651C40.6365 53.0673 40.5012 53.2047 40.509 53.3743C40.569 54.6811 41.0316 59.7836 44.5993 60.7677C44.7404 60.8066 44.8449 60.9323 44.8449 61.0786V64.9657C44.8449 65.091 44.7679 65.2015 44.6604 65.2659C43.2501 66.1114 43.0254 69.4172 42.9896 70.4493C42.9836 70.6206 43.1218 70.7588 43.2931 70.7588H61.6495C61.8019 70.7588 61.9328 70.6467 61.95 70.4954C62.3751 66.7555 58.9132 63.9012 57.5161 62.9117C57.2984 62.7576 57.3383 62.39 57.5821 62.2819C59.2985 61.5207 63.9197 58.9326 64.0819 53.0768C64.0867 52.9039 63.9448 52.7607 63.7718 52.7629Z" fill="white"/>
<path d="M42.207 36.6206V43.9152C42.207 44.7722 42.9017 45.4654 43.7587 45.4654H60.8642C60.9432 45.4654 61.0212 45.4716 61.0999 45.4785C61.5302 45.5164 63.0001 45.5486 63.0001 44.224C63.0001 42.6723 60.9828 42.6723 60.9828 42.6723H47.7932C46.707 42.6723 46.2415 37.7068 46.0863 36.6206C45.9311 35.5344 44.8449 35.0688 43.7587 35.0688C42.6725 35.0688 42.207 35.9999 42.207 36.6206Z" fill="white"/>
</svg>
