<svg width="100" height="100" viewBox="0 0 100 100" fill="none" xmlns="http://www.w3.org/2000/svg">
<circle opacity="0.7" cx="50" cy="50" r="50" fill="#F57FAC"/>
<circle cx="62.3294" cy="41.6587" r="2.50152" fill="white"/>
<circle cx="36.1597" cy="41.6587" r="2.50152" fill="white"/>
<path fill-rule="evenodd" clip-rule="evenodd" d="M30.0261 33H69.1495C70.2042 33 71.062 33.8409 71.0717 34.8955C71.1147 39.6075 71.2069 51.7041 71.0532 54.9364C70.861 58.9773 62.5224 68.1529 56.0441 69.1758C49.5658 70.1988 47.5774 69.9455 42.5744 69.1758C37.5713 68.4061 28.4632 61.8637 28.1425 54.9364C27.8914 49.5111 28.0336 39.1288 28.1071 34.8815C28.1252 33.835 28.9794 33 30.0261 33ZM56.8955 66.5854C56.785 65.1399 56.6748 60.6415 59.0588 56.6682C61.5182 52.5692 67.1909 51.6835 68.8153 51.5111C69.0493 51.4863 69.235 51.6809 69.202 51.9139C68.9973 53.3626 68.1464 58.0657 65.4088 61.2864C62.7118 64.4594 58.7068 66.3243 57.3839 66.8813C57.1571 66.9768 56.9143 66.8308 56.8955 66.5854ZM33.8512 61.8637C37.2281 64.7907 40.3534 66.3513 41.4851 66.8651C41.7125 66.9683 41.9623 66.822 41.9836 66.5732C42.1211 64.965 42.327 59.7338 39.6239 56.4758C36.8993 53.1917 31.8939 51.8337 30.4061 51.4913C30.1798 51.4392 29.9699 51.6037 29.9703 51.8359C29.9734 53.3926 30.2566 58.7479 33.8512 61.8637ZM29.6179 46.2773V37.0409C29.6179 36.8284 29.7865 36.6561 29.9991 36.6561H38.4695C39.8164 36.6561 41.7407 38.9652 41.5483 42.044C41.3558 45.1227 39.8164 46.6621 38.4695 46.6621H29.9991C29.7865 46.6621 29.6179 46.4898 29.6179 46.2773ZM69.2574 37.0409V46.2773C69.2574 46.4898 69.0888 46.6621 68.8763 46.6621H60.5983C59.4438 46.6621 57.1347 44.9303 57.1347 41.4667C57.1347 38.003 59.4438 36.6561 60.5983 36.6561H68.8763C69.0888 36.6561 69.2574 36.8284 69.2574 37.0409Z" fill="white"/>
</svg>
