<svg width="100" height="100" viewBox="0 0 100 100" fill="none" xmlns="http://www.w3.org/2000/svg">
<circle opacity="0.7" cx="50" cy="50" r="50" fill="#F5E57F"/>
<path fill-rule="evenodd" clip-rule="evenodd" d="M47.7402 27.5142H51.0683C51.3575 27.5142 51.6107 27.706 51.6876 27.9848L53.1006 33.107H54.3223C54.6774 33.107 54.9649 33.3948 54.9649 33.7499V36.3213C54.9649 36.6763 54.6771 36.9642 54.3221 36.9642H53.8078C53.8078 36.9642 57.0864 42.6213 58.6292 45.3856C60.1721 48.1499 61.0721 54.3856 60.9435 57.9213C60.8164 61.4178 60.1863 66.8631 60.1723 66.9836L60.1717 66.9882C60.155 67.1079 59.5484 71.2927 56.4435 71.2927H43.2006C39.4438 71.2927 38.9321 67.3395 38.8958 67.0077C38.894 66.9913 38.8923 66.9785 38.8896 66.9622C38.8145 66.5084 37.6827 59.5641 37.9935 54.9642C38.3149 50.207 39.6007 45.5142 40.9506 43.1356C42.3006 40.757 45.1935 36.9642 45.1935 36.9642H44.3578C44.0027 36.9642 43.7149 36.6763 43.7149 36.3213V33.7499C43.7149 33.3948 44.0027 33.107 44.3578 33.107H45.7078L47.1205 27.9861C47.1974 27.7073 47.451 27.5142 47.7402 27.5142ZM56.5147 48.8693C57.1594 52.4267 56.4019 55.5426 54.8228 55.8287C53.2438 56.1148 51.4411 53.4629 50.7965 49.9055C50.1519 46.3481 50.9093 43.2322 52.4884 42.9461C54.0674 42.66 55.8701 45.3119 56.5147 48.8693ZM45.8363 61.5214C47.6998 61.5214 48.8902 60.931 49.909 60.3843L50.0572 60.3046C50.9965 59.7991 51.7379 59.4 52.8434 59.4C54.0294 59.4 55.0462 59.8623 56.1854 60.3993L56.2715 60.44C57.351 60.9494 58.5634 61.5214 59.9792 61.5214C60.3342 61.5214 60.622 61.2336 60.622 60.8786C60.622 60.5235 60.3342 60.2357 59.9792 60.2357C58.8613 60.2357 57.8826 59.778 56.7336 59.2364L56.7247 59.2322L56.7247 59.2322C55.6161 58.7095 54.3535 58.1143 52.8434 58.1143C51.4049 58.1143 50.4018 58.6566 49.4876 59.1508L49.486 59.1517C49.424 59.1852 49.3624 59.2185 49.3011 59.2514C48.3431 59.7654 47.3799 60.2357 45.8363 60.2357C44.2912 60.2357 42.9939 59.6549 41.8358 59.108L41.7072 59.0472C41.1916 58.8031 40.6698 58.556 40.1946 58.4173C39.6726 58.2648 39.0702 58.2004 38.5102 58.5204C38.2019 58.6966 38.0949 59.0893 38.271 59.3975C38.4472 59.7058 38.8398 59.8129 39.1481 59.6367C39.2631 59.571 39.4483 59.5387 39.8342 59.6515C40.2071 59.7603 40.6389 59.9644 41.1941 60.2268L41.2868 60.2706C42.443 60.8166 43.9742 61.5214 45.8363 61.5214Z" fill="white"/>
<circle cx="33.8142" cy="49.1143" r="2.05714" fill="white"/>
<circle cx="63.8357" cy="42.4924" r="1.99286" fill="white"/>
<path fill-rule="evenodd" clip-rule="evenodd" d="M66.599 39.8571C68.4452 39.8571 69.9418 38.3605 69.9418 36.5142C69.9418 34.668 68.4452 33.1714 66.599 33.1714C64.7528 33.1714 63.2561 34.668 63.2561 36.5142C63.2561 38.3605 64.7528 39.8571 66.599 39.8571ZM66.793 35.1126C66.3944 35.0617 65.9565 35.1614 65.613 35.4519C65.2597 35.7507 65.0564 36.208 65.0564 36.7713C65.0564 37.0553 65.2867 37.2856 65.5707 37.2856C65.8547 37.2856 66.085 37.0553 66.085 36.7713C66.085 36.4645 66.188 36.3127 66.2771 36.2373C66.376 36.1537 66.5167 36.1143 66.6626 36.1329C66.9444 36.1689 67.202 35.9697 67.238 35.688C67.274 35.4062 67.0748 35.1487 66.793 35.1126Z" fill="white"/>
<path fill-rule="evenodd" clip-rule="evenodd" d="M33.7513 43.0713C36.3431 43.0713 38.4442 40.9702 38.4442 38.3784C38.4442 35.7866 36.3431 33.6855 33.7513 33.6855C31.1595 33.6855 29.0584 35.7866 29.0584 38.3784C29.0584 40.9702 31.1595 43.0713 33.7513 43.0713ZM34.3458 35.555C33.678 35.4715 32.9486 35.6353 32.3778 36.1073C31.7931 36.5908 31.4375 37.3454 31.4375 38.3143C31.4375 38.6694 31.7253 38.9572 32.0803 38.9572C32.4354 38.9572 32.7232 38.6694 32.7232 38.3143C32.7232 37.6761 32.9461 37.3058 33.1971 37.0982C33.4621 36.8791 33.8255 36.7857 34.1863 36.8308C34.5386 36.8748 34.8599 36.625 34.9039 36.2727C34.948 35.9204 34.6981 35.5991 34.3458 35.555Z" fill="white"/>
</svg>
