<svg width="100" height="100" viewBox="0 0 100 100" fill="none" xmlns="http://www.w3.org/2000/svg">
<circle opacity="0.7" cx="50" cy="50" r="50" fill="#F5E57F"/>
<path fill-rule="evenodd" clip-rule="evenodd" d="M45.2577 32.1447L27.5159 41.8455L29.6056 56.8915C29.6108 56.929 29.6313 56.9582 29.6676 56.9691C30.5178 57.2242 41.2575 60.4476 42.9624 61.0366C44.663 61.6241 57.8844 67.2612 58.9963 67.7355C59.0431 67.7555 59.0855 67.7384 59.1087 67.693C59.5759 66.7797 64.2212 57.7145 65.4624 55.9523C66.712 54.1782 69.8047 50.7675 70.0757 50.4693C70.0895 50.4542 70.096 50.4374 70.0982 50.417L71.6443 36.3254L45.3193 32.134C45.2982 32.1306 45.2765 32.1344 45.2577 32.1447ZM46.1709 42.5451L45.8245 34.8462C45.8217 34.7848 45.8761 34.7364 45.9367 34.7462L56.9983 36.537C57.0476 36.545 57.0827 36.5892 57.0794 36.639L56.5439 44.7036C56.54 44.7624 56.4849 44.8041 56.4272 44.7919L46.2475 42.6355C46.2044 42.6263 46.1728 42.5892 46.1709 42.5451ZM45.0714 34.8082L38.2693 38.9083C38.2373 38.9276 38.2192 38.9636 38.2229 39.0007L38.8235 45.1179C38.8276 45.1589 38.857 45.1928 38.897 45.2026L41.3052 45.7892C41.3325 45.7958 41.3613 45.7903 41.3842 45.774L45.7745 42.6517C45.8022 42.632 45.8175 42.5992 45.8149 42.5653L45.2179 34.8837C45.2124 34.8118 45.1331 34.771 45.0714 34.8082ZM31.4141 54.8246L41.2142 58.0069C41.2788 58.0278 41.3443 57.9782 41.3404 57.9104C41.2891 57.0178 40.985 52.1285 40.4282 51.1906C40.3344 51.0328 40.2437 50.8429 40.1426 50.6312L40.1426 50.6312L40.1426 50.6311C39.582 49.4576 38.7016 47.6145 35.2148 46.8488C31.0989 45.9449 30.7599 47.3976 30.7599 49.1085C30.7599 50.6987 31.2759 54.255 31.3487 54.7488C31.354 54.7851 31.3792 54.8133 31.4141 54.8246ZM43.1171 49.1423L47.9594 50.4776C48.1737 50.5367 48.324 50.7292 48.34 50.9508C48.4297 52.193 48.9361 56.1388 51.7589 56.6946C54.269 57.1888 54.4242 54.4446 54.3426 53.0283C54.3213 52.6571 54.679 52.3526 55.0343 52.4622L59.265 53.7669C59.4904 53.8364 59.6366 54.0541 59.6156 54.2891L58.7266 64.2435C58.6969 64.5763 58.3554 64.7869 58.0447 64.664L43.3106 58.8372C43.1199 58.7617 42.9945 58.5774 42.9945 58.3722V49.2356C42.9945 49.1717 43.0554 49.1253 43.1171 49.1423ZM37.6839 39.4698L38.203 44.6755C38.2097 44.7429 38.1469 44.7962 38.0815 44.7786L32.0666 43.1604C31.9858 43.1387 31.9687 43.0316 32.0388 42.9858L37.5346 39.3983C37.5955 39.3586 37.6767 39.3975 37.6839 39.4698ZM58.6735 45.7139C58.725 45.0371 59.085 40.5487 59.6516 39.3111C60.265 37.9715 61.6046 37.7294 64.058 37.9715C66.5114 38.2136 68.1577 39.3111 67.9802 40.9575L63.4797 46.4989C63.458 46.5257 63.4237 46.5389 63.3897 46.5336L58.7552 45.8134C58.7054 45.8056 58.6696 45.7642 58.6735 45.7139ZM70.5638 39.6373L67.508 44.0713C67.5001 44.0828 67.4947 44.0959 67.4923 44.1096L65.9682 52.8076C65.9506 52.908 66.0803 52.9639 66.1413 52.8822L69.6758 48.1444C69.6858 48.131 69.6922 48.1152 69.6942 48.0985L70.7397 39.7042C70.7522 39.6037 70.6214 39.5539 70.5638 39.6373ZM65.8543 46.1751L64.8513 54.7854C64.8497 54.7991 64.8453 54.8122 64.8382 54.824L59.872 63.1215C59.819 63.2101 59.6827 63.1653 59.6925 63.0625L60.6337 53.2339C60.6354 53.2171 60.6414 53.2009 60.6512 53.1871L65.6792 46.1078C65.7372 46.0261 65.8659 46.0756 65.8543 46.1751Z" fill="white"/>
</svg>
