<svg width="100" height="100" viewBox="0 0 100 100" fill="none" xmlns="http://www.w3.org/2000/svg">
<circle opacity="0.7" cx="50" cy="50" r="50" fill="#A6F8E2"/>
<path d="M67.2978 29.3319C66.5244 29.3425 65.707 29.5851 65.0918 29.9331C63.9932 30.5501 63.0703 32.4573 62.543 33.7221C61.7215 33.2557 60.8503 32.9834 60.0141 32.9317C59.1778 32.8799 58.4049 33.0505 57.7705 33.4268L65.5752 41.2385C65.9524 40.603 66.1232 39.8286 66.0708 38.9906C66.0185 38.1527 65.7447 37.2799 65.2764 36.4572C66.542 35.9387 68.4492 35.0053 69.0644 33.911C69.7236 32.7588 70.0049 30.8718 69.0644 29.9331C68.625 29.4936 67.9834 29.3223 67.2978 29.3319ZM56.1445 34.0358L53.2793 36.8967L62.1035 45.7209L64.9687 42.8644L56.1445 34.0358ZM50.7832 37.7756C49.5967 37.7492 47.8916 38.3029 45.7646 40.4387L29.8494 56.3557C29.5383 56.6633 29.3353 57.2082 29.3353 57.7795C29.3353 58.3508 29.5383 58.8957 29.8494 59.2033L39.7969 69.1525C40.1045 69.4689 40.6494 69.6711 41.2295 69.6711C41.8008 69.6711 42.3457 69.4689 42.6533 69.1525L43.084 68.7131L40.667 66.2961L41.792 65.1711L44.209 67.5881L46.0635 65.7336L43.6465 63.3166L44.7715 62.1916L47.1885 64.6086L49.0518 62.7541L44.6396 58.342L45.7646 57.217L50.1768 61.6291L52.0312 59.7658L49.6143 57.3488L50.7393 56.2238L53.1562 58.6408L55.0195 56.7863L52.5937 54.3605L53.7187 53.2355L56.1445 55.6613L57.999 53.798L53.5869 49.3947L54.7119 48.2697L59.1064 52.6555C62.2353 49.2102 61.1367 46.9865 60.5478 46.4064L52.5937 38.4523C52.3213 38.1799 51.7061 37.8019 50.7832 37.7756Z" fill="white"/>
</svg>
