<svg width="100" height="100" viewBox="0 0 100 100" fill="none" xmlns="http://www.w3.org/2000/svg">
<circle opacity="0.7" cx="50" cy="50" r="50" fill="#F5E57F"/>
<path d="M36.1667 46.7107C36.1159 46.6228 36.1305 46.5118 36.2022 46.44L36.8547 45.7871C36.9269 45.7149 37.0388 45.7006 37.1269 45.7523L40.8179 47.9214C40.9437 47.9953 40.9665 48.1679 40.8641 48.2719L38.6801 50.4922C38.5762 50.5978 38.4003 50.5754 38.3261 50.4472L36.1667 46.7107Z" fill="white"/>
<path d="M38.4796 51.8324C38.3984 51.7445 38.4007 51.6083 38.4846 51.523L41.8805 48.0757C41.966 47.989 42.105 47.9863 42.1937 48.0696L43.1955 49.0102C43.2872 49.0963 43.2901 49.2411 43.2019 49.3308L39.7393 52.8509C39.6495 52.9422 39.5016 52.9398 39.4147 52.8457L38.4796 51.8324Z" fill="white"/>
<path d="M54.0492 67.3789C53.9714 67.2906 53.9751 67.1572 54.0577 67.0733L57.4578 63.6201C57.5426 63.534 57.6803 63.5306 57.7692 63.6123L58.3505 64.1461C58.4439 64.2319 58.4476 64.378 58.3586 64.4684L54.9017 67.9828C54.8104 68.0755 54.6597 68.0714 54.5736 67.9738L54.0492 67.3789Z" fill="white"/>
<path d="M55.3039 68.612C55.2157 68.525 55.2147 68.3831 55.3016 68.2949L58.6856 64.8625C58.7734 64.7734 58.9172 64.7734 59.005 64.8625L60.6988 66.5808C60.7856 66.6688 60.7848 66.8104 60.6971 66.8974L57.2996 70.2685C57.2124 70.3551 57.0718 70.3553 56.9843 70.269L55.3039 68.612Z" fill="white"/>
<path fill-rule="evenodd" clip-rule="evenodd" d="M40.1638 53.1308C40.0757 53.2181 40.0753 53.3604 40.1628 53.4483L53.3543 66.6945C53.4418 66.7824 53.584 66.7825 53.6717 66.6948L57.1097 63.2568C57.1973 63.1692 57.1972 63.0271 57.1095 62.9396L43.8931 49.7491C43.8058 49.662 43.6645 49.6617 43.5769 49.7485L40.1638 53.1308ZM49.0516 57.456L54.5525 62.9431C54.7544 63.1445 54.7545 63.4716 54.5528 63.6732C54.3511 63.8748 54.0241 63.8745 53.8228 63.6725L48.338 58.1692C48.1409 57.9714 48.142 57.6511 48.3404 57.4546C48.5375 57.2595 48.8552 57.2601 49.0516 57.456ZM47.7028 58.8023C47.1552 58.2528 47.1582 57.363 47.7095 56.8173C48.257 56.2752 49.1394 56.2769 49.6849 56.821L55.1858 62.3082C55.7388 62.8598 55.7392 63.7554 55.1868 64.3076C54.6344 64.8596 53.7389 64.8587 53.1876 64.3056L47.7028 58.8023Z" fill="white"/>
<path d="M60.0192 29.1313C60.0454 29.0333 60.1342 28.9651 60.2357 28.9651L61.1587 28.9648C61.2608 28.9647 61.3501 29.0338 61.3758 29.1326L62.4519 33.2763C62.4886 33.4176 62.3827 33.5557 62.2368 33.5569L59.1224 33.5825C58.9743 33.5838 58.8657 33.4435 58.904 33.3004L60.0192 29.1313Z" fill="white"/>
<path d="M58.0332 34.3877C58.038 34.2681 58.1359 34.1734 58.2556 34.1725L63.0944 34.1361C63.2161 34.1352 63.3164 34.2316 63.3202 34.3533L63.3635 35.7267C63.3674 35.8525 63.2671 35.9569 63.1412 35.958L58.2038 35.9986C58.0757 35.9996 57.9728 35.8934 57.9779 35.7654L58.0332 34.3877Z" fill="white"/>
<path d="M58.0498 56.3894C58.0572 56.272 58.1542 56.1802 58.2718 56.1793L63.1179 56.1418C63.2387 56.1408 63.3385 56.2358 63.3436 56.3565L63.3772 57.1449C63.3826 57.2716 63.2819 57.3776 63.155 57.3786L58.2256 57.4192C58.0955 57.4203 57.9918 57.3107 57.9999 57.1809L58.0498 56.3894Z" fill="white"/>
<path d="M58.0644 58.1499C58.0636 58.0261 58.1632 57.925 58.287 57.9242L63.107 57.8899C63.232 57.889 63.3336 57.9907 63.3328 58.1157L63.3155 60.5285C63.3146 60.652 63.2139 60.7516 63.0904 60.7511L58.3043 60.7325C58.1814 60.7321 58.0818 60.6328 58.0809 60.5099L58.0644 58.1499Z" fill="white"/>
<path fill-rule="evenodd" clip-rule="evenodd" d="M58.307 36.4942C58.183 36.4937 58.082 36.5939 58.0818 36.718L58.0431 55.4123C58.0428 55.5363 58.1433 55.637 58.2673 55.637L63.1293 55.637C63.2532 55.637 63.3536 55.5364 63.3535 55.4125L63.3352 36.74C63.3351 36.6167 63.2353 36.5166 63.112 36.516L58.307 36.4942ZM61.5336 45.8374L61.5433 53.6072C61.5437 53.8924 61.3125 54.1237 61.0273 54.1237C60.7421 54.1236 60.5111 53.8921 60.5116 53.6069L60.5247 45.8372C60.5252 45.558 60.7525 45.3322 61.0317 45.3336C61.309 45.335 61.5332 45.5601 61.5336 45.8374ZM59.6279 45.8357C59.6292 45.06 60.2605 44.4329 61.0362 44.4368C61.8067 44.4407 62.4295 45.0658 62.4304 45.8363L62.4401 53.606C62.4411 54.3871 61.8081 55.0207 61.027 55.0205C60.246 55.0202 59.6135 54.3864 59.6148 53.6054L59.6279 45.8357Z" fill="white"/>
<path d="M67.7544 38.6606C67.7806 38.5626 67.8694 38.4944 67.9709 38.4943L68.8939 38.4941C68.996 38.494 69.0853 38.5631 69.111 38.6619L70.1871 42.8056C70.2238 42.9469 70.1179 43.085 69.972 43.0862L66.8576 43.1118C66.7095 43.1131 66.6009 42.9728 66.6392 42.8297L67.7544 38.6606Z" fill="white"/>
<path d="M65.7684 43.918C65.7732 43.7984 65.8711 43.7036 65.9908 43.7027L70.8296 43.6664C70.9513 43.6655 71.0516 43.7619 71.0554 43.8835L71.0987 45.257C71.1026 45.3828 71.0023 45.4872 70.8764 45.4882L65.939 45.5289C65.8109 45.5299 65.708 45.4237 65.7131 45.2957L65.7684 43.918Z" fill="white"/>
<path d="M65.785 65.9197C65.7924 65.8022 65.8894 65.7105 66.007 65.7096L70.8531 65.6721C70.9739 65.6711 71.0737 65.766 71.0788 65.8867L71.1124 66.6752C71.1178 66.8019 71.017 66.9078 70.8902 66.9089L65.9608 66.9495C65.8307 66.9505 65.727 66.841 65.7351 66.7112L65.785 65.9197Z" fill="white"/>
<path d="M65.7996 67.6802C65.7988 67.5564 65.8984 67.4553 66.0222 67.4544L70.8422 67.4202C70.9672 67.4193 71.0688 67.5209 71.068 67.646L71.0507 70.0588C71.0498 70.1823 70.9491 70.2819 70.8256 70.2814L66.0395 70.2628C65.9166 70.2623 65.817 70.163 65.8161 70.0402L65.7996 67.6802Z" fill="white"/>
<path fill-rule="evenodd" clip-rule="evenodd" d="M66.0421 46.0245C65.9181 46.024 65.8171 46.1242 65.8169 46.2483L65.7782 64.9426C65.7779 65.0666 65.8784 65.1672 66.0024 65.1672L70.8644 65.1672C70.9883 65.1672 71.0887 65.0667 71.0886 64.9428L71.0703 46.2703C71.0701 46.1469 70.9704 46.0468 70.8471 46.0463L66.0421 46.0245ZM69.2688 55.3677L69.2785 63.1374C69.2788 63.4226 69.0477 63.654 68.7625 63.6539C68.4773 63.6538 68.2463 63.4224 68.2468 63.1372L68.2599 55.3675C68.2604 55.0882 68.4876 54.8625 68.7669 54.8639C69.0442 54.8653 69.2684 55.0903 69.2688 55.3677ZM67.3631 55.366C67.3644 54.5902 67.9957 53.9632 68.7714 53.9671C69.5418 53.9709 70.1647 54.5961 70.1656 55.3666L70.1753 63.1363C70.1763 63.9174 69.5433 64.551 68.7622 64.5508C67.9812 64.5505 67.3486 63.9167 67.35 63.1357L67.3631 55.366Z" fill="white"/>
<path d="M27.7847 32.2687C27.7847 32.2687 32.8295 29.2419 33.2779 30.4751C33.7263 31.7082 26.7758 37.0332 27.9529 38.4906C29.13 39.9479 35.0155 33.9503 36.4729 35.5198C37.9302 37.0893 27.056 43.4792 29.186 45.7774C29.186 45.7774 30.3631 46.394 31.3721 45.2729C32.381 44.1519 34.3346 43.5426 35.4639 44.8245" stroke="white" stroke-linecap="round"/>
</svg>
