<svg width="100" height="100" viewBox="0 0 100 100" fill="none" xmlns="http://www.w3.org/2000/svg">
<circle opacity="0.7" cx="50" cy="50" r="50" fill="#7FC8F5"/>
<path d="M27.5294 56.0501C27.5294 56.0501 34 52.3751 37 46.3751M27.5294 56.0501C27.1544 55.3001 28.2044 51.4002 28.7294 50.3501C29.2544 49.3001 32.4003 44.4251 33.0752 43.6751C33.7501 42.925 39.0045 38.1252 40.7294 37.4501C42.4543 36.7751 45.9625 36.3987 48.9793 35.7251M27.5294 56.0501C29.397 57.4377 30.4968 58.1725 31.5 58.7231M37 46.3751C40 40.3751 44.2637 38.5661 48.9793 35.7251M37 46.3751L31.5 58.7231M48.9793 35.7251C43.5 40.5 47.5 40 41.5 47C35.5 54 35.4794 60.5501 35.4794 60.5501M48.9793 35.7251C51.13 36.1406 58.5 38.8249 61 43C63.5 47.1751 71.4794 52.0751 71.4794 52.0751M48.9793 35.7251C50.6295 35.0982 51.7544 34.9751 53.4794 35.3501C55.2044 35.7251 59 37 61.5 38.5C64 40 68.375 45.2501 69.5 46.3751C70.625 47.5002 71.9294 51.4751 71.4794 52.0751M35.4794 60.5501C36.8294 60.6251 53.7793 56.5001 53.7793 56.5001C53.7793 56.5001 70.8794 52.9001 71.4794 52.0751M35.4794 60.5501C33.6366 59.7291 32.6296 59.343 31.5 58.7231" stroke="white" stroke-width="5"/>
<rect x="46" y="29" width="4" height="7" rx="2" fill="white"/>
</svg>
