<svg width="100" height="100" viewBox="0 0 100 100" fill="none" xmlns="http://www.w3.org/2000/svg">
<circle opacity="0.7" cx="50" cy="50" r="50" fill="#A6F8E2"/>
<path fill-rule="evenodd" clip-rule="evenodd" d="M37.4986 32.5362C36.8334 32.7211 36.4441 33.4102 36.629 34.0753L40.8697 49.3302C41.0546 49.9953 41.7437 50.3846 42.4088 50.1997L57.6637 45.959C58.3288 45.7741 58.7182 45.085 58.5333 44.4199L54.2926 29.165C54.1077 28.4999 53.4186 28.1106 52.7534 28.2955L37.4986 32.5362ZM45.5608 35.2777C45.2663 35.4514 45.0526 35.6074 44.9199 35.7457C44.9017 35.9326 44.8766 36.2023 44.8444 36.5547C44.8215 36.9045 44.7978 37.305 44.7732 37.7563C44.746 38.1983 44.7173 38.6709 44.6872 39.1742C44.6571 39.6776 44.6336 40.1689 44.6169 40.6483C44.5976 41.1183 44.5798 41.5576 44.5634 41.9662C44.5563 42.3721 44.5556 42.7107 44.5611 42.9818C44.5643 43.1728 44.5656 43.339 44.5651 43.4806C44.5645 43.6221 44.5826 43.7584 44.6194 43.8895C44.701 44.1796 44.8778 44.3773 45.1498 44.4826C45.4285 44.5759 45.8066 44.5555 46.2839 44.4212C46.4898 44.3633 46.6577 44.2959 46.7875 44.219C46.9294 44.1488 47.0592 44.0719 47.1771 43.9883C47.173 43.6864 47.1663 43.3753 47.157 43.0547C47.1476 42.7342 47.1409 42.423 47.1368 42.1211L49.6779 41.4066L50.2029 42.3042C50.2945 42.4502 50.3854 42.5761 50.4758 42.6819C50.5755 42.7852 50.6827 42.8611 50.7974 42.9096C50.9214 42.9556 51.0635 42.9762 51.2238 42.9715C51.3934 42.9642 51.5906 42.929 51.8152 42.8658C52.124 42.779 52.3789 42.6618 52.5799 42.5144C52.7834 42.3764 52.9229 42.2261 52.9984 42.0635C52.7133 41.5882 52.3837 41.0446 52.0096 40.4328C51.6329 39.8115 51.2503 39.1869 50.8616 38.559C50.4703 37.9217 50.0856 37.3078 49.7074 36.7172C49.3293 36.1267 48.9876 35.6118 48.6822 35.1725C48.4977 34.9113 48.2045 34.7665 47.8027 34.7381C47.4075 34.6978 46.976 34.7434 46.508 34.875C46.1804 34.9671 45.8647 35.1013 45.5608 35.2777ZM47.0356 38.529C47.0672 37.9949 47.0933 37.5129 47.1138 37.083L47.198 37.0593C47.4182 37.4115 47.6623 37.8125 47.9302 38.2623C48.2048 38.7001 48.4787 39.1533 48.7518 39.6219L47.011 40.1114C47.0025 39.5785 47.0108 39.0511 47.0356 38.529Z" fill="white"/>
<path fill-rule="evenodd" clip-rule="evenodd" d="M52.4167 52.5444C51.7263 52.5444 51.1667 53.1041 51.1667 53.7944V69.6278C51.1667 70.3181 51.7263 70.8778 52.4167 70.8778H68.25C68.9404 70.8778 69.5 70.3181 69.5 69.6278V53.7944C69.5 53.1041 68.9404 52.5444 68.25 52.5444H52.4167ZM60.2343 58.6714C60.6329 58.2145 61.2065 57.986 61.9551 57.986C62.3343 57.986 62.6649 58.0443 62.9468 58.161C63.2385 58.2777 63.5107 58.4186 63.7635 58.5839C63.9288 58.477 64.0746 58.3311 64.201 58.1464C64.3274 57.9617 64.3906 57.7429 64.3906 57.4902C64.3906 57.0332 64.1426 56.6589 63.6468 56.3672C63.1607 56.0756 62.4704 55.9297 61.576 55.9297C60.944 55.9297 60.351 56.0318 59.7968 56.236C59.2426 56.4402 58.7565 56.7415 58.3385 57.1402C57.9301 57.5388 57.6045 58.0297 57.3614 58.6131C57.1281 59.1867 57.0114 59.8527 57.0114 60.611C57.0114 61.4277 57.1329 62.1325 57.376 62.7256C57.6288 63.3089 57.969 63.795 58.3968 64.1839C58.8246 64.5631 59.3253 64.845 59.8989 65.0297C60.4725 65.2145 61.085 65.3068 61.7364 65.3068C62.6406 65.3068 63.3114 65.1707 63.7489 64.8985C64.1961 64.6165 64.4197 64.2763 64.4197 63.8777C64.4197 63.6249 64.3711 63.4061 64.2739 63.2214C64.1864 63.027 64.06 62.8617 63.8947 62.7256C63.642 62.8617 63.3746 62.9832 63.0926 63.0902C62.8204 63.1971 62.485 63.2506 62.0864 63.2506C61.3378 63.2506 60.7399 63.0221 60.2926 62.5652C59.8551 62.1082 59.6364 61.4568 59.6364 60.611C59.6364 59.7749 59.8357 59.1284 60.2343 58.6714Z" fill="white"/>
<path fill-rule="evenodd" clip-rule="evenodd" d="M30.3334 52.5444C29.643 52.5444 29.0834 53.1041 29.0834 53.7944V69.6278C29.0834 70.3181 29.643 70.8778 30.3334 70.8778H46.1667C46.8571 70.8778 47.4167 70.3181 47.4167 69.6278V53.7944C47.4167 53.1041 46.8571 52.5444 46.1667 52.5444H30.3334ZM38.1041 63.3089C37.8902 63.2895 37.7152 63.2603 37.5791 63.2214V61.4422H38.775C39.2125 61.4422 39.5382 61.5103 39.752 61.6464C39.9659 61.7825 40.0729 62.011 40.0729 62.3318C40.0729 62.6721 39.9416 62.9249 39.6791 63.0902C39.4264 63.2457 39.1055 63.3235 38.7166 63.3235C38.5222 63.3235 38.318 63.3186 38.1041 63.3089ZM38.6437 59.6631H37.5791V57.9422C37.6861 57.9228 37.8319 57.9082 38.0166 57.8985C38.2111 57.8888 38.3812 57.8839 38.527 57.8839C38.9645 57.8839 39.2902 57.9617 39.5041 58.1172C39.7277 58.2728 39.8395 58.4818 39.8395 58.7443C39.8395 59.0457 39.7423 59.2742 39.5479 59.4297C39.3632 59.5853 39.0618 59.6631 38.6437 59.6631ZM37.9437 65.2631C38.1673 65.2728 38.3618 65.2777 38.527 65.2777C39.8687 65.2777 40.8944 65.0492 41.6041 64.5922C42.3236 64.1256 42.6833 63.411 42.6833 62.4485C42.6833 61.904 42.518 61.452 42.1875 61.0922C41.8666 60.7325 41.4632 60.4846 40.977 60.3485C41.4048 60.2027 41.7451 59.9742 41.9979 59.6631C42.2507 59.3422 42.377 58.9631 42.377 58.5256C42.377 57.6506 42.0416 57.004 41.3708 56.586C40.7 56.1679 39.7423 55.9589 38.4979 55.9589C37.9729 55.9589 37.4625 55.9881 36.9666 56.0464C36.4708 56.095 36.0576 56.1777 35.727 56.2943C35.5326 56.3624 35.377 56.4547 35.2604 56.5714C35.1534 56.6783 35.1 56.8339 35.1 57.0381V63.8485C35.1 64.354 35.3673 64.7089 35.902 64.9131C36.0965 64.9909 36.3104 65.0492 36.5437 65.0881C36.777 65.1367 37.0104 65.1756 37.2437 65.2047C37.4868 65.2339 37.7201 65.2534 37.9437 65.2631Z" fill="white"/>
</svg>
