<svg width="100" height="100" viewBox="0 0 100 100" fill="none" xmlns="http://www.w3.org/2000/svg">
<circle opacity="0.7" cx="50" cy="50" r="50" fill="#7FC8F5"/>
<path fill-rule="evenodd" clip-rule="evenodd" d="M59.7595 30C63.504 30 65.212 33.5474 65.1135 36.3066C65.015 39.0657 64.358 40.6095 62.9785 43.6642C61.5989 46.719 62.9785 52.5657 62.9785 52.5657C62.9785 52.5657 63.3674 57.4191 63.2412 61.8285C63.2227 62.4761 63.2142 63.0562 63.2065 63.5914C63.1857 65.0198 63.1696 66.1281 62.9785 67.3467C62.9785 67.3467 62.5186 69.6788 60.3836 69.6788C58.2485 69.6788 57.8215 68.9562 57.3617 67.9051C57.1396 67.3974 57.0003 62.9453 56.9675 61.1715C56.949 60.1738 57.0761 58.0213 57.1908 56.0781C57.28 54.5669 57.3617 53.1822 57.3617 52.5657C57.3617 51.6711 57.4253 50.5891 57.49 49.4903C57.6223 47.2403 57.7588 44.9196 57.3616 43.9927C57.2678 43.7739 57.1418 43.5047 56.9969 43.195C56.2278 41.5516 54.9242 38.7663 55.0624 36.3066C55.2266 33.3832 56.015 30 59.7595 30ZM59.8376 51.6226C59.8966 51.7504 59.9463 52.0103 59.9728 52.335C59.9978 52.6417 59.9975 52.9408 59.9899 53.1007C59.9769 53.3725 60.1868 53.6034 60.4586 53.6163C60.7304 53.6293 60.9612 53.4195 60.9742 53.1477C60.9838 52.9467 60.9835 52.6053 60.955 52.2549C60.9279 51.9226 60.8704 51.5089 60.7324 51.2097C60.6184 50.9627 60.3256 50.8548 60.0786 50.9688C59.8315 51.0828 59.7236 51.3755 59.8376 51.6226ZM60.0474 64.4686C60.2703 61.621 60.4291 59.5925 60.253 56.8011C60.2359 56.5295 60.4422 56.2954 60.7137 56.2783C60.9853 56.2612 61.2194 56.4675 61.2365 56.739C61.417 59.6013 61.2533 61.6926 61.0311 64.5297L60.9966 64.9706C60.9755 65.2419 60.7384 65.4446 60.4671 65.4235C60.1958 65.4023 59.993 65.1653 60.0142 64.894L60.0474 64.4686ZM60.1208 42.1207C61.7716 42.1207 63.1098 39.8412 63.1098 37.0294C63.1098 34.2176 61.7716 31.9382 60.1208 31.9382C58.47 31.9382 57.1317 34.2176 57.1317 37.0294C57.1317 39.8412 58.47 42.1207 60.1208 42.1207Z" fill="white"/>
<path fill-rule="evenodd" clip-rule="evenodd" d="M42.3751 47.6182C35.1456 47.673 34.178 49.809 34.0685 50.1376C33.9806 50.4012 33.9985 51.4757 34.009 52.1071C34.0116 52.2627 34.0137 52.3914 34.0137 52.4744C34.0137 52.8943 34.6709 53.515 34.6709 53.515C34.6709 53.515 34.0685 54.0627 34.0685 54.8842V66.824C34.0685 66.824 33.9772 67.7185 35.0178 68.2662C36.0584 68.8139 39.1072 69.7268 42.3751 69.7815C45.643 69.8363 49.769 68.5948 50.1159 68.2297C50.19 68.1517 50.2724 68.0787 50.3562 68.0044C50.6648 67.7312 50.9922 67.4413 50.9922 66.824V54.8478C50.9922 54.1357 50.3714 53.442 50.3714 53.442C50.3714 53.442 51.0834 53.0951 51.0834 52.3283V50.3202C51.0834 49.7725 49.6047 47.5634 42.3751 47.6182ZM42.489 53.4043C38.7647 53.3678 35.5151 52.5462 34.6023 51.6517V52.5462C34.6023 52.5462 35.8254 54.7005 42.489 54.6822C49.1526 54.664 50.4853 52.5462 50.4853 52.5462V51.6517C49.6456 52.2906 46.2133 53.4408 42.489 53.4043ZM47.5318 67.2767C47.7854 67.178 48.071 67.3037 48.1696 67.5573C48.2682 67.8109 48.1426 68.0964 47.889 68.1951C47.5252 68.3365 46.8966 68.5024 46.3777 68.5024C46.1056 68.5024 45.885 68.2818 45.885 68.0097C45.885 67.7376 46.1056 67.517 46.3777 67.517C46.7351 67.517 47.2384 67.3908 47.5318 67.2767ZM37.1865 67.6443C37.0957 67.9009 37.2302 68.1824 37.4867 68.2731C38.2931 68.5583 39.3956 68.7409 40.4998 68.8314C41.6092 68.9223 42.7587 68.9232 43.6719 68.8281C43.9425 68.7999 44.1391 68.5576 44.1109 68.287C44.0827 68.0163 43.8404 67.8198 43.5698 67.848C42.7303 67.9354 41.6434 67.9364 40.5803 67.8493C39.512 67.7617 38.5058 67.5883 37.8152 67.3441C37.5587 67.2534 37.2772 67.3878 37.1865 67.6443ZM37.096 50.3064C37.4438 50.1035 37.8651 50.0449 37.9979 50.0449C38.27 50.0449 38.4906 49.8243 38.4906 49.5522C38.4906 49.2801 38.27 49.0595 37.9979 49.0595C37.729 49.0595 37.128 49.1469 36.5995 49.4552C36.3644 49.5923 36.285 49.894 36.4222 50.1291C36.5593 50.3641 36.861 50.4435 37.096 50.3064ZM46.4052 49.9396C44.7786 49.5373 42.3203 49.4808 40.7176 49.6589C40.4472 49.689 40.2036 49.4941 40.1735 49.2236C40.1435 48.9532 40.3383 48.7096 40.6088 48.6795C42.2923 48.4925 44.8727 48.5455 46.6418 48.983C46.906 49.0484 47.0671 49.3155 47.0018 49.5796C46.9365 49.8438 46.6694 50.0049 46.4052 49.9396ZM45.2446 59.6919C44.9735 59.312 44.6267 59.084 44.2038 59.008C43.9436 58.9645 43.5857 59.0026 43.1301 59.1219C42.7397 59.2306 42.409 59.3608 42.1379 59.5127C41.8668 59.3608 41.5361 59.2306 41.1458 59.1219C40.6903 59.0026 40.3326 58.9645 40.0724 59.008C39.6495 59.084 39.3027 59.312 39.0315 59.6919C38.793 60.0284 38.6303 60.4518 38.5437 60.962C38.4676 61.4288 38.4733 61.8955 38.56 62.3623C38.6901 63.133 38.9503 63.779 39.3406 64.3001C39.8069 64.9297 40.3923 65.2445 41.0971 65.2445C41.2707 65.2445 41.4602 65.1903 41.6663 65.0817C41.8075 64.9949 41.9645 64.9514 42.1381 64.9514C42.3117 64.9514 42.4688 64.9949 42.6098 65.0817C42.816 65.1903 43.0055 65.2445 43.1791 65.2445C43.8838 65.2445 44.4692 64.9297 44.9356 64.3001C45.3259 63.779 45.5861 63.133 45.7162 62.3623C45.8028 61.8955 45.8085 61.4288 45.7325 60.962C45.6458 60.4518 45.4832 60.0284 45.2446 59.6919ZM42.7073 58.6497C42.9566 58.5846 43.1574 58.4815 43.3092 58.3403C43.4504 58.1884 43.5533 57.9875 43.6182 57.7379C43.6723 57.5641 43.6995 57.3743 43.6995 57.1679L43.6832 56.9237L43.4393 56.9074C43.2331 56.9074 43.0436 56.9346 42.87 56.9888C42.6207 57.054 42.4199 57.157 42.2682 57.2982C42.0622 57.5045 41.9376 57.803 41.8942 58.1938C41.8725 58.3892 41.8725 58.5629 41.8942 58.7149L42.1381 58.7311C42.3442 58.7311 42.5338 58.704 42.7073 58.6497Z" fill="white"/>
</svg>
