<svg width="100" height="100" viewBox="0 0 100 100" fill="none" xmlns="http://www.w3.org/2000/svg">
<circle opacity="0.7" cx="50" cy="50" r="50" fill="#F57FAC"/>
<path fill-rule="evenodd" clip-rule="evenodd" d="M36.71 33.7278C37.2333 32.9429 61.303 33.2046 61.8263 33.7278C62.3495 34.2509 62.0879 37.652 61.8263 38.4371C61.9707 39.0146 62.5843 40.0791 63.2422 41.2203L63.2423 41.2204C63.7762 42.1466 64.3392 43.1233 64.7042 43.9312C65.5189 45.7347 70.46 63.5532 70.46 64.5998C70.46 65.2335 68.9257 65.3875 67.5408 65.5266C66.9982 65.581 66.4786 65.6332 66.0831 65.711L60.7661 43.0267C60.7001 42.7454 60.4186 42.5708 60.1372 42.6367C59.8559 42.7027 59.6812 42.9842 59.7472 43.2656L65.1534 66.3302C65.067 66.5002 64.9914 66.7004 64.9107 66.9141C64.5824 67.7833 64.1703 68.8742 62.6112 69.0475C61.1339 69.2118 59.9655 68.8609 59.1707 68.4474L55.5421 43.0721C55.5012 42.786 55.2361 42.5873 54.95 42.6282C54.6639 42.6691 54.4652 42.9341 54.5061 43.2202L57.9962 67.6267C57.2344 67.2524 54.8863 67.2536 54.1363 67.6308L52.1445 43.1038C52.1211 42.8158 51.8686 42.6012 51.5806 42.6246C51.2925 42.648 51.078 42.9005 51.1014 43.1885L53.1646 68.5945C53.165 68.5995 53.1655 68.6044 53.166 68.6093C52.4902 69.2036 51.3248 69.8323 49.0065 69.8324C47.2848 69.8325 46.2568 69.4856 45.5964 69.0636L47.4355 43.1832C47.4559 42.8949 47.2389 42.6446 46.9506 42.6242C46.6624 42.6037 46.4121 42.8208 46.3916 43.109L44.6137 68.1286L44.5531 68.0495C44.46 67.9274 44.3786 67.8207 44.2972 67.7394C43.8419 67.2842 42.0001 67.4229 40.6675 67.6391L44.2917 42.9605C44.3337 42.6746 44.1359 42.4088 43.85 42.3668C43.5641 42.3248 43.2983 42.5225 43.2563 42.8084L39.5689 67.9175C39.3414 68.0206 39.128 68.1499 38.9059 68.2846L38.9059 68.2846C38.1827 68.723 37.3666 69.2177 35.6635 69.0475C34.014 68.8827 33.4045 67.7817 33.0481 66.925L39.049 43.0118C39.1193 42.7315 38.9491 42.4473 38.6688 42.377C38.3885 42.3066 38.1042 42.4768 38.0339 42.7571L32.2422 65.8368C31.9726 65.797 31.5703 65.7778 31.1192 65.7563C29.934 65.6997 28.4122 65.6271 28.0763 65.1231C27.5876 64.3899 33.0589 47.4281 34.1853 43.936L34.1854 43.9357C34.2649 43.6891 34.3228 43.5097 34.3553 43.408C34.6126 42.6042 35.2415 41.4297 35.7847 40.4153L35.7847 40.4153L35.7847 40.4153C36.2835 39.4839 36.71 38.6874 36.71 38.4371C36.71 38.4371 36.1867 34.5126 36.71 33.7278Z" fill="white"/>
</svg>
