<svg width="100" height="100" viewBox="0 0 100 100" fill="none" xmlns="http://www.w3.org/2000/svg">
<circle opacity="0.7" cx="50" cy="50" r="50" fill="#F5E57F"/>
<path fill-rule="evenodd" clip-rule="evenodd" d="M45.8161 42.6061C46.4178 42.9574 48.8475 43.9761 49.4595 43.9747C49.6203 43.9743 49.9027 43.7402 50.2954 43.4146C51.397 42.5015 53.3663 40.8689 55.9549 41.6567C58.6707 42.4831 58.6945 45.219 58.7069 46.6433C58.7105 47.0607 58.7132 47.3654 58.7823 47.4765C59.0873 47.9667 66.4812 50.744 67.2478 50.6563C68.0144 50.5687 69.8031 47.1087 70.4626 45.3531C71.122 43.5975 71.7403 38.6963 70.3555 37.1744C70.3555 37.1744 74.3038 35.7778 72.7707 32.6978C71.2375 29.6177 67.3468 32.1629 67.3468 32.1629C67.2135 32.1128 67.0068 31.9746 66.7091 31.7756C66.0498 31.3348 64.9441 30.5954 63.2006 29.8543C61.5165 29.1384 60.2559 29.0251 59.3799 28.9464C58.9395 28.9069 58.5964 28.8761 58.3454 28.7818C58.1239 28.6986 57.9483 28.294 57.7294 27.7894C57.2071 26.5856 56.4378 24.8126 54.2075 25.4746C51.6191 26.2429 52.2056 28.7898 52.4738 29.9548C52.5336 30.2144 52.5776 30.4054 52.5671 30.4928C52.548 30.6512 52.153 30.9561 51.5862 31.3934C50.4393 32.2785 48.5891 33.7062 47.7285 35.5616C46.4426 38.334 45.2143 42.2549 45.8161 42.6061ZM62.0828 32.4621C61.6958 32.2514 61.2113 32.3943 61.0005 32.7813C60.7898 33.1683 60.9328 33.6529 61.3198 33.8636C64.436 35.5602 66.1393 36.9585 67.004 38.4751C67.85 39.9589 67.9672 41.6907 67.5495 44.2684C67.479 44.7033 67.7745 45.1131 68.2095 45.1836C68.6445 45.2541 69.0542 44.9586 69.1247 44.5236C69.5637 41.8144 69.5052 39.6404 68.3902 37.6847C67.2939 35.7619 65.2509 34.187 62.0828 32.4621Z" fill="white"/>
<path d="M50.0023 59.8225C50.0023 59.8225 50.2587 65.1195 48.4727 67.6897C47.2007 69.5203 45.0852 70.9336 44.0062 71.2437C42.9272 71.5539 41.2297 70.7855 40.7661 70.1694C40.3025 69.5533 40.7624 67.8562 41.378 67.0842C41.9936 66.3122 43.8429 65.5382 44.3048 65.0748C44.7667 64.6114 44.7657 63.9946 44.3019 63.2243C43.838 62.4539 42.4504 62.6104 41.834 62.9198C41.2176 63.2292 38.9074 65.0834 37.9827 65.3933C37.0579 65.7032 35.516 65.8599 34.1269 65.091C32.7378 64.3222 33.0391 59.8496 33.0391 59.8496" stroke="white" stroke-linecap="round"/>
<path d="M37.3553 58.7633C37.2018 59.2261 32.423 60.3134 31.9601 60.1598C31.4972 60.0062 30.2596 57.5408 29.95 56.7703C29.6403 55.9999 29.019 53.2252 29.0185 52.9166C29.018 52.6081 28.706 50.2954 31.1719 49.3662C33.6378 48.437 34.565 49.6693 35.0289 50.4396C35.4927 51.2099 35.4974 54.1399 35.96 54.1392C36.4227 54.1384 36.8804 51.0534 38.1148 51.5141C39.3492 51.9749 38.8893 53.672 38.5816 54.135C38.2739 54.598 37.1972 56.296 37.1979 56.7588C37.1987 57.2215 37.5088 58.3005 37.3553 58.7633Z" fill="white"/>
<path d="M45.567 58.7718C45.722 59.2341 50.5042 60.3062 50.9666 60.1511C51.429 59.996 52.6588 57.5267 52.9659 56.7553C53.2731 55.9838 53.8856 53.2071 53.8851 52.8986C53.8846 52.5901 54.1893 50.2764 51.7204 49.3551C49.2516 48.4338 48.3283 49.6689 47.8669 50.4407C47.4055 51.2125 47.4102 54.1425 46.9475 54.1433C46.4849 54.144 46.0174 51.0604 44.7844 51.5251C43.5514 51.9898 44.0168 53.6854 44.3259 54.1474C44.6351 54.6095 45.7173 56.3041 45.718 56.7668C45.7187 57.2296 45.412 58.3095 45.567 58.7718Z" fill="white"/>
</svg>
