<svg width="100" height="100" viewBox="0 0 100 100" fill="none" xmlns="http://www.w3.org/2000/svg">
<circle opacity="0.7" cx="50" cy="50" r="50" fill="#F5E57F"/>
<path fill-rule="evenodd" clip-rule="evenodd" d="M58.3114 60.4278C58.1105 60.6287 54.1931 60.6287 53.7913 60.4278C53.5638 60.3141 53.5939 59.8141 53.6264 59.2741C53.6513 58.8601 53.6776 58.4226 53.5904 58.1176C53.5193 57.8687 53.2091 57.4814 52.8379 57.018C52.1605 56.1723 51.2802 55.0731 51.2801 54.0997C51.2801 52.593 52.4854 50.3832 56.4029 50.5841C60.3204 50.785 60.8225 53.2961 60.8225 54.5015C60.8226 55.1849 60.0153 56.0298 59.3162 56.7615C58.7823 57.3203 58.3114 57.8131 58.3114 58.1176C58.3114 58.3449 58.3324 58.6458 58.354 58.9557C58.3993 59.6041 58.4473 60.2919 58.3114 60.4278ZM55.8002 61.8341C53.0882 61.8341 48.1663 59.9256 47.6641 59.7247C47.1618 59.5238 46.4587 61.3318 46.76 61.8341C46.9496 62.1501 48.9683 62.7046 50.4895 63.1225C51.386 63.3688 52.1097 63.5676 52.1842 63.6421C52.2756 63.7335 52.2006 64.2201 52.1012 64.8652C51.9822 65.6378 51.8281 66.638 51.8828 67.4591C51.9833 68.9658 53.6908 70.7738 55.8002 70.7738C57.9096 70.7738 59.3158 69.468 59.9185 68.2627C60.4394 67.2209 60.0599 64.5283 59.9473 63.8167C59.9314 63.7161 59.9892 63.6209 60.0867 63.5914C60.9628 63.3263 64.9739 62.1024 65.2422 61.8341C65.5435 61.5327 64.8404 59.7247 64.3382 59.7247C64.1871 59.7247 63.5995 59.9156 62.778 60.1826C60.869 60.803 57.6963 61.8341 55.8002 61.8341ZM55.9009 65.3499C55.2809 65.3499 54.7553 64.8774 54.3891 64.5481C54.2214 64.3973 54.0871 64.2766 53.9924 64.245C53.6911 64.1446 53.0884 65.4504 53.0884 66.5553C53.0884 67.6602 54.0929 68.966 55.9009 69.1669C57.7089 69.3678 58.7134 67.6602 58.8139 66.6557C58.9143 65.6513 58.3116 64.3455 58.0103 64.245C57.8874 64.2041 57.6643 64.3802 57.3819 64.6032C56.9717 64.9272 56.4363 65.3499 55.9009 65.3499ZM52.6864 55.8074C52.3571 55.8074 51.9833 52.9949 52.8873 52.0909C53.7913 51.1869 55.6998 51.0864 55.8002 51.2873C55.8394 51.3656 55.6347 51.4743 55.3167 51.6432C54.8184 51.9079 54.0419 52.3204 53.49 52.9949C52.9338 53.6746 52.8824 54.5824 52.8486 55.1805C52.8274 55.5545 52.8131 55.8074 52.6864 55.8074Z" fill="white"/>
<path d="M56.5413 28.5056C56.0417 28.5124 55.5138 28.6691 55.1165 28.8939C54.407 29.2924 53.811 30.5241 53.4704 31.3409C52.9399 31.0397 52.3772 30.8639 51.8371 30.8305C51.2971 30.797 50.7979 30.9072 50.3882 31.1502L55.4287 36.1953C55.6723 35.7849 55.7826 35.2847 55.7488 34.7435C55.715 34.2024 55.5382 33.6387 55.2357 33.1074C56.0531 32.7725 57.2848 32.1697 57.6822 31.463C58.1079 30.7188 58.2895 29.5001 57.6822 28.8939C57.3984 28.6101 56.984 28.4994 56.5413 28.5056ZM49.3381 31.5436L47.4876 33.3912L53.1866 39.0902L55.037 37.2454L49.3381 31.5436ZM45.8755 33.9588C45.1092 33.9418 44.008 34.2994 42.6344 35.6787L32.3558 45.9584C32.1549 46.1571 32.0237 46.509 32.0237 46.878C32.0237 47.247 32.1549 47.5989 32.3558 47.7976L38.7802 54.2231C38.9789 54.4274 39.3308 54.558 39.7054 54.558C40.0744 54.558 40.4263 54.4274 40.625 54.2231L40.9031 53.9393L39.3422 52.3783L40.0687 51.6517L41.6297 53.2127L42.8274 52.015L41.2664 50.4541L41.993 49.7275L43.5539 51.2885L44.7573 50.0908L41.9078 47.2413L42.6344 46.5147L45.4839 49.3642L46.6816 48.1608L45.1206 46.5999L45.8472 45.8733L47.4081 47.4343L48.6115 46.2366L47.0449 44.6699L47.7714 43.9434L49.3381 45.51L50.5358 44.3067L47.6863 41.4628L48.4128 40.7363L51.251 43.5687C53.2717 41.3436 52.5622 39.9075 52.1819 39.5329L47.0449 34.3959C46.8689 34.2199 46.4716 33.9758 45.8755 33.9588Z" fill="white"/>
</svg>
