<svg width="100" height="100" viewBox="0 0 100 100" fill="none" xmlns="http://www.w3.org/2000/svg">
<circle opacity="0.7" cx="50" cy="50" r="50" fill="#F5E57F"/>
<path fill-rule="evenodd" clip-rule="evenodd" d="M54.7978 49.3129C54.3693 49.7414 46.0122 49.7414 45.1549 49.3129C44.6697 49.0704 44.7338 48.0037 44.8031 46.8516C44.8562 45.9685 44.9123 45.0352 44.7264 44.3844C44.5747 43.8534 43.9129 43.0272 43.1211 42.0386C41.676 40.2344 39.7979 37.8895 39.7978 35.8129C39.7977 32.5987 42.3691 27.8844 50.7264 28.3129C59.0836 28.7415 60.1549 34.0987 60.1549 36.6701C60.155 38.128 58.4329 39.9304 56.9414 41.4914C55.8023 42.6835 54.7978 43.7349 54.7978 44.3844C54.7978 44.8694 54.8426 45.5113 54.8888 46.1724C54.9853 47.5557 55.0877 49.023 54.7978 49.3129ZM49.4407 52.3129C43.6549 52.3129 33.1549 48.2415 32.0835 47.8129C31.0121 47.3844 29.5121 51.2415 30.1549 52.3129C30.5594 52.987 34.866 54.1701 38.111 55.0616L38.111 55.0616L38.1111 55.0616L38.1112 55.0617C40.0237 55.5871 41.5675 56.0112 41.7264 56.1701C41.9214 56.3651 41.7615 57.403 41.5494 58.7793C41.2955 60.4276 40.9667 62.5612 41.0835 64.3129C41.2978 67.5272 44.9407 71.3844 49.4407 71.3844C53.9407 71.3844 56.9407 68.5986 58.2264 66.0272C59.3376 63.8047 58.528 58.0605 58.2878 56.5425C58.2538 56.3278 58.3771 56.1248 58.5852 56.0618C60.4542 55.4963 69.0111 52.8853 69.5835 52.3129C70.2264 51.6701 68.7264 47.8129 67.6549 47.8129C67.3326 47.8129 66.0792 48.2203 64.3266 48.7898C60.254 50.1134 53.4857 52.3129 49.4407 52.3129ZM49.6555 59.813C48.3327 59.813 47.2115 58.8049 46.4303 58.1024C46.0725 57.7807 45.786 57.5231 45.584 57.4558C44.9412 57.2415 43.6555 60.0272 43.6555 62.3844C43.6555 64.7415 45.7983 67.5272 49.6555 67.9558C53.5126 68.3844 55.6555 64.7415 55.8697 62.5987C56.084 60.4558 54.7983 57.6702 54.1555 57.4558C53.8933 57.3684 53.4174 57.7442 52.8148 58.22C51.9398 58.911 50.7976 59.813 49.6555 59.813ZM42.798 39.4559C42.0956 39.4559 41.298 33.4559 43.2266 31.5273C45.1552 29.5988 49.2266 29.3844 49.4409 29.813C49.5244 29.98 49.0877 30.2119 48.4094 30.5722C47.3463 31.1369 45.6897 32.0169 44.5123 33.4559C43.3258 34.906 43.2162 36.8427 43.144 38.1185C43.0988 38.9165 43.0683 39.4559 42.798 39.4559Z" fill="white"/>
</svg>
