<svg width="100" height="100" viewBox="0 0 100 100" fill="none" xmlns="http://www.w3.org/2000/svg">
<circle opacity="0.7" cx="50" cy="50" r="50" fill="#F5E57F"/>
<path fill-rule="evenodd" clip-rule="evenodd" d="M54.775 39.9185H70.4927C70.6116 39.9185 70.708 40.0149 70.708 40.1338V42.1792C70.708 42.2981 70.6116 42.3945 70.4927 42.3945H54.775C54.6561 42.3945 54.5597 42.2981 54.5597 42.1792V40.1338C54.5597 40.0149 54.6561 39.9185 54.775 39.9185ZM63.1877 43.4711H70.708C71.1387 43.4711 71.354 45.7319 71.354 47.1314C71.354 48.443 70.2192 63.9392 70.0767 65.8796C70.0685 65.9921 69.9748 66.0787 69.8621 66.0787H65.5064C65.4017 66.0787 65.3122 66.0034 65.2943 65.9003L62.834 51.7292C62.7931 51.4937 62.4562 51.4903 62.4105 51.725L59.6534 65.9045C59.6337 66.0057 59.5451 66.0787 59.442 66.0787H54.7623C54.6485 66.0787 54.5544 65.9908 54.5474 65.8772C54.4284 63.92 53.4832 48.3419 53.4832 47.1314C53.4832 45.8395 53.4832 43.4711 53.9138 43.4711H61.6172L59.6064 46.3959C59.438 46.6409 59.5 46.976 59.745 47.1444C59.99 47.3128 60.3251 47.2508 60.4935 47.0058L62.3969 44.2372L64.115 46.9861C64.2726 47.2382 64.6047 47.3149 64.8568 47.1573C65.1089 46.9997 65.1855 46.6677 65.028 46.4156L63.1877 43.4711ZM59.024 66.94H55.2505C55.1155 66.94 55.0137 67.0629 55.039 67.1956L55.3876 69.0257C55.407 69.1273 55.4957 69.2008 55.5991 69.2008H58.5882C58.6879 69.2008 58.7746 69.1323 58.7977 69.0353L59.2334 67.2052C59.2656 67.0699 59.163 66.94 59.024 66.94ZM65.8008 66.94H69.4909C69.6219 66.94 69.7226 67.056 69.704 67.1857L69.4426 69.0159C69.4274 69.122 69.3366 69.2008 69.2294 69.2008H66.1494C66.046 69.2008 65.9572 69.1273 65.9379 69.0257L65.5893 67.1956C65.564 67.0629 65.6657 66.94 65.8008 66.94Z" fill="white"/>
<path fill-rule="evenodd" clip-rule="evenodd" d="M32.8133 34.9129C32.275 34.6976 35.9353 30.3914 37.4425 30.1761C38.9497 29.9608 39.9186 29.9609 41.1028 30.1761C42.287 30.3913 45.732 34.5899 45.409 34.9129C45.2933 35.0286 44.9428 34.8542 44.3871 34.5778C43.3916 34.0825 41.7375 33.2595 39.5956 33.1904C37.4289 33.1206 35.4438 33.9582 34.1704 34.4955C33.4824 34.7858 33.0021 34.9885 32.8133 34.9129ZM32.3566 61.0732H38.4114C38.5303 61.0732 38.6267 60.9768 38.6267 60.8579V44.606C38.6267 44.5359 38.5955 44.4723 38.5382 44.432C37.8869 43.9741 33.8463 41.1395 33.3516 40.9416C32.8133 40.7264 31.6291 41.5875 31.4138 42.2335C31.3076 42.5521 31.2022 47.6777 31.4138 52.2454C31.604 56.3508 32.038 60.0286 32.1438 60.8856C32.1571 60.993 32.2484 61.0732 32.3566 61.0732ZM47.7774 55.4751H50.3612C50.4801 55.4751 50.5765 55.3808 50.5765 55.2619V49.4464C50.5765 48.0259 48.7607 44.9194 47.9477 43.5997C47.8353 43.4173 47.5621 43.4981 47.5621 43.7123V55.2598C47.5621 55.3787 47.6585 55.4751 47.7774 55.4751ZM30.5525 56.6593H28.5071C28.3882 56.6593 28.2918 56.7557 28.2918 56.8747V58.2742C28.2918 58.3931 28.3882 58.4895 28.5071 58.4895H30.5525C30.6715 58.4895 30.7679 58.3931 30.7679 58.2742V56.8747C30.7679 56.7557 30.6715 56.6593 30.5525 56.6593ZM47.5621 58.2742V56.8747C47.5621 56.7557 47.6585 56.6593 47.7774 56.6593H49.8229C49.9418 56.6593 50.0382 56.7557 50.0382 56.8747V58.2742C50.0382 58.3931 49.9418 58.4895 49.8229 58.4895H47.7774C47.6585 58.4895 47.5621 58.3931 47.5621 58.2742ZM30.2296 43.9332V55.2598C30.2296 55.3787 30.1332 55.4751 30.0143 55.4751H27.8612C27.7422 55.4751 27.6458 55.3788 27.6458 55.2599V49.4464C27.6458 48.6386 29.1004 45.4067 29.8268 43.8431C29.9233 43.6353 30.2296 43.7041 30.2296 43.9332ZM39.5956 44.5941V60.8579C39.5956 60.9768 39.692 61.0732 39.8109 61.0732H46.0699C46.1828 61.0732 46.2764 60.9865 46.2842 60.8739C46.3461 59.9762 46.5973 56.1809 46.7009 52.2454C46.8256 47.5066 46.7561 42.5646 46.7009 42.2335C46.5932 41.5876 45.732 40.9416 44.7631 40.9416C43.8701 40.9416 40.2339 43.9592 39.6694 44.4322C39.6209 44.4729 39.5956 44.5308 39.5956 44.5941ZM36.6889 34.3747C35.1817 34.3747 31.9521 36.0972 32.1674 37.6043C32.3827 39.1114 37.8731 43.8484 38.9497 43.7407C40.0262 43.633 46.3779 39.1114 46.2702 37.6043C46.1626 36.0972 42.5023 34.3747 41.1028 34.3747H36.6889ZM41.5145 53.8604C41.7521 53.85 41.9531 54.0343 41.9634 54.2719C42.0108 55.3618 42.5241 56.0556 43.1082 56.4878C43.7124 56.9349 44.3773 57.0896 44.6552 57.0896C44.8931 57.0896 45.0859 57.2824 45.0859 57.5203C45.0859 57.7581 44.8931 57.9509 44.6552 57.9509C44.1796 57.9509 43.3374 57.7288 42.5959 57.1801C41.8342 56.6165 41.1633 55.6954 41.103 54.3093C41.0927 54.0717 41.2769 53.8707 41.5145 53.8604ZM33.5482 56.9824C33.3106 56.9928 33.1263 57.1938 33.1367 57.4314C33.147 57.669 33.348 57.8532 33.5856 57.8429C34.9717 57.7826 35.8928 57.1117 36.4564 56.35C37.0051 55.6085 37.2272 54.7663 37.2272 54.2906C37.2272 54.0528 37.0344 53.86 36.7966 53.86C36.5587 53.86 36.3659 54.0528 36.3659 54.2906C36.3659 54.5686 36.2112 55.2335 35.7641 55.8377C35.3319 56.4218 34.6381 56.9351 33.5482 56.9824Z" fill="white"/>
</svg>
