<svg width="100" height="100" viewBox="0 0 100 100" fill="none" xmlns="http://www.w3.org/2000/svg">
<circle opacity="0.7" cx="50" cy="50" r="50" fill="#7FC8F5"/>
<path d="M32.3846 41.6576C30.9084 41.2885 27.2178 35.3835 27.9559 33.1692C28.694 30.9548 38.6587 27.6332 40.1349 28.0023C41.6112 28.3714 44.9327 36.1217 50.4687 36.4907C56.0046 36.8598 57.4808 28.7404 60.0643 28.0023C62.6477 27.2642 72.2433 32.431 72.2433 34.2763C72.2433 36.1217 69.2908 41.6576 67.4455 41.6576C65.6002 41.6576 64.1239 39.0741 63.3858 39.4432C62.6477 39.8123 65.9693 48.6698 65.2311 54.9438C64.493 61.2179 63.3858 68.9681 61.9096 70.0753C60.4333 71.1825 56.0046 71.1825 54.5283 70.0753C53.0521 68.9682 53.0521 58.2654 50.4687 58.2654C47.8852 58.2654 47.1471 69.3372 45.6709 70.8135C44.1946 72.2897 39.7659 71.1825 39.0278 70.8135C38.2896 70.4444 35.3371 60.1107 35.3371 56.051C35.3371 51.9913 37.5515 39.8123 37.1824 39.4432C36.8134 39.0742 33.8609 42.0266 32.3846 41.6576Z" fill="white"/>
<path d="M37.6836 63.1797H47.2792M53.5532 63.1797H63.5179" stroke="#7FC8F5" stroke-width="1.5" stroke-linecap="round"/>
</svg>
