<svg width="86" height="85" viewBox="0 0 86 85" fill="none" xmlns="http://www.w3.org/2000/svg">
<path d="M16.0242 28.3071C13.7327 27.7343 8.0041 18.5685 9.14982 15.1313C10.2956 11.6941 25.7628 6.53833 28.0543 7.11119C30.3457 7.68406 35.5015 19.7142 44.0945 20.287C52.6874 20.8599 54.9788 8.25693 58.9889 7.11119C62.9989 5.96546 77.8934 13.9855 77.8934 16.8499C77.8934 19.7142 73.3105 28.3071 70.4461 28.3071C67.5818 28.3071 65.2904 24.2971 64.1447 24.8699C62.9989 25.4428 68.1547 39.1915 67.009 48.9302C65.8632 58.6688 64.1447 70.699 61.8532 72.4175C59.5618 74.1361 52.6874 74.1361 50.3959 72.4175C48.1045 70.699 48.1045 54.0859 44.0945 54.0859C40.0844 54.0859 38.9387 71.2718 36.6472 73.5633C34.3558 75.8547 27.4814 74.1361 26.3357 73.5633C25.19 72.9904 20.6071 56.9503 20.6071 50.6488C20.6071 44.3473 24.0443 25.4428 23.4714 24.8699C22.8985 24.2971 18.3156 28.88 16.0242 28.3071Z" fill="#8E99A6"/>
<path d="M24.25 61.7158H39.1444M48.8831 61.7158H64.3504" stroke="#FFC107" stroke-width="1.14573" stroke-linecap="round"/>
</svg>
