<svg width="100" height="100" viewBox="0 0 100 100" fill="none" xmlns="http://www.w3.org/2000/svg">
<circle opacity="0.7" cx="50" cy="50" r="50" fill="#F57FAC"/>
<path d="M50.9999 43.048C50.6902 42.8934 50.9027 40.4507 50.9186 40.2725C50.9193 40.2651 50.921 40.2595 50.9247 40.253C51.3426 39.5238 53.8405 37.7682 54.1606 36.9944C54.476 36.2318 53.7854 29.2783 54.4431 28.6146C54.4635 28.594 54.4915 28.5987 54.507 28.6231C54.8626 29.1844 58.9068 35.5635 59.5981 36.4852C60.2973 37.4175 64.4262 41.955 64.6999 42.2555C64.7095 42.2661 64.7148 42.2802 64.7091 42.2932C64.4992 42.7692 57.919 40.5264 56.6249 40.2623C55.3124 39.9944 52.5802 42.887 52.2588 43.048C51.9374 43.209 51.3213 43.2084 50.9999 43.048Z" fill="white"/>
<path d="M50.1695 40.5301C50.2051 40.8143 50.1934 41.83 50.1816 42.4813C50.176 42.7891 49.9144 43.0282 49.6069 43.0122C47.8463 42.9204 42.4806 42.7997 41.1427 44.6283C39.5356 46.825 37.7677 52.3156 37.2856 53.3337C36.8928 54.1632 35.1842 55.8991 34.5646 56.5139C34.447 56.6306 34.2536 56.6111 34.1598 56.4746L33.8687 56.0512C33.7989 55.9497 33.8067 55.8142 33.8869 55.7207C34.3354 55.1985 35.7521 53.4958 36.1338 52.3959C36.5877 51.088 37.2811 47.3581 37.2856 47.3338C37.2857 47.3331 37.2854 47.3344 37.2856 47.3336C37.2912 47.3095 38.3902 42.5622 40.9017 41.0391C43.4195 39.512 47.4106 38.8959 48.3749 39.0837C49.3392 39.2715 50.116 40.1018 50.1695 40.5301Z" fill="white"/>
<path d="M52.2588 44.8962V47.2801C52.2588 47.3097 52.2348 47.3337 52.2052 47.3337H44.9731C44.9435 47.3337 44.9195 47.3102 44.9195 47.2806V44.8961C44.9195 44.4523 45.2793 44.0926 45.7231 44.0926H51.4552C51.899 44.0926 52.2588 44.4524 52.2588 44.8962Z" fill="white"/>
<path d="M44.5713 48.2176C45.5892 48.2176 51.6427 48.084 52.5802 48.2176C53.5177 48.3513 54.5624 50.4411 54.5624 50.923V52.7181C54.5624 52.866 54.4425 52.9855 54.2945 52.9855H51.5624C51.4144 52.9855 51.2945 53.1054 51.2945 53.2533V53.3873C51.2945 53.5352 51.4144 53.6551 51.5624 53.6551H54.2945C54.4425 53.6551 54.5624 53.7751 54.5624 53.923V56.0926C54.5624 56.2406 54.4425 56.3605 54.2945 56.3605H51.5624C51.4144 56.3605 51.2945 56.4804 51.2945 56.6283V56.8158C51.2945 56.9638 51.4144 57.0837 51.5624 57.0837H54.2945C54.4425 57.0837 54.5624 57.2036 54.5624 57.3516V59.5212C54.5624 59.6691 54.4425 59.7891 54.2945 59.7891H51.5624C51.4144 59.7891 51.2945 59.909 51.2945 60.0569V60.2444C51.2945 60.3923 51.4144 60.5123 51.5624 60.5123H54.2945C54.4425 60.5123 54.5624 60.6322 54.5624 60.7801V63.0569C54.5624 63.2048 54.4425 63.3248 54.2945 63.3248H51.5624C51.4144 63.3248 51.2945 63.4447 51.2945 63.5926V63.7533C51.2945 63.9013 51.4144 64.0212 51.5624 64.0212H54.2945C54.4425 64.0212 54.5624 64.1411 54.5624 64.2891V66.4051C54.5624 66.5531 54.4425 66.673 54.2945 66.673H51.5624C51.4144 66.673 51.2945 66.7929 51.2945 66.9408V67.0748C51.2945 67.2227 51.4144 67.3426 51.5624 67.3426H54.2945C54.4425 67.3426 54.5624 67.4621 54.5624 67.61V69.2176C54.5624 69.6727 53.5445 70.7176 52.9285 70.7176C52.3124 70.7176 44.8927 70.8518 44.1427 70.7176C43.3927 70.5834 42.7499 69.4316 42.6963 68.3069C42.6427 67.1822 42.7231 51.6727 42.6963 51.0837C42.6695 50.4947 43.5535 48.2176 44.5713 48.2176Z" fill="white"/>
<path d="M61.0445 34.9051C60.5624 34.2891 55.4731 28.0748 55.232 28.2355C54.991 28.3962 59.5713 35.0125 59.9999 35.5212C60.4285 36.0299 64.9552 41.7087 65.2499 41.548C65.5445 41.3873 61.5267 35.5212 61.0445 34.9051Z" fill="white"/>
</svg>
