<svg width="100" height="100" viewBox="0 0 100 100" fill="none" xmlns="http://www.w3.org/2000/svg">
<circle opacity="0.7" cx="50" cy="50" r="50" fill="#F57FAC"/>
<path fill-rule="evenodd" clip-rule="evenodd" d="M49.875 30L33 37.5V48.75C33 59.1562 40.2 68.8875 49.875 71.25C59.55 68.8875 66.75 59.1562 66.75 48.75V37.5L49.875 30ZM50.37 60.5067L50.36 60.5083L50.3008 60.5375L50.2842 60.5408L50.2725 60.5375L50.2133 60.5075C50.2044 60.5053 50.1978 60.5069 50.1933 60.5125L50.19 60.5208L50.1758 60.8775L50.18 60.8942L50.1883 60.905L50.275 60.9667L50.2875 60.97L50.2975 60.9667L50.3842 60.905L50.3942 60.8917L50.3975 60.8775L50.3833 60.5217C50.3811 60.5128 50.3767 60.5078 50.37 60.5067ZM50.59 60.4125L50.5783 60.4142L50.425 60.4917L50.4167 60.5L50.4142 60.5092L50.4292 60.8675L50.4333 60.8775L50.44 60.8842L50.6075 60.9608C50.6181 60.9636 50.6261 60.9614 50.6317 60.9542L50.635 60.9425L50.6067 60.4308C50.6039 60.4203 50.5983 60.4142 50.59 60.4125ZM49.9942 60.4142C49.9905 60.4119 49.9861 60.4112 49.9819 60.4122C49.9777 60.4131 49.9741 60.4156 49.9717 60.4192L49.9667 60.4308L49.9383 60.9425C49.9389 60.9525 49.9436 60.9592 49.9525 60.9625L49.965 60.9608L50.1325 60.8833L50.1408 60.8767L50.1433 60.8675L50.1583 60.5092L50.1558 60.4992L50.1475 60.4908L49.9942 60.4142ZM50.6617 43.3492C50.4275 43.0892 50.0417 42.8642 49.3833 42.8058C45.01 43.0608 41.5417 46.6875 41.5417 51.125C41.5417 55.7275 45.2725 59.4583 49.875 59.4583C54.4775 59.4583 58.2083 55.7275 58.2083 51.125C58.2083 47.44 55.8167 44.3142 52.5017 43.2142C52.7067 43.7342 52.7917 44.3042 52.7917 44.875C52.7917 45.4167 52.6408 45.9476 52.3561 46.4084C52.0713 46.8691 51.6638 47.2415 51.1794 47.4837C50.6949 47.726 50.1525 47.8285 49.6131 47.7799C49.0736 47.7312 48.5583 47.5333 48.125 47.2083C47.9482 47.0757 47.8313 46.8783 47.8 46.6595C47.7846 46.5512 47.7906 46.4409 47.8177 46.3349C47.8449 46.2288 47.8927 46.1292 47.9583 46.0417C48.024 45.9541 48.1063 45.8804 48.2004 45.8246C48.2946 45.7688 48.3988 45.7322 48.5071 45.7167C48.6155 45.7012 48.7258 45.7072 48.8318 45.7344C48.9378 45.7616 49.0375 45.8093 49.125 45.875L49.2333 45.9483C49.4231 46.0618 49.6396 46.123 49.8607 46.1255C50.0817 46.1281 50.2996 46.0719 50.4919 45.9628C50.6842 45.8537 50.8441 45.6955 50.9553 45.5044C51.0666 45.3133 51.1251 45.0961 51.125 44.875C51.125 44.1683 50.9475 43.6667 50.6617 43.3492ZM51.4663 53.6288C51.6863 53.6088 51.9052 53.6769 52.075 53.8183C52.2447 53.9598 52.3512 54.1629 52.3712 54.3829C52.3912 54.6029 52.3231 54.8219 52.1817 54.9917C51.6217 55.6642 50.8117 56.125 49.875 56.125C48.9383 56.125 48.1283 55.6642 47.5683 54.9917C47.4331 54.8212 47.3699 54.6047 47.3922 54.3883C47.4145 54.1719 47.5205 53.9728 47.6876 53.8335C47.8548 53.6942 48.0697 53.6258 48.2866 53.6429C48.5035 53.66 48.7051 53.7613 48.8483 53.925C49.1475 54.2833 49.5133 54.4583 49.875 54.4583C50.2367 54.4583 50.6025 54.2833 50.9017 53.925C51.0432 53.7553 51.2462 53.6488 51.4663 53.6288ZM46.0744 49.8244C46.3089 49.59 46.6268 49.4583 46.9583 49.4583C47.2899 49.4583 47.6078 49.59 47.8422 49.8244C48.0766 50.0589 48.2083 50.3768 48.2083 50.7083C48.2083 51.0399 48.0766 51.3578 47.8422 51.5922C47.6078 51.8266 47.2899 51.9583 46.9583 51.9583C46.6268 51.9583 46.3089 51.8266 46.0744 51.5922C45.84 51.3578 45.7083 51.0399 45.7083 50.7083C45.7083 50.3768 45.84 50.0589 46.0744 49.8244ZM51.9078 49.8244C52.1422 49.59 52.4601 49.4583 52.7917 49.4583C53.1232 49.4583 53.4411 49.59 53.6755 49.8244C53.91 50.0589 54.0417 50.3768 54.0417 50.7083C54.0417 51.0399 53.91 51.3578 53.6755 51.5922C53.4411 51.8266 53.1232 51.9583 52.7917 51.9583C52.4601 51.9583 52.1422 51.8266 51.9078 51.5922C51.6734 51.3578 51.5417 51.0399 51.5417 50.7083C51.5417 50.3768 51.6734 50.0589 51.9078 49.8244Z" fill="white"/>
</svg>
