<svg width="100" height="101" viewBox="0 0 100 101" fill="none" xmlns="http://www.w3.org/2000/svg">
<circle opacity="0.7" cx="50" cy="50.5" r="50" fill="#F57FAC"/>
<circle cx="66.3643" cy="44.5833" r="1.41969" stroke="white" stroke-width="0.860421"/>
<circle cx="30.9148" cy="44.4114" r="1.41969" stroke="white" stroke-width="0.860421"/>
<path d="M58.1364 56.9195L61.8243 52.0563C61.8389 52.037 61.861 52.0248 61.885 52.0226L70.8009 51.2121C70.8976 51.2033 70.9326 51.3364 70.844 51.3762L58.2402 57.05C58.1589 57.0866 58.0825 56.9906 58.1364 56.9195Z" fill="white"/>
<path d="M56.8138 57.3176C57.5083 56.7775 60.1753 52.9497 60.718 52.166C60.7585 52.1076 60.7189 52.0303 60.6479 52.0335C59.3696 52.0901 51.1538 52.4495 50.3606 52.3702C49.5004 52.2842 47.4791 51.6392 47.4782 51.6389L47.4782 51.6388L41.9907 49.8811C41.9781 49.8771 41.9647 49.876 41.9516 49.878L27.9392 51.9819C27.854 51.9947 27.8348 52.1094 27.9137 52.1442C29.2354 52.7267 35.0466 55.2889 36.3788 55.8979C37.8845 56.5863 43.7784 57.8339 45.1551 58.049C46.5317 58.2641 56.0394 57.9199 56.8138 57.3176Z" fill="white"/>
<path d="M27.8755 51.0499L31.0082 46.1034C31.0293 46.0702 31.0702 46.0555 31.1076 46.0677L40.4234 49.118C40.5095 49.1462 40.4992 49.2712 40.4096 49.2848L27.9611 51.181C27.8881 51.1921 27.836 51.1122 27.8755 51.0499Z" stroke="white" stroke-linejoin="round"/>
<path d="M62.7772 50.8852L66.3086 46.1219C66.3386 46.0815 66.3967 46.0753 66.4345 46.1085L71.1157 50.2148C71.1728 50.2649 71.1416 50.3591 71.0658 50.3652L62.8532 51.0222C62.7796 51.0281 62.7332 50.9446 62.7772 50.8852Z" stroke="white" stroke-linejoin="round"/>
</svg>
