<svg width="100" height="100" viewBox="0 0 100 100" fill="none" xmlns="http://www.w3.org/2000/svg">
<circle opacity="0.7" cx="50" cy="50" r="50" fill="#A6F8E2"/>
<path fill-rule="evenodd" clip-rule="evenodd" d="M35.6745 64.9364C35.1512 63.8899 34.1047 46.0992 34.3663 44.5294C34.479 43.8533 35.1255 42.9346 35.8252 41.9404C36.75 40.6262 37.7675 39.1803 37.7675 37.9887C37.7675 37.326 37.715 36.4273 37.6599 35.4835C37.541 33.4464 37.4099 31.1995 37.7675 30.6632C38.2907 29.8783 41.4303 28.0469 42.2152 28.0469C42.4635 28.0469 43 28.3088 43.7335 28.667C45.3181 29.4407 47.8218 30.6632 50.3256 30.6632C52.8294 30.6632 54.9664 29.4407 56.3188 28.667C56.9449 28.3088 57.4028 28.0469 57.6512 28.0469C58.4361 28.0469 62.3605 29.8783 62.3605 30.6632C62.3605 30.8265 62.3265 31.228 62.2797 31.7802C62.1018 33.8807 61.739 38.1628 62.3605 39.8201C62.7981 40.9872 63.8052 42.0729 64.6106 42.9412C65.2496 43.6301 65.7617 44.1822 65.7617 44.5294C65.7616 45.3143 64.7152 63.8899 64.1919 64.9364C63.9302 65.4597 62.6875 65.4597 61.3139 65.4597C59.9404 65.4597 58.4361 65.4597 57.6512 65.9829C56.6106 66.6766 55.9149 68.1752 55.4117 69.259C55.1558 69.8102 54.9497 70.2542 54.7733 70.4306C54.2501 70.9538 45.6163 70.9538 45.0931 70.4306C44.9206 70.2581 44.7765 70.0003 44.5952 69.6759C44.2267 69.0163 43.7044 68.0817 42.4768 67.0294C41.4921 66.1854 39.751 65.9465 38.2702 65.7432C36.9971 65.5685 35.9164 65.4202 35.6745 64.9364ZM43.8939 29.7932C45.6015 30.5729 48.0917 31.7099 50.065 31.71C51.9624 31.71 54.3377 30.5632 55.9779 29.7714C57.0516 29.253 57.8103 28.8867 57.9138 29.0937C58.1755 29.6169 55.5595 33.8031 53.9894 34.8495C52.4193 35.8959 48.7569 35.8959 46.4022 35.1111C44.0476 34.3263 41.4313 29.3554 41.9545 29.0937C42.1489 28.9965 42.8847 29.3325 43.8939 29.7932Z" fill="white"/>
</svg>
