<svg width="100" height="100" viewBox="0 0 100 100" fill="none" xmlns="http://www.w3.org/2000/svg">
<circle opacity="0.7" cx="50" cy="50" r="50" fill="#7FC8F5"/>
<path d="M48.75 44.8631C48.6586 45.0477 48.5239 45.2074 48.3574 45.3285C48.1909 45.4496 47.9975 45.5286 47.7938 45.5587L45.0675 45.9562L47.04 47.8781C47.1873 48.0222 47.2975 48.1997 47.3612 48.3957C47.4249 48.5916 47.4401 48.8 47.4056 49.0031L46.9387 51.7181L49.3763 50.4356C49.559 50.3397 49.7623 50.2896 49.9688 50.2896C50.1752 50.2896 50.3785 50.3397 50.5613 50.4356L52.9988 51.7181L52.5319 49.0031C52.4974 48.8 52.5126 48.5916 52.5763 48.3957C52.64 48.1997 52.7502 48.0222 52.8975 47.8781L54.87 45.9562L52.1456 45.5587C51.9421 45.5288 51.7488 45.4501 51.5823 45.3293C51.4158 45.2085 51.281 45.0492 51.1894 44.865L49.9688 42.3938L48.75 44.8631ZM34.5 35.4375C34.5 34.1943 34.9939 33.002 35.8729 32.1229C36.752 31.2439 37.9443 30.75 39.1875 30.75H60.75C61.3656 30.75 61.9751 30.8712 62.5438 31.1068C63.1125 31.3424 63.6293 31.6877 64.0646 32.1229C64.4998 32.5582 64.8451 33.075 65.0807 33.6437C65.3163 34.2124 65.4375 34.8219 65.4375 35.4375V62.1562C65.4375 62.5292 65.2893 62.8869 65.0256 63.1506C64.7619 63.4143 64.4042 63.5625 64.0312 63.5625H37.3125C37.3125 64.0598 37.51 64.5367 37.8617 64.8883C38.2133 65.24 38.6902 65.4375 39.1875 65.4375H64.0312C64.4042 65.4375 64.7619 65.5857 65.0256 65.8494C65.2893 66.1131 65.4375 66.4708 65.4375 66.8438C65.4375 67.2167 65.2893 67.5744 65.0256 67.8381C64.7619 68.1018 64.4042 68.25 64.0312 68.25H39.1875C37.9443 68.25 36.752 67.7561 35.8729 66.8771C34.9939 65.998 34.5 64.8057 34.5 63.5625V35.4375ZM46.7662 43.14L42.1537 43.8094C41.9186 43.843 41.6976 43.9418 41.5157 44.0946C41.3339 44.2474 41.1985 44.4481 41.1249 44.674C41.0513 44.8998 41.0425 45.1418 41.0994 45.3724C41.1563 45.603 41.2767 45.8131 41.4469 45.9787L44.7844 49.2319L43.9969 53.8256C43.9562 54.0597 43.9819 54.3004 44.071 54.5206C44.1602 54.7408 44.3093 54.9316 44.5014 55.0713C44.6934 55.2111 44.9209 55.2943 45.1578 55.3114C45.3947 55.3285 45.6317 55.2789 45.8419 55.1681L49.9688 52.9988L54.0938 55.1681C54.3038 55.2792 54.5408 55.3292 54.7779 55.3124C55.0149 55.2956 55.2425 55.2127 55.4348 55.0731C55.6271 54.9335 55.7764 54.7428 55.8658 54.5226C55.9552 54.3025 55.9812 54.0616 55.9406 53.8275L55.1531 49.2337L58.4906 45.9787C58.6608 45.8132 58.7812 45.6033 58.8382 45.3728C58.8952 45.1423 58.8865 44.9005 58.8131 44.6747C58.7398 44.4489 58.6046 44.2482 58.423 44.0952C58.2414 43.9423 58.0206 43.8433 57.7856 43.8094L53.1731 43.14L51.1106 38.9587C51.0058 38.7455 50.8434 38.5659 50.6418 38.4403C50.4401 38.3147 50.2073 38.2482 49.9697 38.2482C49.7321 38.2482 49.4993 38.3147 49.2976 38.4403C49.096 38.5659 48.9335 38.7455 48.8288 38.9587L46.7662 43.14Z" fill="white"/>
</svg>
