<svg width="100" height="100" viewBox="0 0 100 100" fill="none" xmlns="http://www.w3.org/2000/svg">
<circle opacity="0.7" cx="50" cy="50" r="50" fill="#D87FF5"/>
<path fill-rule="evenodd" clip-rule="evenodd" d="M35.4788 44.5996H63.8272C64.9259 44.8194 65.1457 47.0169 63.8272 47.0169H60.7507C60.0915 47.0169 60.7507 54.7083 60.7507 54.7083C60.7507 54.7083 62.0693 69.6517 62.0692 70.7505C62.0691 71.8493 60.311 71.8493 59.6519 71.19C59.2896 70.8277 59.2592 68.6732 59.2323 66.7695C59.2103 65.2092 59.1906 63.8173 58.9926 63.7183C58.553 63.4986 40.9726 63.4986 40.5332 63.7183C40.2715 63.8492 40.2436 65.8499 40.2174 67.7257C40.1996 69.0002 40.1826 70.217 40.0937 70.7505C39.8738 72.069 37.6763 71.8493 37.4566 70.7505C37.2369 69.6517 38.7751 54.4886 38.7751 54.4886C38.7751 54.4886 38.9948 47.2367 38.7751 47.0169C38.6171 46.8589 37.3222 46.9282 36.3623 46.9795C35.9876 46.9996 35.6639 47.0169 35.4788 47.0169C34.8196 47.0169 34.38 45.2589 35.4788 44.5996ZM42.0865 55.3487C45.5122 55.2684 57.5409 54.9863 58.1139 55.3683C58.7727 55.8075 58.7731 59.9763 58.7732 60.86V60.8622C58.7733 61.7412 40.7533 61.0819 40.7533 61.0819C40.5335 60.6424 40.7534 55.3683 41.1928 55.3683C41.2503 55.3683 41.571 55.3608 42.0865 55.3487Z" fill="white"/>
<path d="M49.5432 27.8991C38.5554 28.1188 40.0937 41.3041 40.3135 41.7436C40.5332 42.1832 58.7729 41.9634 59.2124 41.7436C59.6519 41.5239 60.5309 27.6793 49.5432 27.8991Z" fill="white"/>
</svg>
