<svg width="100" height="100" viewBox="0 0 100 100" fill="none" xmlns="http://www.w3.org/2000/svg">
<circle opacity="0.7" cx="50" cy="50" r="50" fill="#F5A27F"/>
<path d="M44.4686 36.8366C44.4686 35.8999 45.2279 35.1406 46.1645 35.1406H52.9485C53.8851 35.1406 54.6444 35.8999 54.6444 36.8366V42.9752C54.6444 43.317 54.3439 43.581 54.0048 43.5382C52.8186 43.3886 50.3124 43.0872 49.3681 43.0872C48.4422 43.0872 46.2197 43.3769 45.1148 43.5293C44.7732 43.5764 44.4686 43.3112 44.4686 42.9664V36.8366Z" fill="white"/>
<path d="M52.4881 34.1204H46.7709C46.7678 34.1204 46.7653 34.1186 46.765 34.1155C46.7584 34.0506 46.6892 33.3481 46.7655 33.0388C46.8456 32.7143 46.9658 32.534 47.2062 32.3177C47.4465 32.1014 47.9673 32.1014 48.1676 31.9211C48.3679 31.7408 48.408 31.2 48.3679 30.7674C48.3278 30.3348 48.2077 30.3348 48.0875 29.6137C47.9673 28.8926 48.6083 28.2437 49.6899 28.2437C50.7715 28.2437 51.2522 29.0008 51.132 29.6137C51.0118 30.2266 50.9317 30.6953 50.9317 31.0558C50.9317 31.4164 50.9718 31.813 51.2121 31.9932C51.4525 32.1735 51.813 32.1374 52.0934 32.3177C52.3739 32.498 52.494 32.7503 52.494 33.0388V34.1149C52.494 34.1182 52.4914 34.1204 52.4881 34.1204Z" fill="white"/>
<path fill-rule="evenodd" clip-rule="evenodd" d="M42.7726 43.1118C42.4335 42.7726 38.5326 44.8643 38.25 46.1645C38.25 46.1645 37.176 63.9158 37.1759 65.3856C37.1759 66.4771 37.6747 66.6957 37.9778 66.8286C38.0828 66.8746 38.1643 66.9103 38.1934 66.9685C38.2403 67.0622 38.2095 67.2529 38.1735 67.4762C38.1225 67.7921 38.061 68.1735 38.1934 68.4384C38.4196 68.8906 41.8115 70.6997 49.1042 70.6997C56.397 70.6997 60.2977 68.8906 60.75 68.4384C60.9955 68.1928 60.9578 67.9472 60.9172 67.6836C60.883 67.4616 60.8469 67.2269 60.9761 66.9685C61.1173 66.6862 61.3431 66.4605 61.5338 66.27C61.7249 66.0792 61.8807 65.9235 61.8807 65.7814C61.8807 64.7638 60.8066 45.8253 60.8066 45.8253C60.75 45.4296 57.1319 42.6595 56.397 43.1118C55.929 43.3998 56.9515 44.1924 57.6827 44.7592C58.0995 45.0823 58.4217 45.332 58.3191 45.3731C58.2103 45.4166 57.129 45.2338 55.7209 44.9957C53.4724 44.6156 50.3905 44.0946 49.1043 44.1293C47.3476 44.1768 42.64 45.0218 41.1773 45.2912C41.0617 45.3125 40.9919 45.1622 41.0813 45.0861C41.7261 44.5369 43.0299 43.369 42.7726 43.1118ZM53.0715 61.1401C53.1794 61.0408 53.3887 60.8516 53.5422 60.7132C53.5888 60.6712 53.6609 60.6754 53.7021 60.7229C54.548 61.6992 54.8215 62.3875 54.8151 63.7477C54.8148 63.8095 54.7644 63.8594 54.7026 63.8594H53.9592C53.8995 63.8594 53.8501 63.8129 53.8459 63.7533C53.7715 62.6908 53.5968 62.1343 53.0543 61.2794C53.0257 61.2344 53.0323 61.1761 53.0715 61.1401ZM50.1782 59.0065V59.4222C50.1782 59.4721 50.211 59.516 50.2587 59.5307C51.1868 59.8167 51.685 60.0768 52.417 60.6329C52.4623 60.6673 52.5261 60.6633 52.5663 60.6231L53.0313 60.1581C53.0779 60.1115 53.0748 60.0348 53.0241 59.9926C52.1601 59.274 51.5342 59.0038 50.3 58.8945C50.2344 58.8886 50.1782 58.9406 50.1782 59.0065ZM44.6946 63.8027H45.0903C45.0903 63.8027 45.1468 61.9936 46.6733 60.6369C47.7915 59.6429 48.758 59.5895 49.1949 59.5653C49.3544 59.5565 49.4434 59.5515 49.4434 59.5062V58.8843C49.4434 58.7147 47.7475 58.9975 46.221 60.3542C44.6946 61.7109 44.6946 63.8027 44.6946 63.8027ZM49.4999 67.025C51.1546 67.025 52.4961 65.6835 52.4961 64.0288C52.4961 62.374 51.1546 61.0325 49.4999 61.0325C47.8451 61.0325 46.5036 62.374 46.5036 64.0288C46.5036 65.6835 47.8451 67.025 49.4999 67.025ZM49.4999 67.5903C51.4669 67.5903 53.0614 65.9958 53.0614 64.0288C53.0614 62.0618 51.4669 60.4672 49.4999 60.4672C47.5329 60.4672 45.9383 62.0618 45.9383 64.0288C45.9383 65.9958 47.5329 67.5903 49.4999 67.5903ZM57.7537 63.8594C57.7537 64.1092 57.5512 64.3117 57.3015 64.3117C57.0517 64.3117 56.8492 64.1092 56.8492 63.8594C56.8492 63.6097 57.0517 63.4072 57.3015 63.4072C57.5512 63.4072 57.7537 63.6097 57.7537 63.8594ZM58.0929 63.8594C58.0929 64.2965 57.7386 64.6509 57.3015 64.6509C56.8644 64.6509 56.51 64.2965 56.51 63.8594C56.51 63.4223 56.8644 63.068 57.3015 63.068C57.7386 63.068 58.0929 63.4223 58.0929 63.8594ZM49.4999 66.0076C49.5935 66.0076 49.6695 66.0836 49.6695 66.1772V66.573C49.6695 66.6666 49.5935 66.7426 49.4999 66.7426C49.4062 66.7426 49.3303 66.6666 49.3303 66.573V66.1772C49.3303 66.0836 49.4062 66.0076 49.4999 66.0076ZM49.726 61.3718C49.726 61.2781 49.65 61.2022 49.5564 61.2022C49.4627 61.2022 49.3868 61.2781 49.3868 61.3718V61.7675C49.3868 61.8612 49.4627 61.9371 49.5564 61.9371C49.65 61.9371 49.726 61.8612 49.726 61.7675V61.3718ZM50.9806 65.3981C51.0453 65.3304 51.1527 65.3279 51.2204 65.3925L51.5067 65.6658C51.5744 65.7305 51.5769 65.8378 51.5122 65.9056C51.4475 65.9733 51.3402 65.9758 51.2724 65.9111L50.9862 65.6379C50.9185 65.5732 50.916 65.4659 50.9806 65.3981ZM47.7837 62.0336C47.7159 61.9689 47.6086 61.9714 47.5439 62.0391C47.4792 62.1069 47.4817 62.2142 47.5495 62.2789L47.8357 62.5522C47.9035 62.6169 48.0108 62.6144 48.0755 62.5466C48.1402 62.4789 48.1377 62.3715 48.0699 62.3068L47.7837 62.0336ZM51.5635 63.9855C51.5628 63.8919 51.6382 63.8154 51.7318 63.8147L52.1275 63.8117C52.2212 63.811 52.2977 63.8864 52.2984 63.98C52.2991 64.0737 52.2238 64.1502 52.1301 64.1509L51.7344 64.1539C51.6407 64.1546 51.5642 64.0792 51.5635 63.9855ZM46.9262 63.7941C46.8326 63.7948 46.7572 63.8713 46.7579 63.965C46.7586 64.0586 46.8351 64.134 46.9288 64.1333L47.3245 64.1303C47.4182 64.1296 47.4935 64.0531 47.4928 63.9595C47.4921 63.8658 47.4156 63.7905 47.322 63.7912L46.9262 63.7941ZM50.9737 62.5396C50.9068 62.474 50.9058 62.3666 50.9714 62.2997L51.2485 62.0172C51.3141 61.9504 51.4215 61.9494 51.4884 62.015C51.5552 62.0806 51.5563 62.1879 51.4907 62.2548L51.2135 62.5373C51.1479 62.6041 51.0406 62.6052 50.9737 62.5396ZM47.5656 65.6901C47.5 65.7569 47.5011 65.8643 47.5679 65.9299C47.6348 65.9955 47.7422 65.9945 47.8078 65.9276L48.0849 65.6451C48.1505 65.5783 48.1495 65.4709 48.0826 65.4053C48.0158 65.3397 47.9084 65.3407 47.8428 65.4076L47.5656 65.6901Z" fill="white"/>
</svg>
