<svg width="100" height="100" viewBox="0 0 100 100" fill="none" xmlns="http://www.w3.org/2000/svg">
<circle opacity="0.7" cx="50" cy="50" r="50" fill="#D87FF5"/>
<path d="M56.0098 32.7257C53.4576 32.6972 46.0561 31.1943 45.886 31.7898C45.7158 32.3854 46.5099 40.8362 46.4815 43.5868C46.4531 46.3374 45.0636 53.6824 45.0069 54.0793C44.9502 54.4762 55.9531 54.0793 55.9531 54.0793C55.9531 54.0793 67.0128 54.3061 67.0979 54.0793C67.1829 53.8525 65.8501 45.9404 65.8785 42.8211C65.9068 39.7019 67.2964 32.5272 66.7859 32.2719C66.2755 32.0166 58.5621 32.7541 56.0098 32.7257Z" fill="white"/>
<path d="M45.0069 44.0973C45.0069 41.9136 44.6949 33.9168 44.5248 33.6898C44.3546 33.4629 40.0442 33.6898 38.683 33.6898C37.3218 33.6898 32.7562 32.584 31.9622 32.8391C31.1681 33.0942 32.8413 40.4108 32.7562 43.5868C32.6711 46.7628 31.4801 53.9091 31.6219 54.0793C31.7636 54.2496 43.4472 54.221 43.5606 54.0793C43.6741 53.9376 45.0069 46.2809 45.0069 44.0973Z" fill="white"/>
<path d="M68.6576 55.5256C68.9978 55.554 71.2381 55.951 71.2665 58.2196C71.2949 60.4881 69.1396 60.9988 68.6576 61.027C68.1987 61.0539 38.1253 61.0297 35.0257 61.0272L34.7696 61.027C34.5427 61.0269 34.1741 61.2257 34.2024 61.736C34.2308 62.2463 34.5711 62.3881 34.7696 62.4166C34.9681 62.4451 67.7217 62.4165 68.6576 62.4166C69.5934 62.4167 71.4934 63.3809 71.2665 65.3375C71.0396 67.2941 69.6217 67.748 68.6576 67.833C67.6934 67.918 31.1965 67.8898 30.1756 67.833C29.1547 67.7762 28.0487 67.0674 27.8219 66.0464C27.595 65.0254 27.8219 58.418 27.8219 57.9644C27.8219 57.5107 28.304 55.6108 30.1756 55.5256C32.0472 55.4404 68.3173 55.4971 68.6576 55.5256Z" fill="white"/>
</svg>
