<svg width="100" height="100" viewBox="0 0 100 100" fill="none" xmlns="http://www.w3.org/2000/svg">
<circle opacity="0.7" cx="50" cy="50" r="50" fill="#D87FF5"/>
<path d="M45.9473 51.6296L44.5822 52.452C44.5219 52.4904 44.4588 52.5068 44.393 52.5013C44.3272 52.4959 44.2697 52.4739 44.2203 52.4355C44.171 52.3972 44.1326 52.3493 44.1052 52.2918C44.0778 52.2343 44.0723 52.1699 44.0888 52.0984L44.4506 50.5441L43.2417 49.4997C43.1869 49.4503 43.1527 49.3941 43.1391 49.3309C43.1255 49.2678 43.1295 49.2062 43.1513 49.1461C43.173 49.086 43.2059 49.0366 43.2499 48.998C43.294 48.9595 43.3543 48.9348 43.4309 48.924L45.0263 48.7842L45.643 47.3204C45.6704 47.2546 45.713 47.2053 45.7707 47.1724C45.8283 47.1395 45.8872 47.123 45.9473 47.123C46.0074 47.123 46.0663 47.1395 46.1239 47.1724C46.1816 47.2053 46.2242 47.2546 46.2516 47.3204L46.8684 48.7842L48.4637 48.924C48.5405 48.935 48.6008 48.9597 48.6447 48.998C48.6885 49.0364 48.7214 49.0858 48.7434 49.1461C48.7653 49.2064 48.7695 49.2681 48.7559 49.3313C48.7423 49.3944 48.7079 49.4506 48.6529 49.4997L47.444 50.5441L47.8059 52.0984C47.8223 52.1696 47.8168 52.2341 47.7894 52.2918C47.762 52.3495 47.7236 52.3974 47.6743 52.4355C47.6249 52.4737 47.5674 52.4956 47.5016 52.5013C47.4358 52.507 47.3727 52.4906 47.3124 52.452L45.9473 51.6296Z" fill="white"/>
<g clip-path="url(#clip0_530_459)">
<path d="M58.9999 66.1956L55.6988 68.1842C55.5529 68.277 55.4005 68.3168 55.2414 68.3035C55.0823 68.2903 54.9431 68.2372 54.8238 68.1444C54.7045 68.0516 54.6117 67.9358 54.5454 67.7968C54.4791 67.6579 54.4658 67.502 54.5056 67.3291L55.3806 63.5706L52.4573 61.045C52.3247 60.9257 52.242 60.7897 52.2091 60.6369C52.1762 60.4842 52.186 60.3352 52.2385 60.1899C52.291 60.0446 52.3706 59.9253 52.4772 59.8319C52.5838 59.7386 52.7296 59.679 52.9147 59.653L56.7726 59.3149L58.2641 55.7751C58.3304 55.616 58.4333 55.4967 58.5728 55.4172C58.7122 55.3376 58.8546 55.2979 58.9999 55.2979C59.1452 55.2979 59.2876 55.3376 59.4271 55.4172C59.5665 55.4967 59.6694 55.616 59.7357 55.7751L61.2272 59.3149L65.0851 59.653C65.2707 59.6795 65.4166 59.7391 65.5226 59.8319C65.6287 59.9247 65.7082 60.0441 65.7613 60.1899C65.8143 60.3357 65.8244 60.485 65.7915 60.6377C65.7586 60.7905 65.6756 60.9262 65.5425 61.045L62.6192 63.5706L63.4942 67.3291C63.534 67.5015 63.5207 67.6574 63.4545 67.7968C63.3882 67.9363 63.2954 68.0522 63.176 68.1444C63.0567 68.2367 62.9175 68.2897 62.7584 68.3035C62.5993 68.3173 62.4469 68.2775 62.301 68.1842L58.9999 66.1956Z" fill="white"/>
</g>
<g clip-path="url(#clip1_530_459)">
<path d="M66.9312 42.785C66.6373 41.2955 65.8354 39.9543 64.6624 38.9903C63.4895 38.0264 62.0182 37.4997 60.5 37.5C57.9713 37.5 55.775 38.935 54.6813 41.035C53.3952 41.174 52.2059 41.7833 51.3418 42.7459C50.4777 43.7085 49.9998 44.9565 50 46.25C50 49.1462 52.3537 51.5 55.25 51.5H66.625C69.04 51.5 71 49.54 71 47.125C71 44.815 69.2063 42.9425 66.9312 42.785Z" fill="white"/>
</g>
<path d="M41.7384 43.1663C44.3684 43.1663 46.5001 41.0597 46.5001 38.4605C46.5001 36.4005 45.1609 34.6497 43.2959 34.0122C43.0309 31.6613 41.0126 29.833 38.5634 29.833C35.9334 29.833 33.8018 31.9397 33.8018 34.5388C33.8018 35.1138 33.9059 35.6638 34.0968 36.1738C33.8688 36.1298 33.6372 36.1075 33.4051 36.1072C31.4326 36.108 29.8334 37.688 29.8334 39.6372C29.8334 41.5863 31.4326 43.1663 33.4051 43.1663H41.7384Z" fill="white"/>
<path d="M39.0001 48.9922C37.1898 48.9925 35.4136 49.4843 33.8608 50.415C32.3081 51.3456 31.0371 52.6804 30.1835 54.2768C29.3299 55.8732 28.9256 57.6713 29.0138 59.4795C29.1021 61.2876 29.6794 63.0379 30.6844 64.5436C31.6894 66.0493 33.0842 67.254 34.7202 68.0291C36.3562 68.8043 38.1718 69.1208 39.9736 68.9449C41.7753 68.769 43.4955 68.1073 44.9506 67.0304C46.4058 65.9535 47.5413 64.5018 48.2361 62.8302C48.5771 62.0102 47.7601 61.1862 46.9381 61.5202C45.5293 62.0909 43.965 62.1498 42.5173 61.6866C41.0695 61.2235 39.8299 60.2676 39.0139 58.9852C38.1978 57.7028 37.8571 56.175 38.0508 54.6673C38.2445 53.1597 38.9604 51.7677 40.0741 50.7332L40.1511 50.6532C40.7021 50.0232 40.2641 49.0002 39.3931 49.0002H39.1271L39.0591 48.9942L39.0001 48.9922Z" fill="white"/>
<defs>
<clipPath id="clip0_530_459">
<rect width="14" height="14" fill="white" transform="translate(52 55)"/>
</clipPath>
<clipPath id="clip1_530_459">
<rect width="21" height="21" fill="white" transform="translate(50 34)"/>
</clipPath>
</defs>
</svg>
