<svg width="100" height="100" viewBox="0 0 100 100" fill="none" xmlns="http://www.w3.org/2000/svg">
<circle opacity="0.7" cx="50" cy="50" r="50" fill="#D87FF5"/>
<path fill-rule="evenodd" clip-rule="evenodd" d="M34 37.0205C34 35.3523 35.3523 34 37.0205 34H63.024C64.6922 34 66.0445 35.3523 66.0445 37.0205V63.1744C66.0445 64.8426 64.6922 66.1949 63.024 66.1949H37.0205C35.3523 66.1949 34 64.8426 34 63.1744V37.0205ZM36.8586 39.577C36.8586 37.9088 38.2109 36.5565 39.8791 36.5565H59.8648C61.533 36.5565 62.8853 37.9089 62.8853 39.577V47.9786C62.8853 49.6468 61.533 50.9991 59.8648 50.9991H39.8791C38.2109 50.9991 36.8586 49.6468 36.8586 47.9786V39.577ZM59.3783 56.8665C58.8223 56.8665 58.3715 57.3173 58.3715 57.8733V61.1252C58.3715 61.6813 58.8223 62.132 59.3783 62.132H62.6302C63.1862 62.132 63.637 61.6813 63.637 61.1252V57.8733C63.637 57.3173 63.1862 56.8665 62.6302 56.8665H59.3783ZM36.1064 57.8733C36.1064 57.3173 36.5571 56.8665 37.1132 56.8665H40.3651C40.9211 56.8665 41.3719 57.3173 41.3719 57.8733V61.1252C41.3719 61.6813 40.9211 62.132 40.3651 62.132H37.1132C36.5571 62.132 36.1064 61.6813 36.1064 61.1252V57.8733ZM50.0974 64.2379C53.2962 64.2379 55.8894 61.6447 55.8894 58.4458C55.8894 55.247 53.2962 52.6538 50.0974 52.6538C46.8985 52.6538 44.3053 55.247 44.3053 58.4458C44.3053 61.6447 46.8985 64.2379 50.0974 64.2379Z" fill="white"/>
</svg>
