<svg width="100" height="100" viewBox="0 0 100 100" fill="none" xmlns="http://www.w3.org/2000/svg">
<circle opacity="0.7" cx="50" cy="50" r="50" fill="#F5E57F"/>
<path d="M60.75 57.9375L66.375 30.75C66.375 30.75 56.5312 32.625 56.5312 36.375C56.5312 38.7188 60.2812 40.125 58.875 41.5312C57.4688 42.9375 52.3125 44.3438 52.3125 48.0938C52.3125 50.4375 53.85 52.1812 52.3125 53.7188C50.9062 55.125 49.5 54.3881 47.1562 53.7188C44.5312 52.9688 39.1875 52.3125 37.3125 52.7812C35.4375 53.25 33.5625 54.1875 33.5625 57C33.5625 58.5469 34.5 60.2812 36.8438 60.75C39.1875 61.2188 42 58.875 45.75 58.875C49.5 58.875 54.1875 61.6875 57 61.6875C59.8125 61.6875 60.75 57.9375 60.75 57.9375Z" fill="white" stroke="white" stroke-width="2" stroke-linejoin="round"/>
<path d="M37.3125 60.75L34.5 68.25H65.4375L59.8125 60.75" stroke="white" stroke-width="2" stroke-linejoin="round"/>
</svg>
