<svg width="100" height="100" viewBox="0 0 100 100" fill="none" xmlns="http://www.w3.org/2000/svg">
<circle opacity="0.7" cx="50" cy="50" r="50" fill="#F57FAC"/>
<path d="M27.4282 36.2585C27.3232 34.3693 28.7879 32.7611 30.6787 32.6897L66.0483 31.354C67.882 31.2847 69.4367 32.6899 69.5527 34.5212L71.4342 64.2413C71.5576 66.1901 70.0102 67.8385 68.0575 67.8385H32.3833C30.5876 67.8385 29.1047 66.4357 29.0051 64.6427L27.4282 36.2585Z" fill="white"/>
<path d="M38.0463 32.8029V36.9772C38.0463 37.0461 37.9796 37.0954 37.9138 37.0748C37.5783 36.9702 36.6936 36.7041 36.2869 36.677C35.7794 36.6431 33.9523 37.3198 34.1215 39.1976C34.2907 41.0755 35.7286 41.2954 36.2869 41.2615C36.7408 41.234 37.8211 40.8039 38.209 40.6441C38.2764 40.6163 38.3508 40.6657 38.3508 40.7386V44.6788M38.3508 44.6788L28.3019 44.9833M38.3508 44.6788L42.5042 44.4242C42.5968 44.4185 42.6387 44.2966 42.5728 44.2313C42.2715 43.9327 41.7203 43.2852 41.6835 42.5134C41.6328 41.4476 42.5125 40.4495 43.7982 40.3142C45.0839 40.1788 46.3696 41.4476 46.4034 42.2427C46.4303 42.8739 45.8816 43.8674 45.6541 44.2503C45.6131 44.3194 45.6631 44.4082 45.7434 44.4082H50.4128M38.3508 44.6788L38.5605 48.7766C38.5648 48.8595 38.6619 48.9047 38.7288 48.8557C39.1264 48.565 40.193 47.8561 40.9899 47.9777C41.988 48.13 42.7662 49.2465 42.7662 50.4138C42.7662 51.5811 41.9373 52.4777 40.9899 52.63C40.2519 52.7486 39.2777 52.1074 38.8832 51.8183C38.8129 51.7668 38.7101 51.8187 38.7126 51.9058L38.8414 56.3179M50.4128 44.4082L50.2041 39.5751C50.2001 39.4829 50.0801 39.4387 50.0135 39.5028C49.7135 39.7917 49.071 40.3142 48.3489 40.3142C47.3508 40.3142 46.1328 39.8067 45.9128 38.2503C45.6929 36.6939 46.911 35.8311 47.8922 35.6788C48.6591 35.5598 49.6328 36.0713 50.0214 36.3004C50.0933 36.3427 50.187 36.2882 50.1828 36.2049L49.9899 32.3461M50.4128 44.4082L58.2455 44.0021M50.4128 44.4082L50.7052 48.7934C50.7105 48.8729 50.8011 48.917 50.8674 48.8728C51.2492 48.6178 52.2764 47.9777 52.9674 47.9777C53.8301 47.9777 54.8452 48.9758 54.9298 50.4138C55.0143 51.8518 54.1177 52.63 52.9674 52.63C52.09 52.63 51.2421 52.1773 50.8891 51.9624C50.8173 51.9188 50.7216 51.9727 50.7246 52.0566L50.8696 56.1488M58.2455 44.0021L59.0914 56.1488M58.2455 44.0021C58.2455 44.0021 58.1857 43.1431 58.0982 41.8875M59.0914 56.1488C59.0914 56.1488 54.0804 56.1488 50.8696 56.1488M59.0914 56.1488C59.0914 56.1488 59.3283 64.4382 59.6328 65.3349C59.9373 66.2315 61.3752 67.4495 61.3752 67.4495M50.8696 56.1488C50.9696 57.6714 51.1168 59.9121 51.1611 60.5856C51.1665 60.6684 51.265 60.7121 51.3322 60.6634C51.678 60.4127 52.5392 59.8613 53.3903 59.8875C54.4899 59.9213 55.4373 60.7841 55.4542 62.2221C55.4711 63.66 54.6083 64.2691 53.8301 64.4721C53.1852 64.6403 51.7848 64.1346 51.3243 63.9565C51.2543 63.9294 51.1795 63.9843 51.1842 64.0592L51.394 67.4495M50.8696 56.1488C49.2744 56.2045 46.924 56.2867 46.2307 56.311C46.1477 56.3139 46.0951 56.221 46.1391 56.1506C46.3492 55.8146 46.7998 55.0411 46.8771 54.4739C46.9786 53.7296 46.0313 52.2916 44.5256 52.2578C43.02 52.2239 42.1572 53.7465 42.208 54.4739C42.2469 55.0325 42.7148 55.8205 42.9299 56.1563C42.9742 56.2253 42.9245 56.3179 42.8424 56.3179H38.8414M38.8414 56.3179L39.099 60.8249C39.104 60.913 39.0006 60.9678 38.9292 60.9159C38.5636 60.6503 37.7214 60.0986 37.0651 60.1243C36.2023 60.1582 34.6628 61.0548 34.8151 62.4927C34.9674 63.9307 35.9316 64.692 37.0651 64.7089C37.9132 64.7216 38.7045 64.1564 39.0492 63.8711C39.1185 63.8137 39.2305 63.863 39.2305 63.953V67.4495M38.8414 56.3179L28.9448 56.6224M57.6196 35.0191C58.0425 35.6958 59.2437 36.3555 59.988 36.4063C60.7324 36.457 64.9279 36.3724 65.6722 36.1864C66.4166 36.0003 67.8884 35.8198 68.5989 35.1882C69.3095 34.5567 69.0049 33.7333 69.0049 33.7333M57.6196 35.0191C57.5496 34.812 57.5051 34.4439 57.5051 34.4439M57.6196 35.0191C57.7672 37.1376 57.9648 39.9733 58.0982 41.8875M60.4786 31.957C59.3113 32.3292 58.6516 32.3292 58.2794 32.7691C57.9742 33.1297 57.5051 34.4439 57.5051 34.4439M67.8546 32.2615C67.8546 32.2615 68.2606 33.6149 67.4147 34.0209C66.5689 34.427 61.7136 34.9006 61.1046 34.9345C60.4955 34.9683 59.5651 34.7991 59.4636 34.2916C59.3621 33.7841 59.9711 33.3442 60.7324 33.0567C61.4937 32.7691 65.4523 32.7691 65.4523 32.7691M57.5051 34.4439C57.5051 34.4439 56.0632 34.1563 55.5895 34.2916M55.5895 34.2916C54.4899 34.4439 53.035 35.3236 52.5444 36.4063C52.0538 37.489 51.8846 38.5886 52.2737 39.9758C52.6628 41.363 55.3527 42.2935 55.3527 42.2935M55.5895 34.2916C55.5895 34.2916 54.3038 36.4063 54.2192 37.9288C54.1346 39.4514 55.3527 42.2935 55.3527 42.2935M55.3527 42.2935C56.4692 42.4796 58.0982 41.8875 58.0982 41.8875" stroke="#F57FAC" stroke-width="1.1" stroke-linecap="round"/>
</svg>
