<svg width="100" height="100" viewBox="0 0 100 100" fill="none" xmlns="http://www.w3.org/2000/svg">
<circle opacity="0.7" cx="50" cy="50" r="50" fill="#D87FF5"/>
<path d="M30 46.9999C30.0007 46.5634 30.0966 46.1323 30.281 45.7367C30.4655 45.341 30.734 44.9904 31.068 44.7093C31.4019 44.4282 31.7932 44.2233 32.2145 44.1091C32.6358 43.9948 33.0769 43.9738 33.5072 44.0476C33.9374 44.1214 34.3463 44.2882 34.7055 44.5363C35.0646 44.7845 35.3652 45.108 35.5864 45.4843C35.8076 45.8607 35.944 46.2807 35.986 46.7152C36.0281 47.1497 35.9749 47.5881 35.83 47.9999H40C40.2652 47.9999 40.5196 48.1053 40.7071 48.2928C40.8946 48.4804 41 48.7347 41 48.9999V53.1699C41.4524 53.0105 41.9364 52.9619 42.4115 53.0282C42.8866 53.0945 43.3388 53.2737 43.7303 53.5509C44.1218 53.828 44.4412 54.195 44.6616 54.621C44.8819 55.0471 44.997 55.5198 44.997 55.9994C44.997 56.4791 44.8819 56.9518 44.6616 57.3778C44.4412 57.8039 44.1218 58.1708 43.7303 58.448C43.3388 58.7251 42.8866 58.9044 42.4115 58.9706C41.9364 59.0369 41.4524 58.9883 41 58.8289V62.9999C41 63.2651 40.8946 63.5195 40.7071 63.707C40.5196 63.8946 40.2652 63.9999 40 63.9999H26C25.7348 63.9999 25.4804 63.8946 25.2929 63.707C25.1054 63.5195 25 63.2651 25 62.9999V48.9999C25 48.7347 25.1054 48.4804 25.2929 48.2928C25.4804 48.1053 25.7348 47.9999 26 47.9999H30.17C30.06 47.6869 30 47.3499 30 46.9999Z" fill="white"/>
<path d="M42 27C42.4365 27.0007 42.8676 27.0966 43.2633 27.281C43.6589 27.4655 44.0095 27.734 44.2906 28.068C44.5717 28.4019 44.7766 28.7932 44.8909 29.2145C45.0052 29.6358 45.0262 30.0769 44.9524 30.5072C44.8786 30.9374 44.7118 31.3463 44.4636 31.7055C44.2155 32.0646 43.8919 32.3652 43.5156 32.5864C43.1393 32.8076 42.7192 32.944 42.2847 32.986C41.8502 33.0281 41.4118 32.9749 41 32.83V39C41 39.2652 40.8947 39.5196 40.7071 39.7071C40.5196 39.8946 40.2652 40 40 40H36.874C36.7213 40.0001 36.5707 39.9653 36.4335 39.8981C36.2964 39.831 36.1765 39.7333 36.0829 39.6127C35.9894 39.492 35.9247 39.3515 35.8939 39.202C35.863 39.0524 35.8668 38.8978 35.905 38.75C36.019 38.3068 36.03 37.8434 35.9373 37.3953C35.8447 36.9472 35.6507 36.5263 35.3703 36.1646C35.0899 35.803 34.7305 35.5103 34.3196 35.309C33.9086 35.1076 33.4571 35.003 32.9995 35.003C32.5419 35.003 32.0904 35.1076 31.6795 35.309C31.2686 35.5103 30.9091 35.803 30.6287 36.1646C30.3483 36.5263 30.1544 36.9472 30.0617 37.3953C29.969 37.8434 29.9801 38.3068 30.094 38.75C30.1322 38.8978 30.136 39.0523 30.1052 39.2017C30.0744 39.3512 30.0098 39.4916 29.9164 39.6123C29.823 39.7329 29.7032 39.8306 29.5662 39.8978C29.4292 39.965 29.2786 40 29.126 40H26C25.7348 40 25.4804 39.8946 25.2929 39.7071C25.1054 39.5196 25 39.2652 25 39V23C25 22.7348 25.1054 22.4804 25.2929 22.2929C25.4804 22.1054 25.7348 22 26 22H40C40.2652 22 40.5196 22.1054 40.7071 22.2929C40.8947 22.4804 41 22.7348 41 23V27.17C41.313 27.06 41.65 27 42 27Z" fill="white"/>
<path d="M62 39.0001C61.9993 39.4366 61.9034 39.8677 61.719 40.2633C61.5345 40.659 61.266 41.0096 60.932 41.2907C60.5981 41.5718 60.2068 41.7767 59.7855 41.8909C59.3642 42.0052 58.9231 42.0262 58.4928 41.9524C58.0626 41.8786 57.6537 41.7118 57.2945 41.4637C56.9354 41.2155 56.6348 40.892 56.4136 40.5157C56.1924 40.1393 56.056 39.7193 56.014 39.2848C55.9719 38.8503 56.0251 38.4119 56.17 38.0001H50C49.7348 38.0001 49.4804 37.8947 49.2929 37.7072C49.1054 37.5196 49 37.2653 49 37.0001V33.8741C48.9999 33.7214 49.0347 33.5707 49.1019 33.4336C49.169 33.2965 49.2667 33.1765 49.3873 33.083C49.508 32.9894 49.6485 32.9248 49.798 32.8939C49.9476 32.8631 50.1022 32.8669 50.25 32.9051C50.6932 33.019 51.1566 33.0301 51.6047 32.9374C52.0528 32.8447 52.4737 32.6508 52.8354 32.3703C53.197 32.0899 53.4897 31.7305 53.691 31.3196C53.8924 30.9087 53.997 30.4572 53.997 29.9996C53.997 29.542 53.8924 29.0904 53.691 28.6795C53.4897 28.2686 53.197 27.9092 52.8354 27.6288C52.4737 27.3484 52.0528 27.1544 51.6047 27.0618C51.1566 26.9691 50.6932 26.9801 50.25 27.0941C50.1022 27.1322 49.9477 27.1361 49.7983 27.1053C49.6488 27.0745 49.5084 27.0099 49.3877 26.9165C49.2671 26.823 49.1694 26.7032 49.1022 26.5662C49.035 26.4292 49 26.2787 49 26.1261V23.0001C49 22.7349 49.1054 22.4805 49.2929 22.293C49.4804 22.1054 49.7348 22.0001 50 22.0001L66 22.0001C66.2652 22.0001 66.5196 22.1054 66.7071 22.293C66.8946 22.4805 67 22.7349 67 23.0001V37.0001C67 37.2653 66.8946 37.5196 66.7071 37.7072C66.5196 37.8947 66.2652 38.0001 66 38.0001H61.83C61.94 38.3131 62 38.6501 62 39.0001Z" fill="white"/>
<g clip-path="url(#clip0_549_310)">
<path d="M71.0973 71.0064L70.159 69.8361L73.2798 67.334C73.6936 67.0022 73.9587 66.5196 74.0167 65.9923C74.0747 65.4651 73.9209 64.9364 73.5891 64.5225L71.087 61.4017L72.2573 60.4634C72.7746 60.0487 73.106 59.4454 73.1785 58.7864C73.251 58.1273 73.0588 57.4664 72.644 56.9491C72.2293 56.4318 71.626 56.1004 70.9669 56.0279C70.3079 55.9554 69.647 56.1477 69.1297 56.5624L67.9594 57.5007L65.4573 54.3799C65.1255 53.9661 64.6429 53.701 64.1156 53.6429C63.5884 53.5849 63.0597 53.7387 62.6458 54.0705L59.681 56.4475L60.6193 57.6179C61.5576 58.7882 61.372 60.475 60.2017 61.4133C59.0314 62.3516 57.3445 62.166 56.4062 60.9957L55.4679 59.8254L52.5032 62.2024C52.0893 62.5342 51.8242 63.0168 51.7662 63.5441C51.7082 64.0713 51.862 64.6 52.1938 65.0139L54.5708 67.9786L55.7411 67.0403C56.9114 66.102 58.5983 66.2877 59.5366 67.458C60.4749 68.6283 60.2893 70.3151 59.119 71.2534L57.9487 72.1917L60.3257 75.1565C60.6575 75.5703 61.1401 75.8354 61.6673 75.8934C62.1946 75.9514 62.7233 75.7976 63.1371 75.4658L66.258 72.9637L67.1962 74.134C67.611 74.6513 68.2143 74.9827 68.8733 75.0552C69.5324 75.1277 70.1933 74.9355 70.7106 74.5207C71.2279 74.106 71.5592 73.5027 71.6317 72.8436C71.7043 72.1846 71.512 71.5237 71.0973 71.0064Z" fill="white"/>
</g>
<defs>
<clipPath id="clip0_549_310">
<rect width="24" height="24" fill="white" transform="translate(66.8562 48.1313) rotate(51.2791)"/>
</clipPath>
</defs>
</svg>
