<svg width="100" height="100" viewBox="0 0 100 100" fill="none" xmlns="http://www.w3.org/2000/svg">
<circle opacity="0.7" cx="50" cy="50" r="50" fill="#A6F8E2"/>
<path d="M30.7717 32H27.1888C27.0845 32 27 32.0845 27 32.1888V35.7621C27 35.8825 27.1108 35.9709 27.2271 35.9394C27.7287 35.8033 28.9465 35.417 29.7063 34.7063C30.4735 33.9886 30.8319 32.726 30.9501 32.2194C30.9767 32.1052 30.889 32 30.7717 32Z" fill="white"/>
<path d="M71.9977 35.7941L72.0177 32.2113C72.0183 32.107 71.9343 32.022 71.83 32.0214L68.2568 32.0014C68.1363 32.0008 68.0473 32.1111 68.0782 32.2275C68.2115 32.7298 68.5909 33.9499 69.2974 34.7136C70.0108 35.4848 71.2714 35.8503 71.7773 35.9712C71.8914 35.9985 71.997 35.9114 71.9977 35.7941Z" fill="white"/>
<path fill-rule="evenodd" clip-rule="evenodd" d="M28.878 37.038C29.5049 36.812 30.2686 36.5366 30.7132 36.1578C31.1681 35.7704 31.4155 34.9681 31.6196 34.3061C31.7969 33.7316 31.9415 33.2627 32.1608 33.2627H67.0594C67.2123 33.2627 67.2878 33.5826 67.3925 34.026C67.5463 34.6776 67.7631 35.596 68.3811 36.1578C68.9848 36.7067 69.9077 36.9896 70.5684 37.1922C71.044 37.338 71.3838 37.4422 71.3706 37.5739C71.3414 37.8658 71.3664 55.3499 71.3701 57.8815C71.3704 58.0555 71.2294 58.1858 71.0554 58.1858H28.1643C27.9905 58.1858 27.8496 58.0558 27.8496 57.882V37.5739C27.8496 37.4089 28.3071 37.2439 28.878 37.038ZM35.8214 38.1718H63.6815C65.3384 38.1718 66.6815 39.5149 66.6815 41.1718V50.6543C66.6815 52.3112 65.3384 53.6543 63.6815 53.6543H35.8214C34.1645 53.6543 32.8214 52.3112 32.8214 50.6543V41.1718C32.8214 39.5149 34.1645 38.1718 35.8214 38.1718Z" fill="white"/>
<circle cx="30.2097" cy="62.5591" r="2.32867" fill="white"/>
<path d="M70.0178 59.2236H66.199C66.0032 59.2236 65.9252 59.5045 66.0872 59.6145C66.638 59.9885 67.3605 60.5736 67.4374 61.1117C67.5432 61.8524 67.4711 63.9714 67.4455 64.6284C67.4413 64.7358 67.5272 64.825 67.6348 64.825H70.0178C70.1221 64.825 70.2066 64.7405 70.2066 64.6362V59.4124C70.2066 59.3082 70.1221 59.2236 70.0178 59.2236Z" fill="white"/>
</svg>
