<svg width="100" height="100" viewBox="0 0 100 100" fill="none" xmlns="http://www.w3.org/2000/svg">
<circle opacity="0.7" cx="50" cy="50" r="50" fill="#F5A27F"/>
<path d="M49.5 49.5C49.5 46.6562 50.5081 44.2269 52.5244 42.2119C54.5406 40.1969 56.97 39.1888 59.8125 39.1875C62.655 39.1862 65.085 40.1944 67.1025 42.2119C69.12 44.2294 70.1275 46.6588 70.125 49.5H49.5ZM39.1875 59.8125C36.3438 59.8125 33.9144 58.805 31.8994 56.79C29.8844 54.775 28.8762 52.345 28.875 49.5H49.5C49.5 52.3438 48.4925 54.7737 46.4775 56.79C44.4625 58.8062 42.0325 59.8137 39.1875 59.8125ZM49.5 49.5C46.6562 49.5 44.2269 48.4925 42.2119 46.4775C40.1969 44.4625 39.1888 42.0325 39.1875 39.1875C39.1862 36.3425 40.1944 33.9131 42.2119 31.8994C44.2294 29.8856 46.6588 28.8775 49.5 28.875V49.5ZM49.5 70.125V49.5C52.3438 49.5 54.7737 50.5081 56.79 52.5244C58.8062 54.5406 59.8137 56.97 59.8125 59.8125C59.8113 62.655 58.8037 65.085 56.79 67.1025C54.7762 69.12 52.3463 70.1275 49.5 70.125Z" fill="white"/>
</svg>
