<svg width="100" height="100" viewBox="0 0 100 100" fill="none" xmlns="http://www.w3.org/2000/svg">
<circle opacity="0.7" cx="50" cy="50" r="50" fill="#7FC8F5"/>
<path d="M49.8438 43.125C51.5842 43.125 53.2534 42.4336 54.4841 41.2029C55.7148 39.9722 56.4062 38.303 56.4062 36.5625C56.4062 34.822 55.7148 33.1528 54.4841 31.9221C53.2534 30.6914 51.5842 30 49.8438 30C48.1033 30 46.4341 30.6914 45.2034 31.9221C43.9727 33.1528 43.2812 34.822 43.2812 36.5625C43.2812 38.303 43.9727 39.9722 45.2034 41.2029C46.4341 42.4336 48.1033 43.125 49.8438 43.125Z" fill="white"/>
<path fill-rule="evenodd" clip-rule="evenodd" d="M40 41.4263V60.6686C40 64.4005 43.0767 69.3749 49.8438 69.3749C56.6119 69.3749 59.6875 65.0217 59.6875 60.6697V59.7346C58.1081 55.7205 54.8367 51.7031 50.9222 48.3224C48.7622 46.4557 46.4288 44.7995 43.9539 43.3764C43.7456 43.263 43.5385 43.1474 43.3327 43.0297C42.2518 42.435 41.1392 41.8997 40 41.4263ZM50.9725 45.5213C51.4392 45.8931 51.8989 46.2752 52.3517 46.6675C55.1955 49.123 57.7866 51.9602 59.6875 54.9713V42.0311C56.3603 44.4133 53.6609 45.5158 50.9725 45.5213Z" fill="white"/>
</svg>
