<svg width="100" height="100" viewBox="0 0 100 100" fill="none" xmlns="http://www.w3.org/2000/svg">
<circle opacity="0.7" cx="50" cy="50" r="50" fill="#F5E57F"/>
<path d="M37.6684 34.0751C36.7556 32.5526 37.2499 30.5783 38.7725 29.6656C40.295 28.7528 42.2692 29.2471 43.182 30.7696C44.0948 32.2922 43.6005 34.2664 42.078 35.1792C40.5554 36.092 38.5812 35.5977 37.6684 34.0751Z" stroke="white" stroke-width="2.62391"/>
<rect x="55.6951" y="31.3291" width="6.42857" height="6.42857" rx="3.21429" transform="rotate(-30.9434 55.6951 31.3291)" stroke="white" stroke-width="2.62391"/>
<path d="M67.9987 48.5158C68.7859 49.5653 68.9827 51.0085 67.9987 52.2548C67.0148 53.5012 65.7684 53.042 64.8501 52.9108C63.9982 52.7891 60.2671 50.6916 59.7319 50.3888C59.6908 50.3656 59.6678 50.3234 59.6678 50.2762V42.9801C59.6678 42.877 59.7797 42.8133 59.8669 42.8683C61.0648 43.623 67.2878 47.5678 67.9987 48.5158Z" fill="white"/>
<rect x="52.7101" y="64.3038" width="11.1542" height="9.59301" rx="4.7965" transform="rotate(-56.7924 52.7101 64.3038)" stroke="white" stroke-width="3.93586"/>
<rect x="33.1107" y="59.6906" width="9.59288" height="11.154" rx="4.79644" transform="rotate(-30.9434 33.1107 59.6906)" stroke="white" stroke-width="3.93586"/>
<path fill-rule="evenodd" clip-rule="evenodd" d="M50.2219 29.0991C44.7877 29.0991 40.3823 33.5045 40.3823 38.9388V55.4694C40.3823 60.9037 44.7877 65.309 50.2219 65.309C55.6562 65.309 60.0616 60.9037 60.0616 55.4694V38.9388C60.0616 33.5045 55.6562 29.0991 50.2219 29.0991ZM44.8354 37.9946C44.522 37.2855 44.0728 36.2694 45.2365 35.3965C46.8108 34.2158 48.3853 36.2493 48.7132 36.7741C49.0123 37.2527 50.8396 37.0219 51.1585 36.9777C51.1896 36.9733 51.2173 36.9578 51.2373 36.9334C51.4307 36.6968 51.5721 36.4207 51.7105 36.1506C52.1118 35.3674 52.4867 34.6354 54.0266 35.0685C55.5907 35.5084 55.1517 37.0045 54.8806 37.9285C54.7879 38.2446 54.7148 38.4938 54.7482 38.6108C54.7859 38.7428 54.9483 38.9507 55.159 39.2205C55.6813 39.8891 56.5005 40.9378 56.4537 42.1531C56.3882 43.8586 54.0266 46.2857 52.7147 46.6137C51.4027 46.9417 47.9916 46.9417 47.0077 46.6137C46.0237 46.2857 43.7278 43.9898 43.531 42.4155C43.4048 41.406 44.0607 40.3696 44.5477 39.6002C44.8202 39.1696 45.0398 38.8226 45.0398 38.6108C45.0398 38.4568 44.946 38.2448 44.8354 37.9946Z" fill="white"/>
<path d="M48.5815 39.9225C48.1223 40.0538 47.5975 40.6441 47.6631 41.1689C47.7287 41.6937 49.4342 43.4648 50.0902 43.4648C50.7462 43.4648 52.7797 41.6937 52.7797 41.1689C52.7797 40.6441 52.3861 40.1193 51.7301 39.9225C51.0742 39.7258 49.0406 39.7913 48.5815 39.9225Z" fill="white"/>
<path d="M32.009 48.5188C31.2056 49.5689 31.0047 51.0128 32.009 52.2598C33.0134 53.5069 34.2856 53.0474 35.223 52.9162C36.0928 52.7944 39.9027 50.6948 40.4477 50.3926C40.4893 50.3696 40.5127 50.327 40.5127 50.2795V42.9776C40.5127 42.875 40.4014 42.8116 40.3141 42.8655C39.1028 43.6135 32.7356 47.5691 32.009 48.5188Z" fill="white"/>
</svg>
