<svg width="100" height="100" viewBox="0 0 100 100" fill="none" xmlns="http://www.w3.org/2000/svg">
<circle opacity="0.7" cx="50" cy="50" r="50" fill="#A6F8E2"/>
<path d="M56.1704 48.2729H43.8891C43.7918 48.2729 43.7129 48.3518 43.7129 48.4491V50.034C43.7129 50.1312 43.7918 50.2101 43.8891 50.2101H56.1704C56.2677 50.2101 56.3466 50.1312 56.3466 50.034V48.4491C56.3466 48.3518 56.2677 48.2729 56.1704 48.2729Z" fill="white"/>
<path d="M56.3466 51.0524H43.7129C43.376 51.0524 43.0868 52.9053 43.0868 53.916C43.0868 54.8614 43.6346 67.0072 43.7054 68.5736C43.7096 68.6677 43.7871 68.7395 43.8813 68.7395H47.5262C47.6106 68.7395 47.6831 68.6798 47.6992 68.597L49.847 57.551C49.8843 57.3589 50.16 57.3617 50.1935 57.5544L52.11 68.5935C52.1247 68.6779 52.1979 68.7395 52.2836 68.7395H55.6776C55.7698 68.7395 55.8464 68.6699 55.8531 68.5779C55.9664 67.0346 56.8519 54.9409 56.8519 53.916C56.8519 52.8211 56.6835 51.0524 56.3466 51.0524Z" fill="white"/>
<path d="M47.1958 69.4133H44.2627C44.1522 69.4133 44.069 69.5139 44.0896 69.6224L44.3594 71.0388C44.3752 71.1219 44.4479 71.182 44.5325 71.182H46.8585C46.9401 71.182 47.011 71.126 47.0299 71.0467L47.3671 69.6303C47.3935 69.5196 47.3095 69.4133 47.1958 69.4133Z" fill="white"/>
<path d="M55.3855 69.4133H52.5167C52.4062 69.4133 52.323 69.5139 52.3436 69.6224L52.6134 71.0388C52.6293 71.1219 52.7019 71.182 52.7865 71.182H55.1831C55.2708 71.182 55.3451 71.1176 55.3575 71.0308L55.5598 69.6144C55.575 69.5083 55.4927 69.4133 55.3855 69.4133Z" fill="white"/>
<path d="M49.9985 29.7703C48.3879 29.7703 47.2247 28.0124 46.8668 27.8366C46.5089 27.6609 43.3772 28.8035 43.1983 29.0672C43.0193 29.3308 43.1639 46.2063 43.1983 46.4701C43.2327 46.7338 56.7093 46.6459 56.7987 46.4701C56.888 46.2942 56.8881 29.4186 56.7987 29.0672C56.7092 28.7157 53.7565 27.9245 53.3091 27.8366C52.8617 27.7487 51.609 29.7703 49.9985 29.7703Z" fill="white"/>
<path d="M42.4825 43.3059C42.5719 43.13 42.6614 29.8581 42.4825 29.7703C42.3036 29.6825 38.3666 41.7239 38.456 41.8996C38.5455 42.0753 42.393 43.4818 42.4825 43.3059Z" fill="white"/>
<path d="M61.3619 41.8996C61.4514 41.6358 57.9618 29.8581 57.6934 29.7703C57.425 29.6825 57.425 43.306 57.6934 43.3059C57.9618 43.3058 61.2725 42.1634 61.3619 41.8996Z" fill="white"/>
</svg>
