<svg width="100" height="100" viewBox="0 0 100 100" fill="none" xmlns="http://www.w3.org/2000/svg">
<circle opacity="0.7" cx="50" cy="50" r="50" fill="#D87FF5"/>
<path d="M31.3699 54.0926C31.3699 54.0926 29.8682 51.3514 30.7025 50.684L29.8682 50.0166C29.8682 50.0166 29.2246 50.517 29.0578 51.1131C28.8909 51.7091 29.0001 52.5 29.0001 53C29.0001 53.5 29.5001 54 30.0001 55C30.5001 56 31.1792 57.5967 31.7274 58.1686C32.2757 58.7406 34.3971 60.4332 34.8977 60.7191C35.3982 61.005 37.615 61.2198 38.3778 61.2435C39.1406 61.2672 40.1417 61.1245 41.0475 60.7191C41.9532 60.3138 43.884 57.7397 44.0032 57.4774C44.1224 57.215 42.2631 56.1901 41.9532 56.2617C41.6434 56.3334 40.4754 58.1686 40.4754 58.1686C40.4754 58.1686 38.7592 60.7191 38.3778 60.7191C37.9964 60.7191 36.7331 59.7418 36.7331 59.7418C36.7331 59.7418 34.3733 58.1686 33.3722 57.4774C32.371 56.7861 31.3699 54.0926 31.3699 54.0926Z" fill="white"/>
<path d="M32.2917 38.3944C31.4812 37.8221 29.4551 38.013 28.74 39.0379C28.025 40.0629 28.2712 42.9612 28.1759 43.986C28.0805 45.0107 28.1759 48.2291 28.7956 49.6114C29.4154 50.9937 35.4221 53.1868 35.4221 53.1868L46.8874 59.4796C46.8874 59.4796 56.0961 65.1666 57.3277 64.2946C58.5593 63.4225 56.414 58.0357 55.8896 56.5577C55.3653 55.0796 53.943 53.1868 52.6081 51.2322C51.2733 49.2777 46.077 48.2291 45.4096 47.8952C44.7422 47.5612 39.8318 44.9397 38.4493 43.986C37.0669 43.0323 33.1021 38.9666 32.2917 38.3944Z" fill="white"/>
<path d="M40.7083 44.3438C39.5641 43.7478 35.798 39.6003 35.4166 39.2189C35.1687 38.971 33.3185 37.8223 31.5313 37.5266C30.569 37.3673 29.1679 37.9735 29.0761 37.9318C28.8139 37.8126 30.5778 36.8115 31.7458 36.7876C32.9138 36.7638 40.6368 35.5243 42.7582 35.0476C44.8796 34.5708 47.3348 36.2394 47.3348 36.2394C47.3348 36.2394 51.1963 39.0521 52.1736 39.6957C53.1508 40.3392 56.2972 41.8171 58.1326 42.2938C59.968 42.7706 65.3074 44.1054 66.9044 44.8205C68.5015 45.5356 70.3845 49.5162 70.6229 50.5889C70.8613 51.6615 71.6002 56.6195 70.6229 57.6683C69.6456 58.7171 58.7524 65.1767 58.6094 64.1994C58.4664 63.2221 57.4891 57.6921 56.8455 55.6183C56.2019 53.5446 52.7456 49.6593 50.505 48.7296C48.2644 47.8 41.8524 44.9397 40.7083 44.3438Z" fill="white"/>
</svg>
