<svg width="100" height="100" viewBox="0 0 100 100" fill="none" xmlns="http://www.w3.org/2000/svg">
<circle opacity="0.7" cx="50" cy="50" r="50" fill="#A6F8E2"/>
<path d="M46.9774 56.0451C56.758 47.8647 58.623 42.1065 58.9745 30.8721" stroke="white" stroke-width="1.51543" stroke-linecap="round"/>
<path fill-rule="evenodd" clip-rule="evenodd" d="M28.2665 51.1408C27.6351 48.8887 33.6758 40.638 35.6753 39.2278C35.9278 39.0497 36.2517 38.8092 36.6329 38.5263C39.2703 36.5685 44.6465 32.5775 48.0303 33.166C51.365 33.746 49.6281 44.0632 49.0138 47.712C48.9147 48.3009 48.8448 48.7161 48.8301 48.8887C48.7249 50.1305 50.8718 53.8138 53.2291 54.4242C55.5687 55.03 61.6402 52.7125 61.7313 52.6777C61.7342 52.6766 61.7312 52.6774 61.7341 52.677C61.8297 52.6626 65.7821 52.0743 68.194 52.6773C70.6356 53.2876 71.5617 56.6763 70.6356 57.4972C69.7095 58.318 68.9097 58.1076 67.5626 57.4972C66.7805 57.1428 66.0127 59.683 65.2837 62.0944C64.7571 63.8366 64.2507 65.5115 63.774 65.9794C62.6374 67.0949 56.1968 68.3368 51.9031 68.2315C47.6094 68.1263 40.7478 67.4317 39.6112 66.5056C38.9826 65.9934 39.0494 63.9167 39.1135 61.9206C39.1653 60.3076 39.2155 58.7472 38.8956 58.1076C38.5905 57.4972 36.7275 56.5501 34.6419 55.4897C31.8367 54.0635 28.6287 52.4325 28.2665 51.1408ZM47.5039 58.9069C49.4568 58.9069 51.0399 57.3238 51.0399 55.3709C51.0399 53.418 49.4568 51.8349 47.5039 51.8349C45.551 51.8349 43.9679 53.418 43.9679 55.3709C43.9679 57.3238 45.551 58.9069 47.5039 58.9069Z" fill="white"/>
</svg>
