<svg width="100" height="100" viewBox="0 0 100 100" fill="none" xmlns="http://www.w3.org/2000/svg">
<circle opacity="0.7" cx="50" cy="50" r="50" fill="#F5E57F"/>
<path d="M35.3568 48.2153H35.5711C35.8078 48.2153 35.9997 48.4071 35.9997 48.6438V56.6041C35.9997 57.0608 36.6188 57.2007 36.8152 56.7884L42.1364 45.6138C42.2718 45.3294 42.0645 45.001 41.7494 45.001H35.3568C35.1201 45.001 34.9282 45.1929 34.9282 45.4296V47.7867C34.9282 48.0234 35.1201 48.2153 35.3568 48.2153Z" fill="white"/>
<path d="M47.0521 47.6056L40.7722 61.5392C40.6443 61.8228 40.8518 62.1438 41.1629 62.1438H58.8993C59.2125 62.1438 59.42 61.8187 59.2879 61.5346L52.8289 47.6378C52.6863 47.3311 52.2496 47.2948 52.0332 47.5548C51.5832 48.0957 50.8654 48.8 50.1425 48.8581C49.2863 48.9269 48.3678 48.0937 47.8287 47.5005C47.6069 47.2565 47.1876 47.305 47.0521 47.6056Z" fill="white"/>
<path d="M64.9282 45.001H58.5259C58.2133 45.001 58.0059 45.3248 58.1366 45.6088L63.2532 56.7242C63.4454 57.1418 64.0711 57.0048 64.0711 56.545V48.6438C64.0711 48.4071 64.263 48.2153 64.4997 48.2153H64.9282C65.1649 48.2153 65.3568 48.0234 65.3568 47.7867V45.4296C65.3568 45.1929 65.1649 45.001 64.9282 45.001Z" fill="white"/>
<path d="M34.7139 69.8578L49.7139 34.9293L66.4282 69.8578M49.7139 29.1436V46.9293" stroke="white" stroke-width="2.1429" stroke-linecap="round"/>
</svg>
