<svg width="100" height="100" viewBox="0 0 100 100" fill="none" xmlns="http://www.w3.org/2000/svg">
<circle opacity="0.7" cx="50" cy="50" r="50" fill="#F57FAC"/>
<path d="M45.2091 37.0635C45.2091 36.5579 45.619 36.1479 46.1247 36.1479H52.877C53.3826 36.1479 53.7925 36.5579 53.7925 37.0635V38.2995H45.2091V37.0635Z" fill="white"/>
<path fill-rule="evenodd" clip-rule="evenodd" d="M47.5669 29.0068C47.0613 29.0068 46.6514 29.4167 46.6514 29.9224V34.7291H52.3736V29.9224C52.3736 29.4167 51.9637 29.0068 51.4581 29.0068H47.5669ZM49.5125 32.6234C49.917 32.6234 50.2449 32.2954 50.2449 31.8909C50.2449 31.4864 49.917 31.1585 49.5125 31.1585C49.108 31.1585 48.78 31.4864 48.78 31.8909C48.78 32.2954 49.108 32.6234 49.5125 32.6234Z" fill="white"/>
<path fill-rule="evenodd" clip-rule="evenodd" d="M44.7141 39.7188C43.7816 39.7188 42.9981 40.4195 42.8943 41.3462L39.692 69.9576C39.5705 71.0428 40.4198 71.9924 41.5118 71.9924H57.5561C58.6492 71.9924 59.4988 71.041 59.3756 69.9549L56.1309 41.3435C56.0259 40.418 55.2429 39.7188 54.3114 39.7188H44.7141ZM48.2883 51.8018L48.7057 51.4504L49.3467 52.2116C49.3902 52.2437 49.4305 52.2799 49.467 52.3197C49.5035 52.2799 49.5437 52.2437 49.5871 52.2116L50.2281 51.4504L50.6455 51.8018L50.4624 52.0192C50.5601 52.0318 50.6565 52.0531 50.7505 52.0826C51.0528 52.1773 51.3068 52.3454 51.4802 52.5624C51.6535 52.7795 51.7496 53.0666 51.6671 53.3443C51.6544 53.3867 51.6378 53.4277 51.6174 53.467C51.6562 53.5536 51.6796 53.6474 51.6796 53.7478C51.6796 54.0709 51.5012 54.4063 51.1559 54.6273C51.2519 54.7127 51.3378 54.8086 51.4122 54.9133L52.646 54.502L53.5728 51.7217L54.0904 51.8942L53.0773 54.9334L51.6445 55.411C51.6678 55.5062 51.6796 55.5994 51.6796 55.6876V55.707L51.539 56.6908C51.3783 56.5909 51.213 56.4984 51.0438 56.4136C51.0406 56.412 51.0374 56.4105 51.0341 56.409C51.0323 56.4082 51.0304 56.4073 51.0285 56.4064L51.1073 55.8551C50.4868 55.593 49.9764 55.4586 49.4667 55.4568C48.9565 55.4551 48.4463 55.5862 47.8263 55.8534L47.9053 56.4064C47.9002 56.4088 47.895 56.411 47.89 56.4136C47.7208 56.4984 47.5555 56.5909 47.3948 56.6908L47.2543 55.707V55.6876C47.2543 55.5994 47.2661 55.5063 47.2896 55.4111L45.8565 54.9334L44.8434 51.8942L45.3611 51.7217L46.2878 54.502L47.5217 54.9133C47.5892 54.8185 47.6662 54.7308 47.7516 54.6518L47.7424 54.6462C47.3864 54.4162 47.2543 54.0507 47.2543 53.7478C47.2543 53.6475 47.2776 53.5536 47.3164 53.467C47.2961 53.4277 47.2794 53.3867 47.2667 53.3443C47.1842 53.0666 47.2803 52.7795 47.4536 52.5624C47.627 52.3454 47.881 52.1773 48.1833 52.0826C48.2773 52.0531 48.3737 52.0318 48.4714 52.0192L48.2883 51.8018ZM48.8847 52.587C48.8151 52.5654 48.7302 52.5539 48.6369 52.5559L48.6369 52.5559C48.5435 52.5579 48.4418 52.5733 48.3386 52.6057C48.1322 52.6703 47.9674 52.7874 47.8752 52.9029C47.783 53.0184 47.7665 53.111 47.7874 53.1814C47.8083 53.2517 47.8723 53.3191 48.0116 53.3621C48.1509 53.4051 48.3513 53.408 48.5578 53.3434C48.7642 53.2788 48.929 53.1616 49.0212 53.0462C49.1134 52.9307 49.1299 52.838 49.109 52.7677C49.0881 52.6973 49.024 52.6299 48.8847 52.587ZM50.5952 52.6056C50.492 52.5733 50.3902 52.5579 50.297 52.5559C50.2037 52.5539 50.1187 52.5654 50.0491 52.587C49.9098 52.6299 49.8457 52.6973 49.8248 52.7677C49.8039 52.838 49.8204 52.9306 49.9127 53.0461C50.0049 53.1615 50.1696 53.2788 50.376 53.3434C50.5825 53.408 50.7829 53.4051 50.9222 53.3621C51.0615 53.3191 51.1255 53.2517 51.1464 53.1813C51.1673 53.111 51.1508 53.0183 51.0586 52.9029C50.9663 52.7874 50.8016 52.6703 50.5952 52.6056ZM49.4911 53.3866C49.4828 53.3762 49.4747 53.3656 49.4668 53.3549C49.4589 53.3656 49.451 53.3763 49.4427 53.3866C49.2694 53.6037 49.0155 53.7718 48.7132 53.8663C48.4109 53.961 48.1087 53.9669 47.8469 53.8861C47.8336 53.882 47.8205 53.8776 47.8075 53.873C47.8252 53.9912 47.8807 54.0859 48.0384 54.1879C48.1002 54.2278 48.1824 54.2667 48.2867 54.3018C48.6007 54.1607 48.9913 54.0724 49.4669 54.0724C49.9252 54.0724 50.3044 54.1544 50.6124 54.2866C50.7032 54.254 50.7796 54.2182 50.842 54.1807C51.0121 54.0787 51.0877 53.9794 51.1173 53.876C51.1149 53.8768 51.1126 53.8776 51.1103 53.8784C51.1026 53.881 51.0948 53.8837 51.087 53.8861C50.8251 53.9669 50.523 53.961 50.2207 53.8663C49.9184 53.7718 49.6644 53.6037 49.4911 53.3866ZM50.96 55.2138C50.748 54.9161 50.3081 54.618 49.4669 54.618C48.6303 54.618 48.1905 54.9128 47.9772 55.2089C48.5001 55.0219 48.9838 54.9301 49.4671 54.9315C49.9517 54.933 50.4363 55.028 50.96 55.2138ZM42.5912 56.9164L42.7637 56.3987L44.348 56.9269L44.7934 58.2634L45.8928 57.9493C45.6756 58.185 45.4718 58.4338 45.2804 58.6917L44.4411 58.9315L43.9166 57.3582L42.5912 56.9164ZM54.5858 56.9269L56.1701 56.3987L56.3426 56.9164L55.0172 57.3582L54.4927 58.9315L53.6534 58.6917C53.462 58.4338 53.2582 58.185 53.041 57.9493L54.1403 58.2634L54.5858 56.9269ZM48.134 56.9016C48.1662 56.8855 48.1798 56.8797 48.1877 56.879C48.193 56.8785 48.1956 56.8803 48.1993 56.8829C48.2012 56.8842 48.2033 56.8857 48.2062 56.8872C48.2236 56.8963 48.2768 56.9437 48.3302 57.0475C48.4369 57.2551 48.5315 57.6474 48.5903 58.0879C48.7078 58.9689 48.7092 60.0523 48.7092 60.5373C48.7092 61.6132 47.672 63.1812 46.491 64.2973C45.9005 64.8554 45.2786 65.3066 44.7722 65.5493C44.519 65.6706 44.2948 65.7379 44.1336 65.7506C43.9723 65.7634 43.8936 65.7323 43.8402 65.679C43.7265 65.5652 43.5888 65.0427 43.6472 64.3173C43.7056 63.5919 43.9124 62.6719 44.2683 61.7233C44.9802 59.8263 46.2903 57.8234 48.134 56.9016ZM50.7345 56.8829C50.7382 56.8803 50.7409 56.8785 50.7461 56.879C50.7539 56.8797 50.7676 56.8855 50.7998 56.9016C52.6435 57.8234 53.9536 59.8263 54.6655 61.7233C55.0214 62.6719 55.2282 63.5919 55.2866 64.3173C55.345 65.0427 55.2074 65.5652 55.0936 65.679C55.0403 65.7323 54.9615 65.7634 54.8003 65.7506C54.639 65.7379 54.4148 65.6706 54.1616 65.5493C53.6552 65.3066 53.0333 64.8554 52.4428 64.2973C51.2618 63.1812 50.2247 61.6132 50.2247 60.5373C50.2247 60.0523 50.2261 58.9689 50.3435 58.0879C50.4023 57.6474 50.4969 57.2551 50.6037 57.0475C50.657 56.9437 50.7102 56.8963 50.7276 56.8872C50.7305 56.8857 50.7326 56.8842 50.7345 56.8829ZM49.2089 58.8239C49.2946 58.8144 49.3807 58.8096 49.4669 58.8096C49.5531 58.8098 49.6393 58.8161 49.7246 58.8285C49.7126 59.0113 49.7033 59.1943 49.6966 59.3774C49.6209 59.3629 49.544 59.3554 49.4669 59.3552C49.39 59.3553 49.3132 59.3603 49.2369 59.3701C49.2304 59.1936 49.2213 59.01 49.2089 58.8239ZM48.1129 63.3046C48.2305 63.1474 48.3422 62.9877 48.4462 62.8263C48.5979 63.0589 48.7662 63.2629 48.9333 63.4077C49.1299 63.5781 49.3154 63.6592 49.4669 63.6592C49.6185 63.6592 49.8039 63.5781 50.0005 63.4077C50.1676 63.2629 50.3359 63.0589 50.4876 62.8263C50.5916 62.9877 50.7033 63.1474 50.8209 63.3046C50.6803 63.4983 50.5261 63.6741 50.3579 63.8199C50.0998 64.0435 49.8003 64.2049 49.4669 64.2049C49.1335 64.2049 48.834 64.0435 48.5759 63.8199C48.4077 63.6741 48.2536 63.4983 48.1129 63.3046Z" fill="white"/>
</svg>
