<svg width="100" height="100" viewBox="0 0 100 100" fill="none" xmlns="http://www.w3.org/2000/svg">
<circle opacity="0.7" cx="50" cy="50" r="50" fill="#F5A27F"/>
<circle cx="49.5327" cy="35.7444" r="7.65457" fill="white"/>
<path fill-rule="evenodd" clip-rule="evenodd" d="M45.495 45.3998C48.5323 45.3869 54.9811 45.3596 55.3245 45.4054C55.7545 45.4627 56.4425 45.8067 56.6146 46.8675C56.7866 47.9282 56.5285 52.6012 56.1845 53.7193C55.8405 54.8374 54.407 56.9589 53.6617 57.647L53.6477 57.6599L53.6474 57.6601C52.8975 58.3524 51.4234 59.7131 51.1101 60.0265C50.7948 60.3418 55.1524 62.0906 55.6685 62.234C56.1846 62.3773 57.7898 59.1377 58.65 56.9589C59.2021 55.5606 59.081 52.2613 58.9992 50.0314C58.9535 48.7867 58.92 47.8752 59.0227 47.8135C59.3094 47.6415 62.893 52.4579 63.6957 54.3787C64.4984 56.2995 63.9824 60.1125 62.635 62.234L62.5892 62.3061C61.2641 64.3926 60.2372 66.0095 58.65 67.7384C57.0446 69.4872 54.0917 71.0066 53.6617 70.978C53.5957 70.9736 53.5042 70.9779 53.3914 70.9833C52.769 71.013 51.5011 71.0735 50.3361 69.8599C48.96 68.4264 51.1101 65.9896 52.0275 65.2729C52.3113 65.0512 52.6718 64.7911 53.0362 64.5283C53.8499 63.9413 54.6828 63.3405 54.7224 63.1227C54.7573 62.9306 52.8342 62.0361 51.1575 61.2562C50.082 60.756 49.1079 60.3029 48.8166 60.1125C48.0713 59.6251 44.717 56.9589 43.6562 55.0668C42.5955 53.1746 42.3375 47.4409 42.4808 46.8675C42.6242 46.2941 43.1115 45.4054 44.0003 45.4054C44.1793 45.4054 44.7286 45.403 45.495 45.3998ZM49.4999 56C51.9852 56 53.9999 53.9853 53.9999 51.5C53.9999 49.0147 51.9852 47 49.4999 47C47.0146 47 44.9999 49.0147 44.9999 51.5C44.9999 53.9853 47.0146 56 49.4999 56Z" fill="white"/>
<path d="M40.1869 55.4106C39.8429 53.2891 40.3016 47.9567 40.1869 47.8993C40.0723 47.842 37.148 50.5369 36.0013 52.859C34.8546 55.1812 34.7972 58.2488 35.4279 60.2843C36.0586 62.3198 37.7788 64.4986 38.9829 66.0754C40.1869 67.6522 43.3119 70.261 44.5733 70.691C45.8347 71.1211 47.8702 70.9777 48.7303 69.9743C49.5903 68.9709 48.7303 66.8781 47.8415 66.0754C46.9528 65.2726 44.5733 63.2658 43.2832 61.9757C41.9931 60.6856 40.531 57.5321 40.1869 55.4106Z" fill="white"/>
</svg>
