<svg width="100" height="100" viewBox="0 0 100 100" fill="none" xmlns="http://www.w3.org/2000/svg">
<circle opacity="0.7" cx="50" cy="50" r="50" fill="#D87FF5"/>
<path fill-rule="evenodd" clip-rule="evenodd" d="M31.6014 57.869V68.8925C31.6014 69.9971 32.4968 70.8925 33.6014 70.8925H65.4296C66.5342 70.8925 67.4296 69.9971 67.4296 68.8925V57.7659C67.4296 56.8962 66.7245 56.1911 65.8548 56.1911C64.9759 56.1911 64.2669 55.476 64.278 54.5973C64.3307 50.4433 64.4487 39.4525 64.2566 37.2325C64.0186 34.4826 62.1413 31.2304 59.788 29.8026C57.4347 28.3747 53.8387 28.1103 49.4229 28.1103L49.0442 28.1102C44.8571 28.1087 42.3333 28.1078 39.5603 29.8025C36.7046 31.5477 35.1445 34.1917 34.9594 37.2325C34.8119 39.6558 34.9499 50.2402 35.012 54.4392C35.0261 55.3915 34.2582 56.1646 33.3058 56.1646C32.3645 56.1646 31.6014 56.9277 31.6014 57.869ZM39.2959 56.1116H60.026C60.6101 56.1116 61.0836 55.6411 61.0836 55.057V37.3117C61.0836 33.7422 57.4611 31.5475 55.3194 31.2831C53.8473 31.1013 50.7139 31.1694 47.9367 31.2298C46.6733 31.2572 45.4837 31.2831 44.5577 31.2831C41.5963 31.2831 38.2382 34.2181 38.2382 37.3117V55.0551C38.2382 55.6392 38.7117 56.1116 39.2959 56.1116ZM53.1768 64.3091C53.1768 66.1489 51.6853 67.6404 49.8454 67.6404C48.0055 67.6404 46.514 66.1489 46.514 64.3091C46.514 62.4692 48.0055 60.9777 49.8454 60.9777C51.6853 60.9777 53.1768 62.4692 53.1768 64.3091ZM44.6896 61.9289C45.2152 61.9289 45.6414 61.5028 45.6414 60.9771C45.6414 60.4514 45.2152 60.0253 44.6896 60.0253C44.1639 60.0253 43.7377 60.4514 43.7377 60.9771C43.7377 61.5028 44.1639 61.9289 44.6896 61.9289ZM50.7974 58.6508C50.7974 59.1765 50.3713 59.6026 49.8456 59.6026C49.3199 59.6026 48.8938 59.1765 48.8938 58.6508C48.8938 58.1251 49.3199 57.699 49.8456 57.699C50.3713 57.699 50.7974 58.1251 50.7974 58.6508ZM54.711 61.9289C55.2366 61.9289 55.6628 61.5028 55.6628 60.9771C55.6628 60.4514 55.2366 60.0253 54.711 60.0253C54.1853 60.0253 53.7591 60.4514 53.7591 60.9771C53.7591 61.5028 54.1853 61.9289 54.711 61.9289Z" fill="white"/>
<rect x="41.4904" y="38.5547" width="6.71614" height="16.0235" rx="1.58651" fill="white"/>
<rect x="51.0093" y="38.5547" width="6.71614" height="16.0235" rx="1.58651" fill="white"/>
<path d="M46.6992 37.8931H43.0193C42.992 37.8931 42.9693 37.8727 42.9671 37.8455C42.9558 37.7059 42.9277 37.2956 42.9712 37.0999C43.0241 36.862 43.1034 36.7298 43.262 36.5712C43.4207 36.4125 43.7644 36.4125 43.8966 36.2803C44.0288 36.1481 44.0552 35.7515 44.0288 35.4343C44.0023 35.117 43.923 35.117 43.8437 34.5882C43.7644 34.0594 44.1874 33.5835 44.9013 33.5835C45.6152 33.5835 45.9324 34.1387 45.8531 34.5882C45.7738 35.0377 45.7209 35.3814 45.7209 35.6458C45.7209 35.9102 45.7473 36.201 45.906 36.3332C46.0646 36.4654 46.3026 36.439 46.4877 36.5712C46.6727 36.7034 46.7521 36.8884 46.7521 37.0999V37.8404C46.7521 37.8696 46.7284 37.8931 46.6992 37.8931Z" fill="white"/>
<path d="M56.2415 37.8931H52.5617C52.5344 37.8931 52.5117 37.8727 52.5095 37.8455C52.4981 37.7059 52.4701 37.2956 52.5136 37.0999C52.5664 36.862 52.6458 36.7298 52.8044 36.5712C52.963 36.4125 53.3068 36.4125 53.439 36.2803C53.5711 36.1481 53.5976 35.7515 53.5711 35.4343C53.5447 35.117 53.4654 35.117 53.3861 34.5882C53.3067 34.0594 53.7298 33.5835 54.4437 33.5835C55.1575 33.5835 55.4748 34.1387 55.3955 34.5882C55.3162 35.0377 55.2633 35.3814 55.2633 35.6458C55.2633 35.9102 55.2897 36.201 55.4483 36.3332C55.607 36.4654 55.8449 36.439 56.03 36.5712C56.2151 36.7034 56.2944 36.8884 56.2944 37.0999V37.8404C56.2944 37.8696 56.2707 37.8931 56.2415 37.8931Z" fill="white"/>
</svg>
