<svg width="100" height="100" viewBox="0 0 100 100" fill="none" xmlns="http://www.w3.org/2000/svg">
<circle opacity="0.7" cx="50" cy="50" r="50" fill="#A6F8E2"/>
<path fill-rule="evenodd" clip-rule="evenodd" d="M63.5546 28.395H35.2849C34.8032 28.395 34.4128 28.7842 34.4128 29.2659V30.8473C34.4431 30.8406 34.4747 30.837 34.5071 30.837H64.4733C64.4575 30.2177 64.4374 29.6529 64.4202 29.2229C64.4016 28.7588 64.0191 28.395 63.5546 28.395ZM64.4913 31.7091H34.5071C34.4747 31.7091 34.4431 31.7056 34.4128 31.6989V35.3294C34.4128 35.3432 34.4133 35.3607 34.4142 35.3818C34.4441 35.3753 34.4752 35.3719 34.5071 35.3719H64.289C64.3189 35.3719 64.3481 35.3749 64.3763 35.3807C64.379 35.3614 64.3815 35.3443 64.3837 35.3294C64.5 34.5442 64.5129 33.0863 64.4913 31.7091ZM64.2692 36.244H34.5071C34.5013 36.244 34.4956 36.2439 34.49 36.2437C34.5644 36.9786 34.6894 38.1064 34.8504 39.5121C35.6802 39.2994 36.7017 39.3772 37.728 39.582C38.7941 39.7948 39.9194 40.1564 40.9396 40.5396C41.9615 40.9235 42.888 41.3331 43.5584 41.6463C43.894 41.803 44.1661 41.9359 44.3547 42.0299L44.4172 42.0612C44.5546 41.971 44.7533 41.8451 45.0079 41.6959C45.5257 41.3922 46.2758 40.9907 47.2117 40.5952C49.0812 39.8051 51.7066 39.0324 54.7091 39.1221C57.6812 39.2108 59.9354 39.8211 61.4452 40.5618C62.1983 40.9312 62.7796 41.3397 63.171 41.7442C63.3321 41.9106 63.4756 42.092 63.5817 42.282C63.8829 39.5925 64.1286 37.4276 64.2692 36.244ZM35.6514 46.3335C35.3892 44.1345 35.1487 42.0954 34.9507 40.3835C34.9728 40.3808 34.9949 40.3765 35.0169 40.3703C35.6579 40.1912 36.5433 40.2349 37.5573 40.4372C38.5596 40.6373 39.6363 40.9816 40.6329 41.356C41.6277 41.7297 42.5326 42.1296 43.1893 42.4364C43.5174 42.5897 43.7829 42.7194 43.9659 42.8105C44.0574 42.8561 44.1282 42.892 44.1758 42.9164L44.2297 42.9441L44.2382 42.9485C46.3002 44.1544 48.0006 44.9567 49.7577 45.4604C51.519 45.9652 53.3159 46.1638 55.5639 46.1858C57.8434 46.2081 59.8091 45.7729 61.2334 45.1884C61.9443 44.8967 62.5327 44.5627 62.9603 44.2196C63.1276 44.0853 63.2841 43.9385 63.4141 43.7817C62.5151 51.8368 61.2472 63.3929 60.7118 68.2805C60.5664 69.6074 59.4464 70.6043 58.1116 70.6043H40.9145C39.5933 70.6043 38.48 69.6235 38.319 68.3122L38.1563 66.9865C38.2133 67.0138 38.2771 67.0291 38.3445 67.0291H42.2689C42.5097 67.0291 42.7049 66.8339 42.7049 66.5931C42.7049 66.3522 42.5097 66.157 42.2689 66.157H38.3445C38.239 66.157 38.1422 66.1945 38.0668 66.2568L37.8003 64.0805C37.8476 64.098 37.8987 64.1076 37.952 64.1076H40.7863C41.0271 64.1076 41.2224 63.9124 41.2224 63.6715C41.2224 63.4307 41.0271 63.2355 40.7863 63.2355H37.952C37.8609 63.2355 37.7762 63.2635 37.7063 63.3113L37.4675 61.3566C37.5412 61.4137 37.6338 61.4477 37.7342 61.4477H42.2255C42.4663 61.4477 42.6616 61.2525 42.6616 61.0116C42.6616 60.7708 42.4663 60.5756 42.2255 60.5756H37.7342C37.5957 60.5756 37.4723 60.6402 37.3924 60.7409C37.3046 60.0214 37.2143 59.2802 37.1223 58.5239C37.1371 58.5254 37.1522 58.5262 37.1674 58.5262H40.743C40.9838 58.5262 41.179 58.331 41.179 58.0901C41.179 57.8493 40.9838 57.6541 40.743 57.6541H37.1674C37.1155 57.6541 37.0658 57.6632 37.0196 57.6798C36.9319 56.9582 36.8429 56.2252 36.7532 55.4861C36.8302 55.6097 36.9673 55.6919 37.1236 55.6919H42.269C42.5098 55.6919 42.705 55.4967 42.705 55.2559C42.705 55.0151 42.5098 54.8198 42.269 54.8198H37.1236C36.93 54.8198 36.7658 54.946 36.7089 55.1207C36.6136 54.3339 36.5176 53.5413 36.4219 52.7492C36.4644 52.763 36.5097 52.7704 36.5567 52.7704H40.6556C40.8964 52.7704 41.0916 52.5752 41.0916 52.3344C41.0916 52.0935 40.8964 51.8983 40.6556 51.8983H36.5567C36.4725 51.8983 36.3938 51.9222 36.3271 51.9636C36.2492 51.3182 36.1717 50.6745 36.0949 50.0361C36.1644 50.083 36.2482 50.1104 36.3384 50.1104H44.7105C44.9513 50.1104 45.1465 49.9152 45.1465 49.6743C45.1465 49.4335 44.9513 49.2383 44.7105 49.2383H36.3384C36.2107 49.2383 36.0958 49.2932 36.0161 49.3806C35.9271 48.6393 35.8393 47.9068 35.7535 47.1885C35.7595 47.1887 35.7655 47.1889 35.7715 47.1889H40.9169C41.1577 47.1889 41.3529 46.9936 41.3529 46.7528C41.3529 46.512 41.1577 46.3168 40.9169 46.3168H35.7715C35.7299 46.3168 35.6896 46.3226 35.6514 46.3335ZM50.1613 50.5027C50.6189 50.5027 50.9898 50.1318 50.9898 49.6742C50.9898 49.2167 50.6189 48.8457 50.1613 48.8457C49.7038 48.8457 49.3328 49.2167 49.3328 49.6742C49.3328 50.1318 49.7038 50.5027 50.1613 50.5027ZM50.1613 51.8108C51.3414 51.8108 52.298 50.8542 52.298 49.6742C52.298 48.4942 51.3414 47.5376 50.1613 47.5376C48.9813 47.5376 48.0247 48.4942 48.0247 49.6742C48.0247 50.8542 48.9813 51.8108 50.1613 51.8108ZM55.8302 53.1626C55.8302 53.6201 55.4593 53.991 55.0017 53.991C54.5441 53.991 54.1732 53.6201 54.1732 53.1626C54.1732 52.705 54.5441 52.3341 55.0017 52.3341C55.4593 52.3341 55.8302 52.705 55.8302 53.1626ZM57.1383 53.1626C57.1383 54.3426 56.1817 55.2992 55.0017 55.2992C53.8217 55.2992 52.8651 54.3426 52.8651 53.1626C52.8651 51.9825 53.8217 51.0259 55.0017 51.0259C56.1817 51.0259 57.1383 51.9825 57.1383 53.1626ZM47.3272 58.2644C47.7848 58.2644 48.1557 57.8934 48.1557 57.4359C48.1557 56.9783 47.7848 56.6074 47.3272 56.6074C46.8696 56.6074 46.4987 56.9783 46.4987 57.4359C46.4987 57.8934 46.8696 58.2644 47.3272 58.2644ZM47.3272 59.5725C48.5072 59.5725 49.4638 58.6159 49.4638 57.4359C49.4638 56.2559 48.5072 55.2993 47.3272 55.2993C46.1472 55.2993 45.1906 56.2559 45.1906 57.4359C45.1906 58.6159 46.1472 59.5725 47.3272 59.5725ZM58.6207 59.529C58.6207 59.9865 58.2498 60.3574 57.7922 60.3574C57.3347 60.3574 56.9637 59.9865 56.9637 59.529C56.9637 59.0714 57.3347 58.7005 57.7922 58.7005C58.2498 58.7005 58.6207 59.0714 58.6207 59.529ZM59.9288 59.529C59.9288 60.709 58.9722 61.6656 57.7922 61.6656C56.6122 61.6656 55.6556 60.709 55.6556 59.529C55.6556 58.3489 56.6122 57.3923 57.7922 57.3923C58.9722 57.3923 59.9288 58.3489 59.9288 59.529ZM53.5189 65.9389C53.9765 65.9389 54.3474 65.5679 54.3474 65.1104C54.3474 64.6528 53.9765 64.2819 53.5189 64.2819C53.0613 64.2819 52.6904 64.6528 52.6904 65.1104C52.6904 65.5679 53.0613 65.9389 53.5189 65.9389ZM53.5189 67.247C54.6989 67.247 55.6555 66.2904 55.6555 65.1104C55.6555 63.9303 54.6989 62.9737 53.5189 62.9737C52.3389 62.9737 51.3823 63.9303 51.3823 65.1104C51.3823 66.2904 52.3389 67.247 53.5189 67.247ZM47.3707 66.4184C47.3707 66.876 46.9998 67.2469 46.5422 67.2469C46.0847 67.2469 45.7137 66.876 45.7137 66.4184C45.7137 65.9609 46.0847 65.59 46.5422 65.59C46.9998 65.59 47.3707 65.9609 47.3707 66.4184ZM48.6788 66.4184C48.6788 67.5985 47.7222 68.5551 46.5422 68.5551C45.3622 68.5551 44.4056 67.5985 44.4056 66.4184C44.4056 65.2384 45.3622 64.2818 46.5422 64.2818C47.7222 64.2818 48.6788 65.2384 48.6788 66.4184ZM45.2861 42.545C47.0392 43.5345 48.5063 44.1945 49.9979 44.622C51.6596 45.0983 53.3728 45.2922 55.5725 45.3137C57.7407 45.335 59.5904 44.92 60.9023 44.3816C61.5595 44.1119 62.0694 43.8164 62.4144 43.5395C62.7814 43.245 62.8866 43.0331 62.8972 42.9486C62.9044 42.8906 62.8664 42.6836 62.5443 42.3507C62.2422 42.0384 61.7524 41.6839 61.0611 41.3447C59.6821 40.6682 57.5541 40.0795 54.6831 39.9938C51.8426 39.909 49.3445 40.6406 47.5512 41.3985C46.6557 41.777 45.9396 42.1604 45.4491 42.4481C45.3916 42.4818 45.3373 42.5142 45.2861 42.545Z" fill="white"/>
</svg>
