<svg width="100" height="100" viewBox="0 0 100 100" fill="none" xmlns="http://www.w3.org/2000/svg">
<circle opacity="0.7" cx="50" cy="50" r="50" fill="#F57FAC"/>
<path fill-rule="evenodd" clip-rule="evenodd" d="M34.6319 57.0754C34.3936 56.6783 35.029 51.3565 35.5056 51.1182C35.9821 50.88 43.5279 50.8005 44.481 51.1182C45.4342 51.4359 45.8313 56.5194 45.4342 57.0754C45.037 57.6314 34.8701 57.4725 34.6319 57.0754ZM35.1879 58.0285C35.1879 58.0285 44.7193 57.7109 44.9576 58.0285C45.1959 58.3462 45.4342 60.0937 45.4342 62.3971C45.4342 64.7005 39.477 70.4194 37.7296 70.9754C35.9821 71.5315 34.7907 71.452 33.9964 70.9754C33.2021 70.4988 31.2165 69.1485 31.5342 67.3217C31.852 65.4948 34.473 59.5377 35.1879 58.0285ZM43.8807 59.7681C43.7884 59.442 43.4493 59.2524 43.1232 59.3447C42.7971 59.4369 42.6075 59.7761 42.6998 60.1022C42.9572 61.012 43.016 61.5807 42.951 62.0293C42.8879 62.4645 42.6986 62.8534 42.3144 63.3909C42.1174 63.6666 42.1812 64.0499 42.4569 64.247C42.7326 64.444 43.1159 64.3802 43.3129 64.1045C43.7469 63.4973 44.0619 62.9201 44.1655 62.2054C44.2673 61.5039 44.1553 60.7387 43.8807 59.7681ZM39.29 68.4564C39.5217 68.2091 39.5091 67.8208 39.2618 67.5891C39.0145 67.3574 38.6262 67.37 38.3944 67.6173C37.8746 68.1721 37.5102 68.4769 37.0913 68.6383C36.6782 68.7974 36.1329 68.8457 35.2033 68.7014C34.8684 68.6493 34.5547 68.8787 34.5027 69.2136C34.4507 69.5484 34.68 69.8621 35.0149 69.9141C36.0428 70.0737 36.8336 70.0528 37.5325 69.7835C38.2256 69.5165 38.7489 69.0339 39.29 68.4564Z" fill="white"/>
<path fill-rule="evenodd" clip-rule="evenodd" d="M40.9092 44.5685V30.0458C40.9092 29.8199 41.0923 29.6367 41.3183 29.6367H55.6365C55.8624 29.6367 56.0455 29.8199 56.0455 30.0458V34.5458C56.0455 34.7717 55.8624 34.9549 55.6365 34.9549H51.7501C51.5242 34.9549 51.341 35.1381 51.341 35.364V44.5685C51.341 44.7945 51.1578 44.9776 50.9319 44.9776H41.3183C41.0923 44.9776 40.9092 44.7945 40.9092 44.5685ZM67.2955 36.7958H64.6361V47.6362H67.7043H67.7046V37.2049C67.7046 36.979 67.5215 36.7958 67.2955 36.7958ZM53.1819 36.7958H63.4089V47.6362H52.7728V37.2049C52.7728 36.979 52.956 36.7958 53.1819 36.7958ZM52.7728 51.7276V48.8635H63.4089V52.1362V52.1367H53.1819C52.956 52.1367 52.7728 51.9536 52.7728 51.7276ZM65.675 52.1367H64.6361V52.1362V48.8635H67.7043H67.7046V49.8043C67.7046 49.99 67.6414 50.1703 67.5253 50.3154L66.3139 51.8297C66.1587 52.0237 65.9236 52.1367 65.675 52.1367ZM43.828 32.5489L44.1817 32.3358L44.5354 32.5489C44.551 32.5589 44.5673 32.5631 44.5844 32.5617C44.6014 32.5602 44.6163 32.5545 44.6291 32.5446C44.6419 32.5347 44.6519 32.5223 44.659 32.5074C44.6661 32.4924 44.6675 32.4757 44.6632 32.4573L44.5695 32.0546L44.8827 31.784C44.8969 31.7712 44.9058 31.7567 44.9094 31.7403C44.9129 31.724 44.9118 31.708 44.9061 31.6924C44.9004 31.6767 44.8919 31.6639 44.8805 31.654C44.8692 31.6441 44.8536 31.6377 44.8337 31.6348L44.4203 31.5986L44.2605 31.2193C44.2534 31.2023 44.2424 31.1895 44.2275 31.181C44.2125 31.1725 44.1973 31.1682 44.1817 31.1682C44.1661 31.1682 44.1509 31.1725 44.1359 31.181C44.121 31.1895 44.11 31.2023 44.1028 31.2193L43.943 31.5986L43.5297 31.6348C43.5099 31.6376 43.4942 31.644 43.4828 31.654C43.4714 31.664 43.4629 31.6768 43.4573 31.6924C43.4516 31.7079 43.4506 31.7239 43.4541 31.7402C43.4576 31.7566 43.4665 31.7712 43.4807 31.784L43.7939 32.0546L43.7001 32.4573C43.6959 32.4758 43.6973 32.4925 43.7044 32.5074C43.7115 32.5223 43.7215 32.5347 43.7342 32.5446C43.747 32.5546 43.7619 32.5602 43.779 32.5617C43.796 32.5631 43.8124 32.5588 43.828 32.5489ZM48.2728 32.3358L47.9191 32.5489C47.9035 32.5588 47.8872 32.5631 47.8701 32.5617C47.8531 32.5602 47.8382 32.5546 47.8254 32.5446C47.8126 32.5347 47.8026 32.5223 47.7955 32.5074C47.7884 32.4925 47.787 32.4758 47.7913 32.4573L47.885 32.0546L47.5718 31.784C47.5576 31.7712 47.5487 31.7566 47.5452 31.7402C47.5417 31.7239 47.5428 31.7079 47.5484 31.6924C47.554 31.6768 47.5625 31.664 47.5739 31.654C47.5854 31.644 47.601 31.6376 47.6208 31.6348L48.0342 31.5986L48.194 31.2193C48.2011 31.2023 48.2121 31.1895 48.227 31.181C48.242 31.1725 48.2572 31.1682 48.2728 31.1682C48.2884 31.1682 48.3036 31.1725 48.3186 31.181C48.3335 31.1895 48.3445 31.2023 48.3516 31.2193L48.5114 31.5986L48.9248 31.6348C48.9447 31.6377 48.9603 31.6441 48.9717 31.654C48.983 31.6639 48.9916 31.6767 48.9972 31.6924C49.0029 31.708 49.004 31.724 49.0005 31.7403C48.997 31.7567 48.9881 31.7712 48.9738 31.784L48.6606 32.0546L48.7543 32.4573C48.7586 32.4757 48.7572 32.4924 48.7501 32.5074C48.743 32.5223 48.733 32.5347 48.7203 32.5446C48.7075 32.5545 48.6926 32.5602 48.6755 32.5617C48.6585 32.5631 48.6421 32.5589 48.6265 32.5489L48.2728 32.3358ZM42.1917 36.2309L42.5454 36.0179L42.8991 36.2309C42.9148 36.2409 42.9311 36.2452 42.9481 36.2437C42.9652 36.2423 42.9801 36.2366 42.9929 36.2267C43.0057 36.2168 43.0156 36.2044 43.0227 36.1894C43.0298 36.1745 43.0312 36.1578 43.027 36.1393L42.9332 35.7366L43.2464 35.466C43.2607 35.4533 43.2696 35.4388 43.2731 35.4224C43.2766 35.406 43.2755 35.39 43.2699 35.3744C43.2642 35.3588 43.2557 35.346 43.2443 35.3361C43.2329 35.3261 43.2173 35.3197 43.1974 35.3169L42.7841 35.2807L42.6243 34.9014C42.6172 34.8844 42.6061 34.8716 42.5912 34.8631C42.5763 34.8545 42.561 34.8503 42.5454 34.8503C42.5299 34.8503 42.5146 34.8545 42.4997 34.8631C42.4847 34.8716 42.4737 34.8844 42.4666 34.9014L42.3068 35.2807L41.8934 35.3169C41.8736 35.3197 41.858 35.3261 41.8466 35.3361C41.8351 35.3461 41.8266 35.3588 41.821 35.3744C41.8154 35.39 41.8143 35.4059 41.8178 35.4223C41.8214 35.4387 41.8302 35.4533 41.8444 35.466L42.1576 35.7366L42.0639 36.1393C42.0596 36.1579 42.0611 36.1746 42.0682 36.1894C42.0753 36.2043 42.0852 36.2167 42.098 36.2267C42.1108 36.2366 42.1257 36.2423 42.1427 36.2437C42.1598 36.2452 42.1761 36.2409 42.1917 36.2309ZM52.3635 32.3358L52.0098 32.5489C51.9941 32.5588 51.9778 32.5631 51.9608 32.5617C51.9437 32.5602 51.9288 32.5546 51.916 32.5446C51.9032 32.5347 51.8933 32.5223 51.8862 32.5074C51.8791 32.4925 51.8777 32.4758 51.8819 32.4573L51.9757 32.0546L51.6625 31.784C51.6483 31.7712 51.6394 31.7566 51.6359 31.7402C51.6324 31.7239 51.6334 31.7079 51.639 31.6924C51.6447 31.6768 51.6532 31.664 51.6646 31.654C51.676 31.644 51.6916 31.6376 51.7115 31.6348L52.1248 31.5986L52.2846 31.2193C52.2917 31.2023 52.3028 31.1895 52.3177 31.181C52.3326 31.1725 52.3479 31.1682 52.3635 31.1682C52.379 31.1682 52.3943 31.1725 52.4092 31.181C52.4242 31.1895 52.4352 31.2023 52.4423 31.2193L52.6021 31.5986L53.0155 31.6348C53.0353 31.6377 53.051 31.6441 53.0623 31.654C53.0737 31.6639 53.0822 31.6767 53.0879 31.6924C53.0936 31.708 53.0947 31.724 53.0911 31.7403C53.0876 31.7567 53.0787 31.7712 53.0645 31.784L52.7512 32.0546L52.845 32.4573C52.8493 32.4757 52.8478 32.4924 52.8407 32.5074C52.8336 32.5223 52.8237 32.5347 52.8109 32.5446C52.7981 32.5545 52.7832 32.5602 52.7662 32.5617C52.7491 32.5631 52.7328 32.5589 52.7172 32.5489L52.3635 32.3358ZM45.8738 36.2309L46.2275 36.0179L46.5812 36.2309C46.5968 36.2409 46.6132 36.2452 46.6302 36.2437C46.6472 36.2423 46.6622 36.2366 46.6749 36.2267C46.6877 36.2168 46.6977 36.2044 46.7048 36.1894C46.7119 36.1745 46.7133 36.1578 46.709 36.1393L46.6153 35.7366L46.9285 35.466C46.9428 35.4533 46.9516 35.4388 46.9552 35.4224C46.9587 35.406 46.9576 35.39 46.9519 35.3744C46.9462 35.3588 46.9377 35.346 46.9264 35.3361C46.915 35.3261 46.8994 35.3197 46.8795 35.3169L46.4661 35.2807L46.3063 34.9014C46.2992 34.8844 46.2882 34.8716 46.2733 34.8631C46.2583 34.8545 46.2431 34.8503 46.2275 34.8503C46.2119 34.8503 46.1967 34.8545 46.1817 34.8631C46.1668 34.8716 46.1558 34.8844 46.1487 34.9014L45.9889 35.2807L45.5755 35.3169C45.5557 35.3197 45.5401 35.3261 45.5286 35.3361C45.5172 35.3461 45.5087 35.3588 45.5031 35.3744C45.4974 35.39 45.4964 35.4059 45.4999 35.4223C45.5034 35.4387 45.5123 35.4533 45.5265 35.466L45.8397 35.7366L45.746 36.1393C45.7417 36.1579 45.7431 36.1746 45.7502 36.1894C45.7573 36.2043 45.7673 36.2167 45.7801 36.2267C45.7928 36.2366 45.8078 36.2423 45.8248 36.2437C45.8418 36.2452 45.8582 36.2409 45.8738 36.2309ZM49.9091 36.0179L49.5554 36.2309C49.5398 36.2409 49.5234 36.2452 49.5064 36.2437C49.4893 36.2423 49.4744 36.2366 49.4616 36.2267C49.4488 36.2167 49.4389 36.2043 49.4318 36.1894C49.4247 36.1746 49.4233 36.1579 49.4275 36.1393L49.5213 35.7366L49.2081 35.466C49.1939 35.4533 49.185 35.4387 49.1815 35.4223C49.178 35.4059 49.179 35.39 49.1846 35.3744C49.1903 35.3588 49.1988 35.3461 49.2102 35.3361C49.2216 35.3261 49.2373 35.3197 49.2571 35.3169L49.6704 35.2807L49.8302 34.9014C49.8373 34.8844 49.8484 34.8716 49.8633 34.8631C49.8783 34.8545 49.8935 34.8503 49.9091 34.8503C49.9246 34.8503 49.9399 34.8545 49.9548 34.8631C49.9698 34.8716 49.9808 34.8844 49.9879 34.9014L50.1477 35.2807L50.5611 35.3169C50.5809 35.3197 50.5966 35.3261 50.6079 35.3361C50.6193 35.346 50.6278 35.3588 50.6335 35.3744C50.6392 35.39 50.6403 35.406 50.6367 35.4224C50.6332 35.4388 50.6243 35.4533 50.6101 35.466L50.2969 35.7366L50.3906 36.1393C50.3949 36.1578 50.3934 36.1745 50.3863 36.1894C50.3792 36.2044 50.3693 36.2168 50.3565 36.2267C50.3437 36.2366 50.3288 36.2423 50.3118 36.2437C50.2947 36.2452 50.2784 36.2409 50.2628 36.2309L49.9091 36.0179ZM43.4189 39.5035L43.7726 39.2904L44.1263 39.5035C44.1419 39.5135 44.1583 39.5177 44.1753 39.5163C44.1924 39.5148 44.2073 39.5091 44.2201 39.4992C44.2328 39.4893 44.2428 39.4769 44.2499 39.462C44.257 39.447 44.2584 39.4303 44.2542 39.4119L44.1604 39.0092L44.4736 38.7386C44.4879 38.7258 44.4968 38.7113 44.5003 38.6949C44.5038 38.6786 44.5027 38.6626 44.4971 38.6469C44.4914 38.6313 44.4828 38.6185 44.4715 38.6086C44.4601 38.5986 44.4445 38.5923 44.4246 38.5894L44.0113 38.5532L43.8515 38.1739C43.8444 38.1569 43.8333 38.1441 43.8184 38.1356C43.8034 38.1271 43.7882 38.1228 43.7726 38.1228C43.7571 38.1228 43.7418 38.1271 43.7269 38.1356C43.7119 38.1441 43.7009 38.1569 43.6938 38.1739L43.534 38.5532L43.1206 38.5894C43.1008 38.5922 43.0852 38.5986 43.0738 38.6086C43.0623 38.6186 43.0538 38.6314 43.0482 38.6469C43.0426 38.6625 43.0415 38.6785 43.045 38.6948C43.0486 38.7112 43.0574 38.7258 43.0716 38.7386L43.3848 39.0092L43.2911 39.4119C43.2868 39.4304 43.2882 39.4471 43.2953 39.462C43.3025 39.4769 43.3124 39.4893 43.3252 39.4992C43.338 39.5092 43.3529 39.5148 43.3699 39.5163C43.387 39.5177 43.4033 39.5134 43.4189 39.5035ZM47.8637 39.2904L47.5101 39.5035C47.4944 39.5134 47.4781 39.5177 47.4611 39.5163C47.444 39.5148 47.4291 39.5092 47.4163 39.4992C47.4035 39.4893 47.3936 39.4769 47.3865 39.462C47.3794 39.4471 47.378 39.4304 47.3822 39.4119L47.476 39.0092L47.1628 38.7386C47.1486 38.7258 47.1397 38.7112 47.1362 38.6948C47.1326 38.6785 47.1337 38.6625 47.1393 38.6469C47.1449 38.6314 47.1535 38.6186 47.1649 38.6086C47.1763 38.5986 47.1919 38.5922 47.2118 38.5894L47.6251 38.5532L47.7849 38.1739C47.792 38.1569 47.803 38.1441 47.818 38.1356C47.8329 38.1271 47.8482 38.1228 47.8637 38.1228C47.8793 38.1228 47.8946 38.1271 47.9095 38.1356C47.9245 38.1441 47.9355 38.1569 47.9426 38.1739L48.1024 38.5532L48.5157 38.5894C48.5356 38.5923 48.5512 38.5986 48.5626 38.6086C48.574 38.6185 48.5825 38.6313 48.5882 38.6469C48.5939 38.6626 48.5949 38.6786 48.5914 38.6949C48.5879 38.7113 48.579 38.7258 48.5647 38.7386L48.2515 39.0092L48.3453 39.4119C48.3495 39.4303 48.3481 39.447 48.341 39.462C48.3339 39.4769 48.324 39.4893 48.3112 39.4992C48.2984 39.5091 48.2835 39.5148 48.2664 39.5163C48.2494 39.5177 48.2331 39.5135 48.2174 39.5035L47.8637 39.2904ZM41.3735 43.1851L41.7271 42.972L42.0808 43.1851C42.0965 43.1951 42.1128 43.1993 42.1298 43.1978C42.1469 43.1964 42.1618 43.1907 42.1746 43.1808C42.1874 43.1709 42.1973 43.1585 42.2044 43.1435C42.2115 43.1286 42.2129 43.1119 42.2087 43.0934L42.1149 42.6907L42.4281 42.4201C42.4424 42.4074 42.4513 42.3929 42.4548 42.3765C42.4583 42.3601 42.4573 42.3441 42.4516 42.3285C42.4459 42.3129 42.4374 42.3001 42.426 42.2902C42.4146 42.2802 42.399 42.2738 42.3791 42.271L41.9658 42.2348L41.806 41.8555C41.7989 41.8385 41.7879 41.8257 41.7729 41.8172C41.758 41.8086 41.7427 41.8044 41.7271 41.8044C41.7116 41.8044 41.6963 41.8086 41.6814 41.8172C41.6664 41.8257 41.6554 41.8385 41.6483 41.8555L41.4885 42.2348L41.0752 42.271C41.0553 42.2738 41.0397 42.2802 41.0283 42.2902C41.0169 42.3002 41.0083 42.3129 41.0027 42.3285C40.9971 42.3441 40.996 42.3601 40.9996 42.3764C41.0031 42.3928 41.0119 42.4074 41.0262 42.4201L41.3394 42.6907L41.2456 43.0934C41.2414 43.112 41.2428 43.1287 41.2499 43.1435C41.257 43.1584 41.2669 43.1708 41.2797 43.1808C41.2925 43.1907 41.3074 43.1964 41.3244 43.1978C41.3415 43.1993 41.3578 43.195 41.3735 43.1851ZM45.8179 42.972L45.4643 43.1851C45.4486 43.195 45.4323 43.1993 45.4152 43.1978C45.3982 43.1964 45.3833 43.1907 45.3705 43.1808C45.3577 43.1708 45.3478 43.1584 45.3407 43.1435C45.3336 43.1287 45.3322 43.112 45.3364 43.0934L45.4302 42.6907L45.117 42.4201C45.1027 42.4074 45.0939 42.3928 45.0904 42.3764C45.0868 42.3601 45.0879 42.3441 45.0935 42.3285C45.0991 42.3129 45.1077 42.3002 45.1191 42.2902C45.1305 42.2802 45.1461 42.2738 45.166 42.271L45.5793 42.2348L45.7391 41.8555C45.7462 41.8385 45.7572 41.8257 45.7722 41.8172C45.7871 41.8086 45.8024 41.8044 45.8179 41.8044C45.8335 41.8044 45.8488 41.8086 45.8637 41.8172C45.8787 41.8257 45.8897 41.8385 45.8968 41.8555L46.0566 42.2348L46.4699 42.271C46.4898 42.2738 46.5054 42.2802 46.5168 42.2902C46.5282 42.3001 46.5367 42.3129 46.5424 42.3285C46.5481 42.3441 46.5491 42.3601 46.5456 42.3765C46.5421 42.3929 46.5332 42.4074 46.5189 42.4201L46.2057 42.6907L46.2995 43.0934C46.3037 43.1119 46.3023 43.1286 46.2952 43.1435C46.2881 43.1585 46.2782 43.1709 46.2654 43.1808C46.2526 43.1907 46.2377 43.1964 46.2206 43.1978C46.2036 43.1993 46.1873 43.1951 46.1716 43.1851L45.8179 42.972ZM49.5554 43.1851L49.9091 42.972L50.2628 43.1851C50.2784 43.1951 50.2947 43.1993 50.3118 43.1978C50.3288 43.1964 50.3437 43.1907 50.3565 43.1808C50.3693 43.1709 50.3792 43.1585 50.3863 43.1435C50.3934 43.1286 50.3949 43.1119 50.3906 43.0934L50.2969 42.6907L50.6101 42.4201C50.6243 42.4074 50.6332 42.3929 50.6367 42.3765C50.6403 42.3601 50.6392 42.3441 50.6335 42.3285C50.6278 42.3129 50.6193 42.3001 50.6079 42.2902C50.5966 42.2802 50.5809 42.2738 50.5611 42.271L50.1477 42.2348L49.9879 41.8555C49.9808 41.8385 49.9698 41.8257 49.9548 41.8172C49.9399 41.8086 49.9246 41.8044 49.9091 41.8044C49.8935 41.8044 49.8783 41.8086 49.8633 41.8172C49.8484 41.8257 49.8373 41.8385 49.8302 41.8555L49.6704 42.2348L49.2571 42.271C49.2373 42.2738 49.2216 42.2802 49.2102 42.2902C49.1988 42.3002 49.1903 42.3129 49.1846 42.3285C49.179 42.3441 49.178 42.3601 49.1815 42.3764C49.185 42.3928 49.1939 42.4074 49.2081 42.4201L49.5213 42.6907L49.4275 43.0934C49.4233 43.112 49.4247 43.1287 49.4318 43.1435C49.4389 43.1584 49.4488 43.1708 49.4616 43.1808C49.4744 43.1907 49.4893 43.1964 49.5064 43.1978C49.5234 43.1993 49.5398 43.195 49.5554 43.1851Z" fill="white"/>
</svg>
