<svg width="100" height="100" viewBox="0 0 100 100" fill="none" xmlns="http://www.w3.org/2000/svg">
<circle opacity="0.7" cx="50" cy="50" r="50" fill="#7FC8F5"/>
<path fill-rule="evenodd" clip-rule="evenodd" d="M58.4664 71.2808H40.4233C39.5966 71.2808 38.7699 69.2321 38.6981 68.5851C38.639 68.0538 38.6769 53.5837 38.6924 47.691C38.6958 46.4084 38.6981 45.5321 38.6981 45.2944C38.6981 44.4416 39.7622 42.7611 40.5163 41.5703C40.9381 40.9042 41.2629 40.3914 41.25 40.2625C41.2393 40.1556 41.0286 40.1123 40.732 40.0513C40.0308 39.9071 38.8496 39.6642 38.6981 38.2497C38.4824 36.2369 38.5902 33.2177 38.6981 32.7505C38.8059 32.2832 39.0575 31.7799 39.6326 31.3128C40.1032 30.9305 41.2959 30.8851 41.7137 30.8812C41.8028 30.8804 41.8833 30.8273 41.9086 30.7418C41.9286 30.6739 41.9491 30.5954 41.9718 30.5087L41.9718 30.5087L41.9718 30.5087C42.209 29.6003 42.6815 27.7906 45.3834 27.7905C48.5463 27.7904 53.8299 27.7904 54.7643 27.9342C55.6988 28.078 57.0646 29.4436 57.2084 31.0252C57.3363 32.4321 57.2367 37.3652 57.2131 38.4381C57.2106 38.5552 57.1224 38.645 57.0053 38.645L44.7723 38.645C44.4848 38.645 44.0175 38.7529 44.0175 39.2201C44.0175 39.6873 44.0895 40.2265 44.6286 40.1906C45.1677 40.1547 57.4601 39.9749 57.7835 40.2625C58.107 40.55 60.4073 45.2225 60.4073 45.7976V49.464C60.4073 49.5831 60.3108 49.6794 60.1917 49.6794H48.4385C48.3194 49.6794 48.2228 49.7759 48.2228 49.895V64.8471C48.2228 64.9662 48.3194 65.0628 48.4385 65.0628H60.1917C60.3108 65.0628 60.4073 65.1579 60.4073 65.277V69.2321C60.4073 69.8431 59.0415 71.2808 58.4664 71.2808ZM60.1917 51.1171H49.8043C49.6852 51.1171 49.5886 51.2136 49.5886 51.3327V63.3016C49.5886 63.4207 49.6852 63.5172 49.8043 63.5172H60.1917C60.3108 63.5172 60.4073 63.4207 60.4073 63.3016V51.3327C60.4073 51.2136 60.3108 51.1171 60.1917 51.1171ZM40.1715 33.182C40.1715 32.785 40.4933 32.4631 40.8903 32.4631H41.6811C41.7208 32.4631 41.753 32.4953 41.753 32.535V38.5733C41.753 38.6131 41.7208 38.6452 41.6811 38.6452H40.8903C40.4933 38.6452 40.1715 38.3234 40.1715 37.9264V33.182ZM41.7531 45.6898C41.7531 46.1265 42.1072 46.4805 42.5439 46.4805H53.3266C53.7633 46.4805 54.1174 46.1265 54.1174 45.6898C54.1174 45.2531 53.7633 44.8991 53.3266 44.8991H42.5439C42.1072 44.8991 41.7531 45.2531 41.7531 45.6898Z" fill="white"/>
</svg>
