<svg width="100" height="100" viewBox="0 0 100 100" fill="none" xmlns="http://www.w3.org/2000/svg">
<circle opacity="0.7" cx="50" cy="50" r="50" fill="#F5A27F"/>
<path fill-rule="evenodd" clip-rule="evenodd" d="M36.8232 69.9743C37.3535 70.7698 46.8996 70.7698 46.8996 69.9743V67.3226C46.8996 67.0574 47.1647 65.2013 49.0209 65.2013C50.8771 65.2013 51.1423 66.7923 51.1423 67.3226V69.9743C51.1423 70.7698 61.2187 70.7698 61.4839 69.9743C61.5978 69.6324 61.3689 64.5885 61.1129 58.9474C60.7733 51.4629 60.3859 42.9271 60.6883 42.9271C60.9098 42.9271 61.3625 43.4358 61.8726 44.009C62.584 44.8084 63.4071 45.7332 63.8704 45.5788C64.6659 45.3136 68.1131 41.0709 68.1131 40.2754C68.1131 39.4799 64.1355 32.5855 63.34 31.79C62.5445 30.9945 58.3018 27.8125 57.2412 27.5473C56.8166 27.4412 56.0948 27.8448 55.1607 28.367C53.7607 29.1497 51.884 30.199 49.8164 30.199C47.2846 30.199 44.3238 28.9117 42.5095 28.1229C41.8536 27.8378 41.3475 27.6177 41.0659 27.5473C40.0052 27.2821 35.7625 30.7294 34.967 31.79C34.1715 32.8506 29.9288 39.48 30.1939 40.2754C30.4591 41.0709 33.6411 45.3136 34.4366 45.3136C34.8831 45.3136 35.58 44.4786 36.1525 43.7926C36.6003 43.2561 36.972 42.8107 37.0883 42.9271C37.1978 43.0366 37.0814 47.5267 36.9442 52.8191C36.749 60.3508 36.5117 69.5071 36.8232 69.9743ZM44.1696 29.6634C45.5767 30.3942 47.2042 31.2395 49.0203 31.2597C50.9226 31.2808 52.8288 30.3134 54.3576 29.5375C55.4878 28.9639 56.4118 28.495 56.9753 28.6077C58.3011 28.8728 55.6711 36.0324 49.0203 36.0324C43.7174 36.0324 39.4741 28.6076 41.3304 28.6077C42.137 28.6077 43.0882 29.1018 44.1696 29.6634Z" fill="white"/>
</svg>
