<svg width="100" height="100" viewBox="0 0 100 100" fill="none" xmlns="http://www.w3.org/2000/svg">
<circle opacity="0.7" cx="50" cy="50" r="50" fill="#D87FF5"/>
<path fill-rule="evenodd" clip-rule="evenodd" d="M34.1494 47.4275C35.1226 46.6263 36.1252 45.8009 36.5429 46.2186C36.9405 46.6162 36.7417 51.8516 36.5429 57.087C36.3441 62.3223 36.1453 67.5577 36.5429 67.9553C37.3382 68.7506 61.9908 69.2807 63.0511 67.9553C63.5894 67.2825 63.3079 61.6915 63.039 56.349C62.7781 51.1669 62.5291 46.2186 63.0511 46.2186C63.5518 46.2186 64.2887 46.7504 65.0668 47.3119C65.9367 47.9396 66.8579 48.6043 67.5575 48.6043C68.8829 48.6043 71.0036 43.0376 71.2687 41.7122C71.5338 40.3868 66.2321 34.8201 65.1718 33.7597C64.1115 32.6994 60.1352 31.1089 58.0146 30.5788C55.8939 30.0486 43.4351 30.0486 42.1096 30.5788C41.9856 30.6284 41.8314 30.6896 41.6529 30.7604C39.9238 31.4469 35.9135 33.0389 34.9524 33.7597C33.8921 34.555 28.5905 40.6519 28.5905 41.7122C28.5905 42.7725 31.2413 48.0742 32.0365 48.6043C32.4141 48.8561 33.2697 48.1517 34.1494 47.4275ZM42.3867 31.7713C42.6518 31.2412 57.2313 31.2412 57.4964 31.7713C57.7614 32.3015 53.7852 36.8079 50.0741 36.8079C46.3629 36.8079 42.1216 32.3014 42.3867 31.7713Z" fill="white"/>
</svg>
