<svg width="100" height="100" viewBox="0 0 100 100" fill="none" xmlns="http://www.w3.org/2000/svg">
<circle opacity="0.7" cx="50" cy="50" r="50" fill="#F57FAC"/>
<path d="M35.4423 67.3289L34.9611 67.0883C34.9051 67.0603 34.8706 67.0069 34.8732 66.9444C34.9182 65.8639 35.3206 56.2022 35.3456 55.9524C35.372 55.6877 35.9543 51.294 36.2455 51.2146C36.2455 51.2146 43.63 31.4697 43.8682 31.2844C44.1064 31.0991 45.7209 30.1463 45.9062 29.961C46.0915 29.7757 48.2354 26.5731 48.3148 26.2555C48.3683 26.0414 48.6143 24.6364 48.7689 23.7435C48.7983 23.5741 49.0387 23.5653 49.0805 23.7319C49.2923 24.5751 49.6206 25.8766 49.6911 26.1232C49.797 26.4937 50.988 28.9023 51.3056 29.1405C51.6232 29.3787 53.8465 30.9139 54.1906 31.2844C54.5347 31.655 56.9697 38.166 57.1815 38.616C57.3932 39.0659 59.8018 44.6506 60.1988 45.1535C60.5958 45.6564 63.3749 50.103 63.5602 50.6059C63.7455 51.1088 64.1534 54.3378 64.1534 54.3378C64.1534 54.3378 64.2219 54.5231 64.513 55.3436C64.7881 56.1187 65.1812 65.5153 65.2239 66.5525C65.2263 66.6124 65.1946 66.6637 65.1422 66.6928L64.7415 66.9154C64.6374 66.9733 64.509 66.9002 64.5056 66.7811L64.1534 54.3378C64.1534 54.3378 63.0838 51.0294 62.8191 50.6059C62.5544 50.1824 57.6314 45.6035 57.1815 45.1535C56.7315 44.7036 53.6612 40.0982 53.2378 39.6218C52.8668 39.2045 50.2015 33.8531 49.5455 32.531C49.4865 32.4121 49.3174 32.4117 49.2605 32.5317C48.6069 33.9118 45.8649 39.6948 45.5621 40.2305C45.218 40.8393 41.8037 46.0005 41.3537 46.5298C40.9038 47.0592 37.0395 51.4264 36.2455 51.2146L35.672 67.1926C35.6679 67.3081 35.5457 67.3806 35.4423 67.3289Z" fill="white"/>
<path fill-rule="evenodd" clip-rule="evenodd" d="M36.3774 63.1356V51.6159C36.3774 51.5298 36.4193 51.4492 36.4896 51.3996L37.5949 50.6204C37.7703 50.4968 38.0121 50.6222 38.0121 50.8368V51.6963C38.0121 51.8425 38.1306 51.961 38.2768 51.961H61.9189C62.0651 51.961 62.1836 51.8425 62.1836 51.6963V50.7083C62.1836 50.5235 62.3682 50.3956 62.5412 50.4605L64.1557 51.0659C64.259 51.1046 64.3274 51.2034 64.3274 51.3137V63.1356V66.8605H61.9242L61.1754 62.4586C61.1699 62.4264 61.1585 62.3955 61.1418 62.3674L59.5023 59.6181C59.4545 59.538 59.3682 59.489 59.2749 59.489H42.516C42.4318 59.489 42.3525 59.5291 42.3026 59.597L40.2787 62.3547C40.2521 62.3909 40.2352 62.4333 40.2295 62.4779L39.6723 66.8605H36.3774V63.1356ZM60.0603 58.5591L61.8489 53.6081C61.8588 53.5807 61.8732 53.5551 61.8915 53.5323L62.8893 52.2897C63.0362 52.1068 63.3309 52.1912 63.3585 52.4242L63.92 57.1501C63.9248 57.1903 63.9203 57.231 63.9069 57.2692L62.4146 61.5092C62.3422 61.7148 62.0662 61.7497 61.9449 61.5686L60.0893 58.7963C60.0425 58.7263 60.0317 58.6383 60.0603 58.5591ZM37.6924 57.8007C37.9476 58.7577 38.9116 60.8455 39.2987 61.6666C39.3772 61.8331 39.5949 61.8676 39.7193 61.7319C40.3276 61.0683 41.7916 59.387 41.6852 58.685C41.5656 57.8956 39.3491 53.3437 38.8748 52.3759C38.8216 52.2675 38.7033 52.2126 38.587 52.2449C38.3569 52.3089 37.9738 52.4353 37.6924 52.6288C37.2636 52.9235 37.3708 56.5948 37.6924 57.8007ZM42.3274 58.4925L40.7623 52.9655C40.7145 52.7966 40.8414 52.6288 41.017 52.6288H44.9846C45.1308 52.6288 45.2493 52.7473 45.2493 52.8934V58.4203C45.2493 58.5665 45.1308 58.685 44.9846 58.685H42.5821C42.4637 58.685 42.3597 58.6064 42.3274 58.4925ZM45.6955 52.9098L46.0379 58.4367C46.0465 58.5763 46.1622 58.685 46.302 58.685H49.3259C49.472 58.685 49.5905 58.5665 49.5905 58.4203V52.8934C49.5905 52.7473 49.472 52.6288 49.3259 52.6288H45.9597C45.807 52.6288 45.6861 52.7575 45.6955 52.9098ZM50.4028 58.4402L49.9871 52.9133C49.9756 52.7597 50.097 52.6288 50.251 52.6288H53.7743C53.9204 52.6288 54.0389 52.7473 54.0389 52.8934V58.4203C54.0389 58.5665 53.9204 58.685 53.7743 58.685H50.6668C50.5283 58.685 50.4132 58.5783 50.4028 58.4402ZM54.5695 52.9133L54.9852 58.4402C54.9956 58.5783 55.1107 58.685 55.2492 58.685H59.1851C59.3214 58.685 59.4353 58.5816 59.4485 58.446L59.9866 52.9191C60.0017 52.7635 59.8794 52.6288 59.7231 52.6288H54.8334C54.6794 52.6288 54.558 52.7597 54.5695 52.9133Z" fill="white"/>
<path d="M41.3122 63.6846L39.5814 77.322C39.5622 77.4732 39.6801 77.607 39.8325 77.607H62.1307C62.2875 77.607 62.4065 77.466 62.3803 77.3115L60.0635 63.6662C60.0583 63.6354 60.0474 63.6059 60.0314 63.5791L58.5699 61.1237C58.5243 61.047 58.4416 61 58.3524 61H43.3679C43.2872 61 43.2113 61.0385 43.1636 61.1035L41.3591 63.5668C41.3337 63.6015 41.3176 63.642 41.3122 63.6846Z" fill="white"/>
</svg>
