<svg width="100" height="100" viewBox="0 0 100 100" fill="none" xmlns="http://www.w3.org/2000/svg">
<circle opacity="0.7" cx="50" cy="50" r="50" fill="#7FC8F5"/>
<path d="M65.1261 32.2383C64.3404 32.2425 63.3108 32.5088 62.0529 33.1063C52.9453 32.4712 41.9537 33.7984 34.6279 36.0996C29.3187 33.6463 28.44 36.0622 30.853 39.28C27.9002 48.0456 29.1947 56.9533 32.335 63.326C31.3673 67.5124 33.8261 67.3248 35.9536 65.6508C50.9627 66.4506 60.7238 64.1989 66.7048 59.6157C68.815 61.3059 70.3663 59.0879 69.5057 56.3764C70.5535 50.065 68.7085 41.6715 66.3335 35.8294C67.5078 33.7663 67.0385 32.228 65.1261 32.2383ZM33.7152 39.0903C38.3427 44.4556 38.4272 56.7018 35.6267 63.9988C36.2459 56.0086 35.8468 44.3401 33.7152 39.0903Z" fill="white"/>
</svg>
