<svg width="100" height="100" viewBox="0 0 100 100" fill="none" xmlns="http://www.w3.org/2000/svg">
<circle opacity="0.7" cx="50" cy="50" r="50" fill="#F5E57F"/>
<path d="M48.0938 43.875H50.9062V42.4688C50.9062 42.0958 51.0544 41.7381 51.3181 41.4744C51.5819 41.2107 51.9395 41.0625 52.3125 41.0625H56.5312C56.9042 41.0625 57.2619 41.2107 57.5256 41.4744C57.7893 41.7381 57.9375 42.0958 57.9375 42.4688V43.875H63.5625V38.25C63.5625 36.7582 62.9699 35.3274 61.915 34.2725C60.8601 33.2176 59.4293 32.625 57.9375 32.625H41.0625C39.5707 32.625 38.1399 33.2176 37.085 34.2725C36.0301 35.3274 35.4375 36.7582 35.4375 38.25V43.875H41.0625V42.4688C41.0625 42.0958 41.2107 41.7381 41.4744 41.4744C41.7381 41.2107 42.0958 41.0625 42.4688 41.0625H46.6875C47.0605 41.0625 47.4181 41.2107 47.6819 41.4744C47.9456 41.7381 48.0938 42.0958 48.0938 42.4688V43.875ZM36.8438 46.6875C34.9789 46.6875 33.1905 47.4283 31.8719 48.7469C30.5533 50.0655 29.8125 51.8539 29.8125 53.7188V64.9688C29.8125 65.3417 29.9607 65.6994 30.2244 65.9631C30.4881 66.2268 30.8458 66.375 31.2188 66.375C31.5917 66.375 31.9494 66.2268 32.2131 65.9631C32.4768 65.6994 32.625 65.3417 32.625 64.9688V57.9375H66.375V64.9688C66.375 65.3417 66.5232 65.6994 66.7869 65.9631C67.0506 66.2268 67.4083 66.375 67.7812 66.375C68.1542 66.375 68.5119 66.2268 68.7756 65.9631C69.0393 65.6994 69.1875 65.3417 69.1875 64.9688V53.7188C69.1875 51.8539 68.4467 50.0655 67.1281 48.7469C65.8095 47.4283 64.0211 46.6875 62.1562 46.6875H36.8438Z" fill="white"/>
</svg>
