<svg width="100" height="100" viewBox="0 0 100 100" fill="none" xmlns="http://www.w3.org/2000/svg">
<circle opacity="0.7" cx="50" cy="50" r="50" fill="#7FC8F5"/>
<path d="M47.5209 49.8482C47.5209 49.8482 47.7456 41.5014 48.2932 39.1339C48.8408 36.7665 51.8035 28.2679 52.2809 27.4181C52.7583 26.5682 53.9096 26.123 55.1733 26.123C56.437 26.123 65.5778 26.2849 67.0661 26.5682C68.5545 26.8515 69.0319 27.236 69.3408 28.4804C69.6497 29.7248 66.3641 37.3938 66.0552 39.1339C65.7463 40.8741 65.2689 50.2934 65.2689 50.2934" stroke="white" stroke-width="2" stroke-linecap="round"/>
<path d="M70.5606 57.2276C70.5606 59.8323 69.6202 61.9438 68.3008 61.9438C66.3076 61.9438 66.4579 59.9085 66.6305 57.2276C66.8129 54.3923 67.8657 52.315 69.2131 52.5817C70.3922 52.815 70.5606 55.3327 70.5606 57.2276Z" fill="white"/>
<path d="M60.3703 64.6661C60.3703 67.2708 58.9526 69.8174 57.3104 69.6069C55.6681 69.3963 55.3083 67.4082 55.4717 64.6661C55.6108 62.3313 56.7789 59.3184 58.1526 59.3184C59.6685 59.3184 60.3703 62.7713 60.3703 64.6661Z" fill="white"/>
<path d="M32.1716 61.2839C32.7003 62.87 33.6033 63.2209 33.6033 64.0069C33.5068 65.0083 32.0172 66.4071 30.4388 65.9158C28.8579 65.4238 28.6001 63.722 28.6001 60.9751C28.6001 57.5924 31.0865 55.3606 31.4698 56.1888C32.178 57.7188 31.526 59.3469 32.1716 61.2839Z" fill="white"/>
<path d="M44.8505 57.9927C44.8704 58.0976 44.8014 58.1533 44.7136 58.1533C44.6259 58.1533 44.5452 58.0762 44.5452 57.9788C44.5452 57.8814 44.5908 57.8164 44.6785 57.8164C44.7663 57.8164 44.8347 57.9092 44.8505 57.9927Z" fill="white"/>
<path d="M45.5805 58.0767C45.6003 58.1816 45.5313 58.2373 45.4436 58.2373C45.3559 58.2373 45.2751 58.1602 45.2751 58.0628C45.2751 57.9654 45.3208 57.9004 45.4085 57.9004C45.4962 57.9004 45.5647 57.9932 45.5805 58.0767Z" fill="white"/>
<path fill-rule="evenodd" clip-rule="evenodd" d="M32.1372 54.8593C32.3915 52.4277 33.0415 48.0669 37.2523 45.5866C41.4632 43.1063 45.0523 43.7386 46.7903 45.2462C46.7903 45.2462 46.7162 46.1702 46.7903 46.4944C46.8644 46.8187 58.5326 47.9534 58.5326 47.9534C59.3556 47.8056 59.9905 47.5089 60.6056 47.2214C61.3998 46.8502 62.1611 46.4944 63.2521 46.4944C65.188 46.4944 67.0108 47.921 67.4347 48.6019C67.8586 49.2827 68.0564 50.1419 67.8586 50.6445C67.8112 50.765 67.7191 50.9637 67.6051 51.2097L67.6049 51.2101L67.6048 51.2103C67.2433 51.9904 66.662 53.2447 66.5869 53.9839C66.5452 54.3935 66.5236 54.9469 66.5031 55.4733V55.4733C66.4748 56.1969 66.4485 56.8695 66.3749 57.0478C66.2477 57.3559 60.7934 62.0084 60.4826 61.8301C60.3197 61.7367 60.1801 60.998 60.0353 60.2319C59.9038 59.5358 59.7679 58.8171 59.6065 58.5393C59.2674 57.9557 57.4728 57.4531 56.7522 58.5393C56.0315 59.6254 55.4381 61.1168 55.2544 62.3002C55.1837 62.7552 55.1946 63.4114 55.205 64.0405C55.2216 65.0477 55.2371 65.9851 54.9152 65.9153C54.6018 65.8472 54.3646 64.5618 54.1579 63.4416C54.0197 62.6931 53.8952 62.0184 53.7707 61.8301C53.6042 61.5783 49.306 60.931 45.2591 60.3843C45.3248 60.3506 45.3833 60.2989 45.4269 60.2291C45.5979 59.9554 45.7868 59.6637 45.9209 59.487C46.0474 59.3202 46.1669 59.0121 46.2638 58.7064C46.7683 59.3853 47.5869 59.8239 48.4475 59.8239C49.8506 59.8239 50.9543 58.9817 50.6371 57.3956C50.3845 56.1323 49.2891 54.7287 47.886 54.7287C46.4829 54.7287 45.7525 55.7122 45.7525 57.1851C45.7525 57.3385 45.7665 57.4887 45.7933 57.6345C45.5388 57.5703 45.2678 57.511 45.0787 57.4938C44.9483 57.482 44.7768 57.4701 44.5975 57.4592C44.6743 57.1865 44.7137 56.8829 44.7137 56.5535C44.461 55.2902 43.3657 53.8866 41.9626 53.8866C40.5595 53.8866 39.8291 54.8701 39.8291 56.343C39.8291 57.8158 41.1209 58.9818 42.524 58.9818C43.1024 58.9818 43.576 58.8194 43.9329 58.5254C44.0236 58.8368 44.1131 59.1124 44.1664 59.1922C44.24 59.3026 44.4688 59.77 44.6699 60.1897C44.6941 60.2401 44.726 60.2828 44.7632 60.3176C41.4443 59.8736 38.4192 59.5119 38.1567 59.5119C37.818 59.5119 36.4991 60.4833 35.3503 61.3295C34.4861 61.9661 33.7181 62.5318 33.5361 62.5596C33.1122 62.6244 32.4198 61.3113 32.1372 59.5119C31.8546 57.7125 31.8828 57.291 32.1372 54.8593Z" fill="white"/>
<path fill-rule="evenodd" clip-rule="evenodd" d="M42.3302 57.1988C42.697 57.1988 42.9856 56.9714 42.9027 56.5432C42.8366 56.2022 42.5503 55.8232 42.1834 55.8232C41.8166 55.8232 41.6257 56.0887 41.6257 56.4864C41.6257 56.884 41.9634 57.1988 42.3302 57.1988ZM42.0471 56.413C42.1348 56.413 42.2038 56.3574 42.1839 56.2525C42.1682 56.169 42.0997 56.0762 42.012 56.0762C41.9242 56.0762 41.8786 56.1412 41.8786 56.2386C41.8786 56.336 41.9593 56.413 42.0471 56.413Z" fill="white"/>
<path fill-rule="evenodd" clip-rule="evenodd" d="M48.2255 57.9849C48.5923 57.9849 48.8809 57.7576 48.7979 57.3294C48.7319 56.9883 48.4455 56.6094 48.0787 56.6094C47.7119 56.6094 47.5209 56.8749 47.5209 57.2725C47.5209 57.6702 47.8587 57.9849 48.2255 57.9849ZM47.9419 57.171C48.0296 57.171 48.0986 57.1153 48.0788 57.0105C48.063 56.927 47.9945 56.8342 47.9068 56.8342C47.8191 56.8342 47.7734 56.8992 47.7734 56.9966C47.7734 57.0939 47.8542 57.171 47.9419 57.171Z" fill="white"/>
</svg>
