<svg width="100" height="101" viewBox="0 0 100 101" fill="none" xmlns="http://www.w3.org/2000/svg">
<circle opacity="0.7" cx="50" cy="50.5" r="50" fill="#F57FAC"/>
<path d="M48.9797 41.0461C47.549 41.4362 38.185 46.5085 37.5346 46.8987C36.8843 47.2889 36.4186 48.2578 36.7543 49.1097C37.1609 50.1418 38.3149 50.1502 39.4855 49.89C40.656 49.6299 44.6877 46.7687 45.4681 46.8987C46.2485 47.0288 47.0289 49.89 47.0288 50.8005V50.8015C47.0288 51.7127 47.0286 54.1823 46.5086 54.9623C45.9884 55.7426 43.7774 57.8236 43.9074 59.3843C44.0374 60.945 46.5086 65.497 46.5086 65.497L51.5808 63.9363C51.5808 63.9363 49.4999 60.4247 49.76 59.3843C50.0202 58.3438 50.0201 58.2137 50.9306 57.5635C51.841 56.9132 54.8323 56.0028 55.6126 53.7918C56.393 51.5808 56.6531 50.0201 56.393 48.4594C56.1329 46.8987 54.8323 42.997 53.2716 41.6964C51.7109 40.3958 50.4104 40.656 48.9797 41.0461Z" fill="white"/>
<circle cx="37.1445" cy="67.5783" r="2.34104" fill="white"/>
<circle cx="49.8902" cy="67.5783" r="2.34104" fill="white"/>
<circle cx="46.3786" cy="34.4134" r="5.33237" fill="white"/>
<circle cx="62.6358" cy="67.5783" r="2.34104" fill="white"/>
<rect x="57.4335" y="53.792" width="14.5665" height="3.3815" rx="1.69075" transform="rotate(-90 57.4335 53.792)" fill="white"/>
<rect x="57.4335" y="65.2373" width="13.0058" height="1.82081" rx="0.910405" transform="rotate(-90 57.4335 65.2373)" fill="white"/>
<rect x="40.0058" y="65.2373" width="13.0058" height="1.82081" rx="0.910405" transform="rotate(-90 40.0058 65.2373)" fill="white"/>
<rect x="32.4624" y="62.8955" width="34.8555" height="3.90173" rx="1.95087" fill="white"/>
<rect x="36.1041" y="51.1904" width="27.5723" height="3.3815" rx="1.69075" fill="white"/>
</svg>
