<svg width="100" height="100" viewBox="0 0 100 100" fill="none" xmlns="http://www.w3.org/2000/svg">
<circle opacity="0.7" cx="50" cy="50" r="50" fill="#7FC8F5"/>
<path fill-rule="evenodd" clip-rule="evenodd" d="M49.5225 30.9755C46.297 30.8058 44.0628 29.6446 42.5342 28.8501C41.707 28.4202 41.0865 28.0976 40.6272 28.0976C39.3191 28.0976 28.8539 35.9466 28.5923 37.2546C28.3307 38.5626 30.4237 44.3186 30.9469 44.8418C31.197 45.0918 31.9248 44.9835 32.7595 44.8592C33.6717 44.7234 34.7115 44.5686 35.3946 44.8418C36.7028 45.3651 38.2725 46.4116 38.2725 47.9813V62.1093C38.2725 64.7254 42.7202 69.6963 43.5051 70.4813C44.29 71.2663 54.7551 71.0045 56.0632 70.4813C57.3714 69.9582 61.2958 63.1557 61.2958 61.586V49.5511C61.2958 48.5045 61.5574 46.6731 63.9121 45.3651C65.1828 44.6591 66.0726 44.8675 66.8281 45.0445C67.4725 45.1954 68.0192 45.3235 68.6214 44.8418C69.9295 43.7954 71.2376 38.5629 70.7144 37.2546C70.1911 35.9464 64.6969 32.022 64.6969 32.022C64.6969 32.022 60.7725 28.6209 58.9411 28.0976C58.1792 27.8799 57.2814 28.3868 56.1348 29.0341C54.5253 29.9428 52.4254 31.1283 49.5225 30.9755ZM53.1852 43.0108C51.7898 43.0108 50.9758 44.0573 50.4332 44.755C50.1618 45.1038 49.9584 45.3654 49.784 45.3654C49.619 45.3654 49.4912 45.1313 49.3163 44.8108C48.9363 44.1146 48.3338 43.0108 46.6445 43.0108C44.1772 43.0108 43.7666 44.5805 44.0282 46.4119C44.2498 47.9633 48.226 51.7674 49.4369 52.8945C49.6337 53.0777 49.9343 53.0777 50.1311 52.8945C51.342 51.7674 55.3182 47.9633 55.5398 46.4119C55.8014 44.5805 55.2782 43.0108 53.1852 43.0108ZM43.3436 30.1462C45.2119 31.0867 47.7967 32.3878 49.8238 32.3878C51.7781 32.3878 54.4234 31.0921 56.3701 30.1386C57.8113 29.4327 58.8695 28.9144 58.9808 29.2483C59.2424 30.0332 56.063 35.6852 49.8238 35.6852C43.5846 35.6852 40.4052 29.7715 40.9285 29.2483C41.1398 29.0369 42.0771 29.5087 43.3436 30.1462Z" fill="white"/>
</svg>
